<svg width="1040" height="499" viewBox="0 0 1040 499" fill="none" xmlns="http://www.w3.org/2000/svg">
<g clip-path="url(#clip0_102_2)">
<rect width="1040" height="499" fill="#F8E8E8"/>
<path opacity="0.7" d="M587.93 166.09C587.93 166.09 560.05 238.09 599.23 310.59C638.41 383.09 719.11 421.39 783.7 454.14C848.29 486.89 915.36 470.94 947.23 417.3C979.1 363.66 935.39 325.37 935.33 248.88C935.27 172.39 946.78 152.14 905.33 87.52C863.88 22.9 762.27 8.59 685.43 56.52C608.59 104.45 587.93 166.09 587.93 166.09Z" fill="white"/>
<path d="M752.69 27.84C876.69 16.84 876.94 86.78 932.82 151.97C988.7 217.16 1000.67 246.73 979.6 321.88C958.53 397.03 887.54 456 799.71 422.57C711.88 389.14 661.57 421.25 606.17 391.57C550.77 361.89 530.17 304.66 570.75 237.16C611.33 169.66 599.75 41.47 752.69 27.84Z" fill="#C53F3F"/>
<path opacity="0.7" d="M752.69 27.84C876.69 16.84 876.94 86.78 932.82 151.97C988.7 217.16 1000.67 246.73 979.6 321.88C958.53 397.03 887.54 456 799.71 422.57C711.88 389.14 661.57 421.25 606.17 391.57C550.77 361.89 530.17 304.66 570.75 237.16C611.33 169.66 599.75 41.47 752.69 27.84Z" fill="white"/>
<path d="M946.94 322.71L946.16 329.71L959.77 313.8C961.398 313.97 963.033 314.057 964.67 314.06" stroke="#263238" stroke-linecap="round" stroke-linejoin="round"/>
<path d="M929.89 274.43C928.102 277.128 926.982 280.213 926.62 283.43C925.33 295.06 934.45 306.06 948.23 311.15L947.53 317.4" stroke="#263238" stroke-linecap="round" stroke-linejoin="round"/>
<path d="M935.18 268.64C934.294 269.358 933.452 270.129 932.66 270.95" stroke="#263238" stroke-linecap="round" stroke-linejoin="round"/>
<path d="M986.22 268.64C980.008 264.382 972.824 261.755 965.33 261C957.411 260.029 949.375 261.211 942.07 264.42" stroke="#263238" stroke-linecap="round" stroke-linejoin="round"/>
<path d="M974.14 313.12C987.14 310.43 996.99 302.12 998.14 291.34C998.98 283.8 995.45 276.53 989.14 270.95" stroke="#263238" stroke-linecap="round" stroke-linejoin="round"/>
<path d="M942.08 276.37C943.181 276.575 944.311 276.561 945.406 276.327C946.501 276.094 947.539 275.646 948.46 275.01L953.32 278.78C952.98 278.89 953.01 278.17 953.37 278.15C953.73 278.13 954 278.46 954.25 278.72C955.39 279.93 957.31 279.97 958.94 279.62C960.57 279.27 962.16 278.62 963.82 278.68C964.807 278.783 965.778 279.008 966.71 279.35C973.39 281.42 980.34 282.46 987.26 283.48" stroke="#263238" stroke-linecap="round" stroke-linejoin="round"/>
<path d="M936.34 283.48C937.34 283.42 942.91 283.48 943.71 282.81L945.07 285.18L946.57 283.73C946.83 284.73 947.09 285.73 947.34 286.67C948.47 286.94 948.34 284.76 949.34 284.11C949.648 283.959 950.001 283.93 950.329 284.028C950.657 284.127 950.936 284.345 951.11 284.64C951.438 285.254 951.597 285.944 951.57 286.64L958.41 287.2L959.74 287.31C960.216 286.585 960.92 286.039 961.74 285.76C961.49 287.34 963.48 288.24 965.06 288.56C972.84 290.147 980.66 291.517 988.52 292.67" stroke="#263238" stroke-linecap="round" stroke-linejoin="round"/>
<path d="M939.38 294.34C940.01 294.78 940.78 293.96 941.55 293.86C942.32 293.76 942.95 294.34 943.63 294.69C944.31 295.04 945.43 294.89 945.47 294.13C945.63 295.13 946.87 295.49 947.88 295.63L974.14 299.32" stroke="#263238" stroke-linecap="round" stroke-linejoin="round"/>
<path d="M588 260.18L598.52 274.34L596.41 255.81C598.925 254.589 601.331 253.154 603.6 251.52C614.38 243.72 618.72 231.17 614.77 221.06C612 214 605.51 209.2 597.31 207.21" stroke="#263238" stroke-linecap="round" stroke-linejoin="round"/>
<path d="M546.45 237.84C546.122 241.047 546.561 244.286 547.73 247.29C551.99 258.19 565.17 263.69 579.73 261.79" stroke="#263238" stroke-linecap="round" stroke-linejoin="round"/>
<path d="M548.44 230.25C547.993 231.3 547.609 232.375 547.29 233.47" stroke="#263238" stroke-linecap="round" stroke-linejoin="round"/>
<path d="M593.64 206.53C586.158 205.636 578.572 206.64 571.58 209.45C564.118 212.272 557.554 217.053 552.58 223.29" stroke="#263238" stroke-linecap="round" stroke-linejoin="round"/>
<path d="M558.14 233.88C560.291 233.209 562.089 231.713 563.14 229.72L569.14 230.8C568.88 231.05 568.58 230.4 568.89 230.21C569.2 230.02 569.59 230.21 569.89 230.31C571.47 230.85 573.18 230 574.46 228.93C575.74 227.86 576.84 226.53 578.35 225.83C579.273 225.461 580.236 225.206 581.22 225.07C588.1 223.81 594.73 221.49 601.34 219.18" stroke="#263238" stroke-linecap="round" stroke-linejoin="round"/>
<path d="M556.36 242.85C557.25 242.32 562.18 239.79 562.58 238.85L564.89 240.32C565.11 239.66 565.33 238.99 565.54 238.32L567.59 240.57C568.72 240.29 567.59 238.42 568.13 237.4C568.331 237.123 568.63 236.933 568.966 236.868C569.302 236.803 569.65 236.868 569.94 237.05C570.511 237.433 570.97 237.961 571.27 238.58L577.58 235.9L578.82 235.38C578.891 234.521 579.243 233.71 579.82 233.07C580.34 234.6 582.52 234.46 584.06 234.01C591.694 231.81 599.257 229.39 606.75 226.75" stroke="#263238" stroke-linecap="round" stroke-linejoin="round"/>
<path d="M564.1 251.05C564.87 251.15 565.17 250.05 565.8 249.61C566.43 249.17 567.27 249.4 568.03 249.38C568.79 249.36 569.72 248.73 569.4 248.04C570.01 248.85 571.28 248.59 572.23 248.25L597.23 239.3" stroke="#263238" stroke-linecap="round" stroke-linejoin="round"/>
<path d="M892.93 88.62H643.59C638.736 88.62 634.8 92.5554 634.8 97.41V322.03C634.8 326.885 638.736 330.82 643.59 330.82H892.93C897.785 330.82 901.72 326.885 901.72 322.03V97.41C901.72 92.5554 897.785 88.62 892.93 88.62Z" fill="#C53F3F"/>
<path opacity="0.2" d="M901.72 221.29V322.29C901.72 324.551 900.823 326.719 899.225 328.318C897.628 329.917 895.461 330.817 893.2 330.82H643.33C641.068 330.82 638.898 329.921 637.299 328.322C635.699 326.722 634.8 324.552 634.8 322.29V302.29H635.33V315.77C635.33 317.051 635.583 318.32 636.073 319.503C636.564 320.687 637.283 321.762 638.19 322.668C639.096 323.573 640.172 324.291 641.356 324.781C642.54 325.27 643.809 325.521 645.09 325.52H886.48C887.762 325.521 889.03 325.27 890.215 324.781C891.399 324.291 892.475 323.573 893.381 322.668C894.287 321.762 895.007 320.687 895.497 319.503C895.988 318.32 896.24 317.051 896.24 315.77V236.27C896.24 234.469 895.525 232.742 894.252 231.469C892.978 230.195 891.251 229.48 889.45 229.48H634.8V221.29H901.72Z" fill="black"/>
<path d="M892.93 88.62H643.59C638.736 88.62 634.8 92.5554 634.8 97.41V322.03C634.8 326.885 638.736 330.82 643.59 330.82H892.93C897.785 330.82 901.72 326.885 901.72 322.03V97.41C901.72 92.5554 897.785 88.62 892.93 88.62Z" stroke="#263238" stroke-linecap="round" stroke-linejoin="round"/>
<path d="M878.48 250.05V238.48C878.482 237.918 878.372 237.36 878.157 236.841C877.942 236.321 877.627 235.848 877.23 235.451C876.832 235.053 876.36 234.738 875.84 234.523C875.32 234.308 874.763 234.199 874.2 234.2H662.32C661.185 234.2 660.096 234.651 659.294 235.454C658.491 236.256 658.04 237.345 658.04 238.48V250.05C658.04 251.185 657.589 252.274 656.787 253.076C655.984 253.879 654.895 254.33 653.76 254.33V254.33C652.622 254.33 651.531 254.782 650.727 255.587C649.922 256.391 649.47 257.482 649.47 258.62V281.45C649.47 286.715 651.562 291.763 655.284 295.486C659.007 299.209 664.056 301.3 669.32 301.3V301.3C670.166 301.3 670.978 301.636 671.576 302.234C672.174 302.833 672.51 303.644 672.51 304.49V311.33C672.51 313.855 673.513 316.276 675.299 318.062C677.084 319.847 679.505 320.85 682.03 320.85H854.49C857.015 320.85 859.437 319.847 861.222 318.062C863.007 316.276 864.01 313.855 864.01 311.33V304.49C864.01 303.644 864.346 302.833 864.945 302.234C865.543 301.636 866.354 301.3 867.2 301.3C869.807 301.3 872.388 300.787 874.796 299.789C877.205 298.791 879.393 297.329 881.236 295.486C883.08 293.643 884.542 291.455 885.539 289.046C886.537 286.638 887.05 284.057 887.05 281.45V258.62C887.05 257.484 886.6 256.394 885.797 255.59C884.995 254.786 883.906 254.333 882.77 254.33C881.634 254.33 880.545 253.879 879.74 253.077C878.936 252.275 878.483 251.186 878.48 250.05V250.05Z" fill="#263238"/>
<path d="M674.27 240.75H666.86C665.953 240.75 665.083 241.11 664.442 241.752C663.8 242.393 663.44 243.263 663.44 244.17V246.07C663.44 250.01 666.63 255.01 670.57 255.01C674.51 255.01 677.7 250.01 677.7 246.07V244.17C677.697 243.262 677.335 242.392 676.692 241.751C676.049 241.11 675.178 240.75 674.27 240.75V240.75Z" fill="#C53F3F" stroke="#263238" stroke-linecap="round" stroke-linejoin="round"/>
<path d="M692 240.75H684.59C683.682 240.75 682.811 241.11 682.168 241.751C681.525 242.392 681.163 243.262 681.16 244.17V246.07C681.16 250.01 684.35 255.01 688.29 255.01C692.23 255.01 695.42 250.01 695.42 246.07V244.17C695.42 243.263 695.06 242.393 694.418 241.752C693.777 241.11 692.907 240.75 692 240.75V240.75Z" fill="#C53F3F" stroke="#263238" stroke-linecap="round" stroke-linejoin="round"/>
<path d="M709.8 240.75H702.39C701.483 240.75 700.613 241.11 699.972 241.752C699.331 242.393 698.97 243.263 698.97 244.17V246.07C698.97 250.01 702.16 255.01 706.09 255.01C710.02 255.01 713.22 250.01 713.22 246.07V244.17C713.22 243.263 712.86 242.393 712.219 241.752C711.577 241.11 710.707 240.75 709.8 240.75V240.75Z" fill="#C53F3F" stroke="#263238" stroke-linecap="round" stroke-linejoin="round"/>
<path d="M727.56 240.75H720.15C719.243 240.75 718.373 241.11 717.732 241.752C717.09 242.393 716.73 243.263 716.73 244.17V246.07C716.73 250.01 719.92 255.01 723.86 255.01C727.8 255.01 730.98 250.01 730.98 246.07V244.17C730.98 243.721 730.892 243.276 730.72 242.861C730.548 242.446 730.296 242.069 729.978 241.752C729.661 241.434 729.284 241.182 728.869 241.01C728.454 240.838 728.009 240.75 727.56 240.75V240.75Z" fill="#C53F3F" stroke="#263238" stroke-linecap="round" stroke-linejoin="round"/>
<path d="M745.32 240.75H737.91C737.003 240.75 736.133 241.11 735.492 241.752C734.851 242.393 734.49 243.263 734.49 244.17V246.07C734.49 250.01 737.68 255.01 741.62 255.01C745.56 255.01 748.75 250.01 748.75 246.07V244.17C748.748 243.262 748.385 242.392 747.742 241.751C747.099 241.11 746.228 240.75 745.32 240.75V240.75Z" fill="#C53F3F" stroke="#263238" stroke-linecap="round" stroke-linejoin="round"/>
<path d="M763.09 240.75H755.68C754.772 240.75 753.901 241.11 753.258 241.751C752.615 242.392 752.253 243.262 752.25 244.17V246.07C752.25 250.01 755.44 255.01 759.38 255.01C763.32 255.01 766.51 250.01 766.51 246.07V244.17C766.51 243.263 766.15 242.393 765.508 241.752C764.867 241.11 763.997 240.75 763.09 240.75V240.75Z" fill="#C53F3F" stroke="#263238" stroke-linecap="round" stroke-linejoin="round"/>
<path d="M780.85 240.75H773.44C772.533 240.75 771.663 241.11 771.022 241.752C770.38 242.393 770.02 243.263 770.02 244.17V246.07C770.02 250.01 773.21 255.01 777.14 255.01C781.07 255.01 784.27 250.01 784.27 246.07V244.17C784.27 243.263 783.91 242.393 783.268 241.752C782.627 241.11 781.757 240.75 780.85 240.75V240.75Z" fill="#C53F3F" stroke="#263238" stroke-linecap="round" stroke-linejoin="round"/>
<path d="M798.61 240.75H791.2C790.293 240.75 789.423 241.11 788.782 241.752C788.141 242.393 787.78 243.263 787.78 244.17V246.07C787.78 250.01 790.97 255.01 794.91 255.01C798.85 255.01 802.03 250.01 802.03 246.07V244.17C802.03 243.263 801.67 242.393 801.029 241.752C800.387 241.11 799.517 240.75 798.61 240.75V240.75Z" fill="#C53F3F" stroke="#263238" stroke-linecap="round" stroke-linejoin="round"/>
<path d="M816.37 240.75H809C808.551 240.75 808.106 240.838 807.691 241.01C807.276 241.182 806.899 241.434 806.582 241.752C806.264 242.069 806.012 242.446 805.84 242.861C805.669 243.276 805.58 243.721 805.58 244.17V246.07C805.58 250.01 808.77 255.01 812.71 255.01C816.65 255.01 819.84 250.01 819.84 246.07V244.17C819.839 243.717 819.748 243.269 819.572 242.851C819.397 242.434 819.14 242.055 818.818 241.737C818.495 241.419 818.113 241.168 817.693 240.999C817.273 240.829 816.823 240.745 816.37 240.75V240.75Z" fill="#C53F3F" stroke="#263238" stroke-linecap="round" stroke-linejoin="round"/>
<path d="M834.14 240.75H826.73C825.822 240.75 824.951 241.11 824.308 241.751C823.666 242.392 823.303 243.262 823.3 244.17V246.07C823.3 250.01 826.49 255.01 830.43 255.01C834.37 255.01 837.56 250.01 837.56 246.07V244.17C837.56 243.263 837.2 242.393 836.559 241.752C835.917 241.11 835.047 240.75 834.14 240.75V240.75Z" fill="#C53F3F" stroke="#263238" stroke-linecap="round" stroke-linejoin="round"/>
<path d="M851.9 240.75H844.49C843.583 240.75 842.713 241.11 842.072 241.752C841.431 242.393 841.07 243.263 841.07 244.17V246.07C841.07 250.01 844.26 255.01 848.19 255.01C852.12 255.01 855.32 250.01 855.32 246.07V244.17C855.32 243.263 854.96 242.393 854.319 241.752C853.677 241.11 852.807 240.75 851.9 240.75V240.75Z" fill="#C53F3F" stroke="#263238" stroke-linecap="round" stroke-linejoin="round"/>
<path d="M869.66 240.75H862.25C861.343 240.75 860.473 241.11 859.832 241.752C859.19 242.393 858.83 243.263 858.83 244.17V246.07C858.83 250 862 255 866 255C870 255 873.12 250 873.12 246.06V244.16C873.119 243.708 873.028 243.261 872.853 242.845C872.678 242.429 872.422 242.051 872.101 241.734C871.779 241.417 871.398 241.167 870.979 240.998C870.56 240.829 870.112 240.745 869.66 240.75V240.75Z" fill="#C53F3F" stroke="#263238" stroke-linecap="round" stroke-linejoin="round"/>
<path d="M674.27 278.39H666.86C665.953 278.39 665.083 278.75 664.442 279.392C663.8 280.033 663.44 280.903 663.44 281.81V283.71C663.44 287.65 666.63 292.65 670.57 292.65C674.51 292.65 677.7 287.65 677.7 283.71V281.81C677.697 280.902 677.335 280.032 676.692 279.391C676.049 278.75 675.178 278.39 674.27 278.39V278.39Z" fill="#C53F3F" stroke="#263238" stroke-linecap="round" stroke-linejoin="round"/>
<path d="M692 278.39H684.59C683.682 278.39 682.811 278.75 682.168 279.391C681.525 280.032 681.163 280.902 681.16 281.81V283.71C681.16 287.65 684.35 292.65 688.29 292.65C692.23 292.65 695.42 287.65 695.42 283.71V281.81C695.42 280.903 695.06 280.033 694.418 279.392C693.777 278.75 692.907 278.39 692 278.39V278.39Z" fill="#C53F3F" stroke="#263238" stroke-linecap="round" stroke-linejoin="round"/>
<path d="M709.8 278.39H702.39C701.483 278.39 700.613 278.75 699.972 279.392C699.331 280.033 698.97 280.903 698.97 281.81V283.71C698.97 287.65 702.16 292.65 706.09 292.65C710.02 292.65 713.22 287.65 713.22 283.71V281.81C713.22 280.903 712.86 280.033 712.219 279.392C711.577 278.75 710.707 278.39 709.8 278.39V278.39Z" fill="#C53F3F" stroke="#263238" stroke-linecap="round" stroke-linejoin="round"/>
<path d="M727.56 278.39H720.15C719.243 278.39 718.373 278.75 717.732 279.392C717.09 280.033 716.73 280.903 716.73 281.81V283.71C716.73 287.65 719.92 292.65 723.86 292.65C727.8 292.65 730.98 287.65 730.98 283.71V281.81C730.98 281.361 730.892 280.916 730.72 280.501C730.548 280.086 730.296 279.709 729.978 279.392C729.661 279.074 729.284 278.822 728.869 278.65C728.454 278.478 728.009 278.39 727.56 278.39V278.39Z" fill="#C53F3F" stroke="#263238" stroke-linecap="round" stroke-linejoin="round"/>
<path d="M745.32 278.39H737.91C737.003 278.39 736.133 278.75 735.492 279.392C734.851 280.033 734.49 280.903 734.49 281.81V283.71C734.49 287.65 737.68 292.65 741.62 292.65C745.56 292.65 748.75 287.65 748.75 283.71V281.81C748.748 280.902 748.385 280.032 747.742 279.391C747.099 278.75 746.228 278.39 745.32 278.39V278.39Z" fill="#C53F3F" stroke="#263238" stroke-linecap="round" stroke-linejoin="round"/>
<path d="M763.09 278.39H755.68C754.772 278.39 753.901 278.75 753.258 279.391C752.615 280.032 752.253 280.902 752.25 281.81V283.71C752.25 287.65 755.44 292.65 759.38 292.65C763.32 292.65 766.51 287.65 766.51 283.71V281.81C766.51 280.903 766.15 280.033 765.508 279.392C764.867 278.75 763.997 278.39 763.09 278.39Z" fill="#C53F3F" stroke="#263238" stroke-linecap="round" stroke-linejoin="round"/>
<path d="M780.85 278.39H773.44C772.533 278.39 771.663 278.75 771.022 279.392C770.38 280.033 770.02 280.903 770.02 281.81V283.71C770.02 287.65 773.21 292.65 777.14 292.65C781.07 292.65 784.27 287.65 784.27 283.71V281.81C784.27 280.903 783.91 280.033 783.268 279.392C782.627 278.75 781.757 278.39 780.85 278.39V278.39Z" fill="#C53F3F" stroke="#263238" stroke-linecap="round" stroke-linejoin="round"/>
<path d="M798.61 278.39H791.2C790.293 278.39 789.423 278.75 788.782 279.392C788.141 280.033 787.78 280.903 787.78 281.81V283.71C787.78 287.65 790.97 292.65 794.91 292.65C798.85 292.65 802.03 287.65 802.03 283.71V281.81C802.03 280.903 801.67 280.033 801.029 279.392C800.387 278.75 799.517 278.39 798.61 278.39V278.39Z" fill="#C53F3F" stroke="#263238" stroke-linecap="round" stroke-linejoin="round"/>
<path d="M816.37 278.39H809C808.551 278.39 808.106 278.478 807.691 278.65C807.276 278.822 806.899 279.074 806.582 279.392C806.264 279.709 806.012 280.086 805.84 280.501C805.669 280.916 805.58 281.361 805.58 281.81V283.71C805.58 287.65 808.77 292.65 812.71 292.65C816.65 292.65 819.84 287.65 819.84 283.71V281.81C819.839 281.357 819.748 280.909 819.572 280.491C819.397 280.074 819.14 279.695 818.818 279.377C818.495 279.059 818.113 278.808 817.693 278.639C817.273 278.469 816.823 278.385 816.37 278.39V278.39Z" fill="#C53F3F" stroke="#263238" stroke-linecap="round" stroke-linejoin="round"/>
<path d="M834.14 278.39H826.73C825.822 278.39 824.951 278.75 824.308 279.391C823.666 280.032 823.303 280.902 823.3 281.81V283.71C823.3 287.65 826.49 292.65 830.43 292.65C834.37 292.65 837.56 287.65 837.56 283.71V281.81C837.56 280.903 837.2 280.033 836.559 279.392C835.917 278.75 835.047 278.39 834.14 278.39V278.39Z" fill="#C53F3F" stroke="#263238" stroke-linecap="round" stroke-linejoin="round"/>
<path d="M851.9 278.39H844.49C843.583 278.39 842.713 278.75 842.072 279.392C841.431 280.033 841.07 280.903 841.07 281.81V283.71C841.07 287.65 844.26 292.65 848.19 292.65C852.12 292.65 855.32 287.65 855.32 283.71V281.81C855.32 280.903 854.96 280.033 854.319 279.392C853.677 278.75 852.807 278.39 851.9 278.39Z" fill="#C53F3F" stroke="#263238" stroke-linecap="round" stroke-linejoin="round"/>
<path d="M869.66 278.39H862.25C861.343 278.39 860.473 278.75 859.832 279.392C859.19 280.033 858.83 280.903 858.83 281.81V283.71C858.83 287.65 862.02 292.65 865.96 292.65C869.9 292.65 873.08 287.65 873.08 283.71V281.81C873.08 280.903 872.72 280.033 872.078 279.392C871.437 278.75 870.567 278.39 869.66 278.39V278.39Z" fill="#C53F3F" stroke="#263238" stroke-linecap="round" stroke-linejoin="round"/>
<path d="M665.39 260.18H658C657.093 260.18 656.223 260.54 655.582 261.182C654.94 261.823 654.58 262.693 654.58 263.6V265.5C654.58 269.43 657.77 274.44 661.71 274.44C665.65 274.44 668.83 269.44 668.83 265.5V263.6C668.83 263.149 668.741 262.703 668.568 262.287C668.395 261.87 668.141 261.492 667.821 261.175C667.502 260.857 667.122 260.605 666.705 260.435C666.288 260.264 665.841 260.177 665.39 260.18V260.18Z" fill="#C53F3F" stroke="#263238" stroke-linecap="round" stroke-linejoin="round"/>
<path d="M683.15 260.18H675.74C674.833 260.18 673.963 260.54 673.322 261.182C672.681 261.823 672.32 262.693 672.32 263.6V265.5C672.32 269.43 675.51 274.44 679.45 274.44C683.39 274.44 686.58 269.44 686.58 265.5V263.6C686.578 262.692 686.215 261.822 685.572 261.181C684.929 260.54 684.058 260.18 683.15 260.18V260.18Z" fill="#C53F3F" stroke="#263238" stroke-linecap="round" stroke-linejoin="round"/>
<path d="M700.92 260.18H693.51C692.602 260.18 691.731 260.54 691.088 261.181C690.445 261.822 690.083 262.692 690.08 263.6V265.5C690.08 269.43 693.28 274.44 697.21 274.44C701.14 274.44 704.34 269.44 704.34 265.5V263.6C704.34 262.693 703.98 261.823 703.338 261.182C702.697 260.54 701.827 260.18 700.92 260.18V260.18Z" fill="#C53F3F" stroke="#263238" stroke-linecap="round" stroke-linejoin="round"/>
<path d="M718.68 260.18H711.27C710.363 260.18 709.493 260.54 708.852 261.182C708.21 261.823 707.85 262.693 707.85 263.6V265.5C707.85 269.43 711.04 274.44 714.97 274.44C718.9 274.44 722.1 269.44 722.1 265.5V263.6C722.1 263.151 722.012 262.706 721.84 262.291C721.668 261.876 721.416 261.499 721.098 261.182C720.781 260.864 720.404 260.612 719.989 260.44C719.574 260.268 719.129 260.18 718.68 260.18V260.18Z" fill="#C53F3F" stroke="#263238" stroke-linecap="round" stroke-linejoin="round"/>
<path d="M736.44 260.18H729C728.093 260.18 727.223 260.54 726.582 261.182C725.94 261.823 725.58 262.693 725.58 263.6V265.5C725.58 269.43 728.77 274.44 732.71 274.44C736.65 274.44 739.83 269.44 739.83 265.5V263.6C739.83 262.698 739.474 261.833 738.839 261.192C738.204 260.552 737.342 260.188 736.44 260.18V260.18Z" fill="#C53F3F" stroke="#263238" stroke-linecap="round" stroke-linejoin="round"/>
<path d="M754.2 260.18H746.79C745.883 260.18 745.013 260.54 744.372 261.182C743.73 261.823 743.37 262.693 743.37 263.6V265.5C743.37 269.43 746.56 274.44 750.5 274.44C754.44 274.44 757.63 269.44 757.63 265.5V263.6C757.627 262.692 757.265 261.822 756.622 261.181C755.979 260.54 755.108 260.18 754.2 260.18V260.18Z" fill="#C53F3F" stroke="#263238" stroke-linecap="round" stroke-linejoin="round"/>
<path d="M772 260.18H764.59C763.682 260.18 762.811 260.54 762.168 261.181C761.525 261.822 761.163 262.692 761.16 263.6V265.5C761.16 269.43 764.36 274.44 768.29 274.44C772.22 274.44 775.42 269.44 775.42 265.5V263.6C775.42 262.693 775.06 261.823 774.418 261.182C773.777 260.54 772.907 260.18 772 260.18V260.18Z" fill="#C53F3F" stroke="#263238" stroke-linecap="round" stroke-linejoin="round"/>
<path d="M789.73 260.18H782.32C781.413 260.18 780.543 260.54 779.902 261.182C779.26 261.823 778.9 262.693 778.9 263.6V265.5C778.9 269.43 782.09 274.44 786.02 274.44C789.95 274.44 793.15 269.44 793.15 265.5V263.6C793.15 262.693 792.79 261.823 792.148 261.182C791.507 260.54 790.637 260.18 789.73 260.18Z" fill="#C53F3F" stroke="#263238" stroke-linecap="round" stroke-linejoin="round"/>
<path d="M807.49 260.18H800.08C799.173 260.18 798.303 260.54 797.662 261.182C797.02 261.823 796.66 262.693 796.66 263.6V265.5C796.66 269.43 799.85 274.44 803.79 274.44C807.73 274.44 810.91 269.44 810.91 265.5V263.6C810.91 262.693 810.55 261.823 809.908 261.182C809.267 260.54 808.397 260.18 807.49 260.18Z" fill="#C53F3F" stroke="#263238" stroke-linecap="round" stroke-linejoin="round"/>
<path d="M825.25 260.18H817.84C816.933 260.18 816.063 260.54 815.422 261.182C814.78 261.823 814.42 262.693 814.42 263.6V265.5C814.42 269.43 817.61 274.44 821.55 274.44C825.49 274.44 828.68 269.44 828.68 265.5V263.6C828.677 262.692 828.315 261.822 827.672 261.181C827.029 260.54 826.158 260.18 825.25 260.18V260.18Z" fill="#C53F3F" stroke="#263238" stroke-linecap="round" stroke-linejoin="round"/>
<path d="M843 260.18H835.59C834.682 260.18 833.811 260.54 833.168 261.181C832.525 261.822 832.163 262.692 832.16 263.6V265.5C832.16 269.43 835.36 274.44 839.29 274.44C843.22 274.44 846.42 269.44 846.42 265.5V263.6C846.42 262.693 846.06 261.823 845.418 261.182C844.777 260.54 843.907 260.18 843 260.18Z" fill="#C53F3F" stroke="#263238" stroke-linecap="round" stroke-linejoin="round"/>
<path d="M860.78 260.18H853.37C852.472 260.193 851.615 260.559 850.984 261.199C850.353 261.839 850 262.702 850 263.6V265.5C850 269.43 853.19 274.44 857.12 274.44C861.05 274.44 864.25 269.44 864.25 265.5V263.6C864.25 263.147 864.16 262.698 863.985 262.28C863.81 261.861 863.554 261.482 863.231 261.164C862.908 260.846 862.525 260.595 862.104 260.426C861.683 260.257 861.233 260.173 860.78 260.18V260.18Z" fill="#C53F3F" stroke="#263238" stroke-linecap="round" stroke-linejoin="round"/>
<path d="M878.54 260.18H871.13C870.223 260.18 869.353 260.54 868.712 261.182C868.07 261.823 867.71 262.693 867.71 263.6V265.5C867.71 269.43 870.9 274.44 874.84 274.44C878.78 274.44 881.96 269.44 881.96 265.5V263.6C881.96 262.693 881.6 261.823 880.958 261.182C880.317 260.54 879.447 260.18 878.54 260.18V260.18Z" fill="#C53F3F" stroke="#263238" stroke-linecap="round" stroke-linejoin="round"/>
<path d="M836.1 297.35H700.42C698.647 297.35 697.21 298.787 697.21 300.56V310.3C697.21 312.073 698.647 313.51 700.42 313.51H836.1C837.873 313.51 839.31 312.073 839.31 310.3V300.56C839.31 298.787 837.873 297.35 836.1 297.35Z" fill="#C53F3F" stroke="#263238" stroke-linecap="round" stroke-linejoin="round"/>
<path d="M854.27 298.3H846.86C845.953 298.3 845.083 298.66 844.442 299.302C843.8 299.943 843.44 300.813 843.44 301.72V303.62C843.44 307.56 846.63 312.56 850.57 312.56C854.51 312.56 857.69 307.56 857.69 303.62V301.72C857.69 300.813 857.33 299.943 856.688 299.302C856.047 298.66 855.177 298.3 854.27 298.3Z" fill="#C53F3F" stroke="#263238" stroke-linecap="round" stroke-linejoin="round"/>
<path d="M689.66 298.3H682.25C681.343 298.3 680.473 298.66 679.832 299.302C679.19 299.943 678.83 300.813 678.83 301.72V303.62C678.83 307.56 682.02 312.56 685.96 312.56C689.9 312.56 693.09 307.56 693.09 303.62V301.72C693.087 300.812 692.725 299.942 692.082 299.301C691.439 298.66 690.568 298.3 689.66 298.3V298.3Z" fill="#C53F3F" stroke="#263238" stroke-linecap="round" stroke-linejoin="round"/>
<path opacity="0.2" d="M674.68 246.18C675.039 246.182 675.397 246.215 675.75 246.28C675.75 246.21 675.75 246.14 675.75 246.07V244.17C675.747 243.777 675.589 243.4 675.31 243.123C675.031 242.846 674.654 242.69 674.26 242.69H666.85C666.458 242.693 666.083 242.849 665.807 243.126C665.53 243.403 665.373 243.778 665.37 244.17V246.07C665.37 248.8 667.37 252.24 669.73 252.93C669 249.9 670.64 246.18 674.68 246.18Z" fill="black"/>
<path opacity="0.2" d="M692.84 245.67C693.067 245.655 693.294 245.655 693.52 245.67V244.13C693.518 243.738 693.361 243.363 693.084 243.086C692.807 242.809 692.432 242.653 692.04 242.65H684.63C684.237 242.65 683.859 242.806 683.58 243.083C683.301 243.36 683.143 243.737 683.14 244.13V246.03C683.14 249.03 685.51 252.78 688.14 253.03C686.93 249.93 688.52 245.67 692.84 245.67Z" fill="black"/>
<path opacity="0.2" d="M711.13 245.41H711.28V244.16C711.28 243.767 711.124 243.391 710.846 243.113C710.569 242.836 710.192 242.68 709.8 242.68H702.39C701.996 242.68 701.619 242.836 701.34 243.113C701.061 243.39 700.903 243.767 700.9 244.16V246.06C700.9 249.11 703.42 253.06 706.09 253.06C706.22 253.07 706.35 253.07 706.48 253.06C705.14 249.9 706.69 245.41 711.13 245.41Z" fill="black"/>
<path opacity="0.2" d="M727.76 244.9C728.176 244.888 728.591 244.922 729 245V244.13C729 243.737 728.844 243.361 728.566 243.083C728.289 242.806 727.912 242.65 727.52 242.65H720.11C719.717 242.65 719.341 242.806 719.063 243.083C718.786 243.361 718.63 243.737 718.63 244.13V246.03C718.63 248.89 720.83 252.53 723.31 253.03C721.61 249.89 723.08 244.9 727.76 244.9Z" fill="black"/>
<path opacity="0.2" d="M746.43 244.9H746.81V244.15C746.808 243.757 746.649 243.38 746.37 243.103C746.091 242.826 745.714 242.67 745.32 242.67H737.91C737.518 242.673 737.144 242.829 736.867 243.106C736.59 243.383 736.433 243.758 736.43 244.15V246.05C736.43 249.1 738.95 253.05 741.62 253.05C741.757 253.06 741.894 253.06 742.03 253.05C740.28 249.9 741.75 244.9 746.43 244.9Z" fill="black"/>
<path opacity="0.2" d="M764.34 245H764.57V244.13C764.567 243.738 764.411 243.363 764.134 243.086C763.857 242.809 763.482 242.653 763.09 242.65H755.68C755.286 242.65 754.909 242.806 754.63 243.083C754.351 243.36 754.193 243.737 754.19 244.13V246.03C754.19 249.08 756.71 253.03 759.38 253.03C759.543 253.045 759.707 253.045 759.87 253.03C758.23 249.88 759.72 245 764.34 245Z" fill="black"/>
<path opacity="0.2" d="M781.48 244.9C781.764 244.904 782.048 244.924 782.33 244.96V244.17C782.33 243.777 782.174 243.401 781.896 243.123C781.619 242.846 781.242 242.69 780.85 242.69H773.44C773.047 242.69 772.671 242.846 772.393 243.123C772.116 243.401 771.96 243.777 771.96 244.17V246.07C771.96 249.07 774.44 253.01 777.09 253.07C775.32 249.93 776.78 244.9 781.48 244.9Z" fill="black"/>
<path opacity="0.2" d="M800.09 245.16V244.16C800.09 243.767 799.934 243.391 799.657 243.113C799.379 242.836 799.003 242.68 798.61 242.68H791.2C790.808 242.68 790.431 242.836 790.154 243.113C789.876 243.391 789.72 243.767 789.72 244.16V246.06C789.72 249.11 792.23 253.06 794.91 253.06C795.179 253.056 795.445 253.012 795.7 252.93C794.26 249.85 795.73 245.3 800.09 245.16Z" fill="black"/>
<path opacity="0.2" d="M816.4 244.77C816.893 244.769 817.384 244.833 817.86 244.96V244.17C817.857 243.777 817.699 243.4 817.42 243.123C817.141 242.846 816.763 242.69 816.37 242.69H809C808.608 242.693 808.233 242.849 807.956 243.126C807.679 243.403 807.523 243.778 807.52 244.17V246.07C807.52 248.89 809.66 252.45 812.09 252.99C810.22 249.86 811.67 244.77 816.4 244.77Z" fill="black"/>
<path opacity="0.2" d="M834.56 244.77C834.916 244.771 835.271 244.805 835.62 244.87V244.17C835.618 243.778 835.461 243.403 835.184 243.126C834.907 242.849 834.532 242.693 834.14 242.69H826.73C826.337 242.69 825.959 242.846 825.68 243.123C825.401 243.4 825.243 243.777 825.24 244.17V246.07C825.24 249.07 827.64 252.88 830.24 253.07C828.36 249.93 829.8 244.77 834.56 244.77Z" fill="black"/>
<path opacity="0.2" d="M852.6 245.28C852.861 245.284 853.122 245.304 853.38 245.34V244.17C853.38 243.777 853.224 243.401 852.947 243.123C852.669 242.846 852.293 242.69 851.9 242.69H844.49C844.296 242.69 844.103 242.728 843.924 242.803C843.744 242.877 843.581 242.986 843.444 243.123C843.306 243.261 843.197 243.424 843.123 243.604C843.049 243.783 843.01 243.976 843.01 244.17V246.07C843.01 249.07 845.41 252.87 848.01 253.07C846.56 249.91 848.09 245.28 852.6 245.28Z" fill="black"/>
<path opacity="0.2" d="M871.14 245.05V244.17C871.14 243.777 870.984 243.401 870.707 243.123C870.429 242.846 870.053 242.69 869.66 242.69H862.25C861.858 242.69 861.481 242.846 861.204 243.123C860.926 243.401 860.77 243.777 860.77 244.17V246.07C860.77 249.12 863.28 253.07 865.96 253.07C866.346 253.064 866.726 252.983 867.08 252.83C865.66 249.81 867 245.39 871.14 245.05Z" fill="black"/>
<path opacity="0.2" d="M675.19 282C675.38 281.99 675.57 281.99 675.76 282V281.79C675.757 281.397 675.599 281.02 675.32 280.743C675.041 280.466 674.663 280.31 674.27 280.31H666.86C666.468 280.313 666.093 280.469 665.816 280.746C665.539 281.023 665.383 281.398 665.38 281.79V283.69C665.38 286.74 667.9 290.69 670.57 290.69C670.755 290.685 670.939 290.665 671.12 290.63C668.88 287.59 670.24 282 675.19 282Z" fill="black"/>
<path opacity="0.2" d="M692.59 282C692.902 282.001 693.213 282.028 693.52 282.08V281.82C693.518 281.428 693.361 281.053 693.084 280.776C692.807 280.499 692.432 280.343 692.04 280.34H684.63C684.237 280.34 683.859 280.496 683.58 280.773C683.301 281.05 683.143 281.427 683.14 281.82V283.72C683.14 286.77 685.66 290.72 688.33 290.72H688.55C686.26 287.64 687.61 282 692.59 282Z" fill="black"/>
<path opacity="0.2" d="M710.24 282.25C710.575 282.251 710.91 282.281 711.24 282.34V281.81C711.24 281.616 711.202 281.423 711.127 281.244C711.053 281.064 710.944 280.901 710.806 280.763C710.669 280.626 710.506 280.517 710.326 280.443C710.147 280.368 709.954 280.33 709.76 280.33H702.35C701.956 280.33 701.579 280.486 701.3 280.763C701.021 281.04 700.863 281.417 700.86 281.81V283.71C700.86 286.71 703.34 290.64 705.99 290.71C704 287.6 705.39 282.25 710.24 282.25Z" fill="black"/>
<path opacity="0.2" d="M728.27 282.38C728.527 282.381 728.785 282.397 729.04 282.43V281.81C729.04 281.616 729.002 281.423 728.927 281.244C728.853 281.064 728.744 280.901 728.606 280.763C728.469 280.626 728.306 280.517 728.126 280.443C727.947 280.368 727.754 280.33 727.56 280.33H720.15C719.956 280.33 719.763 280.368 719.584 280.443C719.404 280.517 719.241 280.626 719.103 280.763C718.966 280.901 718.857 281.064 718.783 281.244C718.708 281.423 718.67 281.616 718.67 281.81V283.71C718.67 286.76 721.18 290.71 723.86 290.71H723.98C722.06 287.58 723.49 282.38 728.27 282.38Z" fill="black"/>
<path opacity="0.2" d="M745.67 282C746.053 282 746.435 282.037 746.81 282.11V281.82C746.808 281.427 746.649 281.05 746.37 280.773C746.091 280.496 745.714 280.34 745.32 280.34H737.91C737.518 280.343 737.144 280.499 736.867 280.776C736.59 281.053 736.433 281.428 736.43 281.82V283.72C736.43 286.77 738.95 290.72 741.62 290.72C739.34 287.66 740.68 282 745.67 282Z" fill="black"/>
<path opacity="0.2" d="M763.7 282.12C763.991 282.122 764.282 282.146 764.57 282.19V281.81C764.567 281.418 764.411 281.043 764.134 280.766C763.857 280.489 763.482 280.333 763.09 280.33H755.68C755.286 280.33 754.909 280.486 754.63 280.763C754.351 281.04 754.193 281.417 754.19 281.81V283.71C754.19 286.76 756.71 290.71 759.38 290.71H759.57C757.41 287.61 758.79 282.12 763.7 282.12Z" fill="black"/>
<path opacity="0.2" d="M782.12 282.5H782.33V281.8C782.33 281.407 782.174 281.031 781.896 280.753C781.619 280.476 781.242 280.32 780.85 280.32H773.44C773.047 280.32 772.671 280.476 772.393 280.753C772.116 281.031 771.96 281.407 771.96 281.8V283.7C771.96 286.75 774.47 290.7 777.14 290.7C777.335 290.697 777.53 290.674 777.72 290.63C776 287.51 777.43 282.5 782.12 282.5Z" fill="black"/>
<path opacity="0.2" d="M800 282.12H800.06V281.81C800.06 281.616 800.022 281.423 799.948 281.244C799.873 281.064 799.764 280.901 799.627 280.763C799.489 280.626 799.326 280.517 799.147 280.443C798.967 280.368 798.775 280.33 798.58 280.33H791.2C791.006 280.33 790.813 280.368 790.634 280.443C790.454 280.517 790.291 280.626 790.154 280.763C790.016 280.901 789.907 281.064 789.833 281.244C789.759 281.423 789.72 281.616 789.72 281.81V283.71C789.72 286.76 792.23 290.71 794.91 290.71C795.217 290.705 795.521 290.651 795.81 290.55C793.78 287.45 795.19 282.12 800 282.12Z" fill="black"/>
<path opacity="0.2" d="M817.29 281.74H817.85C817.835 281.357 817.672 280.995 817.397 280.728C817.121 280.462 816.753 280.312 816.37 280.31H809C808.608 280.313 808.233 280.469 807.956 280.746C807.679 281.023 807.523 281.398 807.52 281.79V283.69C807.52 286.74 810.04 290.69 812.71 290.69C812.954 290.683 813.195 290.646 813.43 290.58C810.92 287.6 812.22 281.74 817.29 281.74Z" fill="black"/>
<path opacity="0.2" d="M835.59 282V281.82C835.587 281.428 835.431 281.053 835.154 280.776C834.877 280.499 834.502 280.343 834.11 280.34H826.7C826.307 280.34 825.929 280.496 825.65 280.773C825.371 281.05 825.213 281.427 825.21 281.82V283.72C825.21 286.77 827.73 290.72 830.4 290.72C830.741 290.715 831.079 290.654 831.4 290.54C829.31 287.44 830.69 282 835.59 282Z" fill="black"/>
<path opacity="0.2" d="M853 282H853.4V281.8C853.4 281.606 853.362 281.413 853.288 281.234C853.213 281.054 853.104 280.891 852.967 280.753C852.829 280.616 852.666 280.507 852.487 280.433C852.307 280.358 852.115 280.32 851.92 280.32H844.51C844.118 280.32 843.741 280.476 843.464 280.753C843.186 281.031 843.03 281.407 843.03 281.8V283.7C843.03 286.75 845.54 290.7 848.21 290.7C848.447 290.697 848.682 290.663 848.91 290.6C846.68 287.54 848.05 282 853 282Z" fill="black"/>
<path opacity="0.2" d="M870.5 282.76C870.72 282.76 870.94 282.76 871.14 282.76V281.76C871.14 281.367 870.984 280.991 870.707 280.713C870.429 280.436 870.053 280.28 869.66 280.28H862.25C861.858 280.28 861.481 280.436 861.204 280.713C860.926 280.991 860.77 281.367 860.77 281.76V283.66C860.77 286.71 863.28 290.66 865.96 290.66C864.41 287.56 865.91 282.76 870.5 282.76Z" fill="black"/>
<path opacity="0.2" d="M666.75 264.09H666.88V263.6C666.877 263.207 666.719 262.83 666.44 262.553C666.161 262.276 665.783 262.12 665.39 262.12H658C657.607 262.12 657.231 262.276 656.953 262.553C656.676 262.831 656.52 263.207 656.52 263.6V265.5C656.52 268.55 659.03 272.5 661.71 272.5C661.968 272.494 662.223 272.453 662.47 272.38C660.55 269.26 662 264.09 666.75 264.09Z" fill="black"/>
<path opacity="0.2" d="M684.14 264.09H684.64V263.58C684.638 263.187 684.479 262.81 684.2 262.533C683.921 262.256 683.544 262.1 683.15 262.1H675.74C675.349 262.103 674.974 262.259 674.697 262.536C674.42 262.813 674.263 263.188 674.26 263.58V265.48C674.26 268.53 676.78 272.48 679.45 272.48C679.597 272.49 679.744 272.49 679.89 272.48C677.92 269.35 679.34 264.09 684.14 264.09Z" fill="black"/>
<path opacity="0.2" d="M702.31 264.09H702.4V263.6C702.397 263.208 702.241 262.833 701.964 262.556C701.687 262.279 701.312 262.123 700.92 262.12H693.51C693.313 262.117 693.118 262.154 692.936 262.227C692.754 262.3 692.587 262.408 692.447 262.546C692.307 262.683 692.195 262.847 692.118 263.028C692.041 263.209 692.001 263.403 692 263.6V265.5C692 268.55 694.52 272.5 697.19 272.5C697.458 272.497 697.725 272.453 697.98 272.37C696.11 269.26 697.54 264.09 702.31 264.09Z" fill="black"/>
<path opacity="0.2" d="M719.7 264H720.16V263.62C720.16 263.227 720.004 262.851 719.727 262.573C719.449 262.296 719.073 262.14 718.68 262.14H711.27C710.878 262.14 710.501 262.296 710.224 262.573C709.946 262.851 709.79 263.227 709.79 263.62V265.52C709.79 268.57 712.3 272.52 714.97 272.52C715.151 272.516 715.332 272.496 715.51 272.46C713.44 269.35 714.84 264 719.7 264Z" fill="black"/>
<path opacity="0.2" d="M737 264.09C737.318 264.09 737.636 264.117 737.95 264.17V263.6C737.95 263.207 737.794 262.831 737.517 262.553C737.239 262.276 736.863 262.12 736.47 262.12H729C728.607 262.12 728.231 262.276 727.953 262.553C727.676 262.831 727.52 263.207 727.52 263.6V265.5C727.52 268.55 730.03 272.5 732.71 272.5C730.73 269.39 732.14 264.09 737 264.09Z" fill="black"/>
<path opacity="0.2" d="M754.88 263.45C755.147 263.451 755.415 263.468 755.68 263.5C755.652 263.126 755.485 262.776 755.21 262.52C754.936 262.264 754.575 262.121 754.2 262.12H746.79C746.398 262.123 746.023 262.279 745.746 262.556C745.469 262.833 745.313 263.208 745.31 263.6V265.5C745.31 268.55 747.83 272.5 750.5 272.5C750.692 272.496 750.883 272.473 751.07 272.43C748.47 269.46 749.74 263.45 754.88 263.45Z" fill="black"/>
<path opacity="0.2" d="M772.78 264.21C773.01 264.21 773.24 264.21 773.45 264.21V263.56C773.448 263.168 773.291 262.793 773.014 262.516C772.737 262.239 772.362 262.083 771.97 262.08H764.56C764.167 262.08 763.789 262.236 763.51 262.513C763.231 262.79 763.073 263.167 763.07 263.56V265.46C763.07 268.51 765.59 272.46 768.26 272.46H768.46C766.59 269.36 768 264.21 772.78 264.21Z" fill="black"/>
<path opacity="0.2" d="M791.21 263.6C791.21 263.207 791.054 262.831 790.776 262.553C790.499 262.276 790.122 262.12 789.73 262.12H782.32C782.125 262.12 781.933 262.158 781.753 262.233C781.574 262.307 781.411 262.416 781.273 262.553C781.136 262.691 781.027 262.854 780.953 263.034C780.878 263.213 780.84 263.406 780.84 263.6V265.5C780.84 268.55 783.35 272.5 786.02 272.5C786.553 272.487 787.075 272.343 787.54 272.08C785.52 269.1 786.74 264 791.21 263.6Z" fill="black"/>
<path opacity="0.2" d="M809 264V263.62C809 263.227 808.844 262.851 808.566 262.573C808.289 262.296 807.912 262.14 807.52 262.14H800.11C799.717 262.14 799.341 262.296 799.063 262.573C798.786 262.851 798.63 263.227 798.63 263.62V265.52C798.63 268.57 801.14 272.52 803.82 272.52C804.249 272.513 804.672 272.414 805.06 272.23C803.23 269.18 804.54 264.25 809 264Z" fill="black"/>
<path opacity="0.2" d="M826.12 263.7C826.33 263.7 826.54 263.7 826.74 263.7V263.57C826.737 263.177 826.579 262.8 826.3 262.523C826.021 262.246 825.643 262.09 825.25 262.09H817.84C817.448 262.093 817.073 262.249 816.796 262.526C816.519 262.803 816.362 263.178 816.36 263.57V265.47C816.36 268.52 818.88 272.47 821.55 272.47C821.739 272.467 821.926 272.444 822.11 272.4C819.79 269.39 821.12 263.7 826.12 263.7Z" fill="black"/>
<path opacity="0.2" d="M844.5 264.35V263.6C844.498 263.208 844.341 262.833 844.064 262.556C843.787 262.279 843.412 262.123 843.02 262.12H835.61C835.217 262.12 834.839 262.276 834.56 262.553C834.281 262.83 834.123 263.207 834.12 263.6V265.5C834.12 268.55 836.64 272.5 839.31 272.5C839.613 272.495 839.913 272.445 840.2 272.35C838.57 269.25 840 264.47 844.5 264.35Z" fill="black"/>
<path opacity="0.2" d="M861.42 263.83C861.701 263.834 861.982 263.854 862.26 263.89V263.6C862.26 263.207 862.104 262.831 861.827 262.553C861.549 262.276 861.173 262.12 860.78 262.12H853.37C853.176 262.12 852.983 262.158 852.804 262.233C852.624 262.307 852.461 262.416 852.324 262.553C852.186 262.691 852.077 262.854 852.003 263.034C851.928 263.213 851.89 263.406 851.89 263.6V265.5C851.89 268.55 854.4 272.5 857.07 272.5C857.163 272.505 857.257 272.505 857.35 272.5C855.11 269.41 856.47 263.83 861.42 263.83Z" fill="black"/>
<path opacity="0.2" d="M879.33 264.6C879.56 264.584 879.79 264.584 880.02 264.6V263.6C880.02 263.207 879.864 262.831 879.586 262.553C879.309 262.276 878.932 262.12 878.54 262.12H871.13C870.737 262.12 870.361 262.276 870.083 262.553C869.806 262.831 869.65 263.207 869.65 263.6V265.5C869.65 268.5 872.14 272.5 874.81 272.5C873.25 269.35 874.76 264.6 879.33 264.6Z" fill="black"/>
<path opacity="0.2" d="M837.37 310.36V300.5C837.37 299.832 836.828 299.29 836.16 299.29H700.36C699.692 299.29 699.15 299.832 699.15 300.5V310.36C699.15 311.028 699.692 311.57 700.36 311.57H836.16C836.828 311.57 837.37 311.028 837.37 310.36Z" fill="black"/>
<path opacity="0.2" d="M855.75 302.71V301.71C855.75 301.516 855.712 301.323 855.637 301.144C855.563 300.964 855.454 300.801 855.316 300.663C855.179 300.526 855.016 300.417 854.836 300.343C854.657 300.268 854.464 300.23 854.27 300.23H846.86C846.666 300.23 846.473 300.268 846.294 300.343C846.114 300.417 845.951 300.526 845.813 300.663C845.676 300.801 845.567 300.964 845.493 301.144C845.418 301.323 845.38 301.516 845.38 301.71V303.61C845.38 306.66 847.89 310.61 850.57 310.61C850.793 310.605 851.014 310.574 851.23 310.52C849.75 307.4 851.26 302.74 855.75 302.71Z" fill="black"/>
<path opacity="0.2" d="M690.28 302.07C690.571 302.072 690.862 302.096 691.15 302.14V301.72C691.147 301.327 690.989 300.95 690.71 300.673C690.431 300.396 690.053 300.24 689.66 300.24H682.25C681.858 300.243 681.483 300.399 681.206 300.676C680.929 300.953 680.773 301.328 680.77 301.72V303.62C680.77 306.67 683.29 310.62 685.96 310.62H686.13C684 307.52 685.4 302.07 690.28 302.07Z" fill="black"/>
<path opacity="0.2" d="M645.7 93.5H890.82C892.504 93.5 894.119 94.169 895.31 95.3599C896.501 96.5507 897.17 98.1659 897.17 99.85V155.85H639.35V99.85C639.35 98.1659 640.019 96.5507 641.21 95.3599C642.401 94.169 644.016 93.5 645.7 93.5V93.5Z" fill="black"/>
<path d="M870.78 104.06H665.78C664.071 89.8634 661.058 75.8543 656.78 62.21H879.82C875.475 75.8387 872.448 89.8529 870.78 104.06V104.06Z" fill="white"/>
<path opacity="0.2" d="M872.8 90.57C871.31 98.71 870.8 104.06 870.8 104.06H665.8C665.8 104.06 665.28 98.81 663.75 90.57H872.8Z" fill="black"/>
<path d="M870.78 104.06H665.78C664.071 89.8634 661.058 75.8543 656.78 62.21H879.82C875.475 75.8387 872.448 89.8529 870.78 104.06V104.06Z" stroke="#263238" stroke-linecap="round" stroke-linejoin="round"/>
<path d="M867.99 139.3H666.88V222.04H867.99V139.3Z" fill="#263238"/>
<g opacity="0.4">
<path opacity="0.4" d="M762.42 214.72L763.48 214.77C764.813 194.137 766.147 173.47 767.48 152.77C765.78 173.477 764.093 194.127 762.42 214.72Z" fill="white"/>
<path opacity="0.4" d="M759 214.46L760.06 214.55C762.373 194.05 764.683 173.46 766.99 152.78C764.33 173.473 761.667 194.033 759 214.46Z" fill="white"/>
<path opacity="0.4" d="M755.67 214.08C756.02 214.08 756.38 214.16 756.73 214.2C760.01 193.92 763.31 173.443 766.63 152.77C762.963 173.463 759.31 193.9 755.67 214.08Z" fill="white"/>
<path opacity="0.4" d="M752.3 213.57L753.37 213.74C757.623 193.74 761.91 173.407 766.23 152.74C761.563 173.427 756.92 193.703 752.3 213.57Z" fill="white"/>
<path opacity="0.4" d="M748.94 212.94L750.02 213.16C755.22 193.54 760.49 173.407 765.83 152.76C760.15 173.413 754.52 193.473 748.94 212.94Z" fill="white"/>
<path opacity="0.4" d="M745.6 212.18L746.68 212.45C752.81 193.27 759.11 173.38 765.43 152.75C758.74 173.38 752.07 193.18 745.6 212.18Z" fill="white"/>
<path opacity="0.4" d="M742.27 211.28L743.36 211.6C750.36 192.96 757.69 173.34 765.03 152.73C757.32 173.34 749.64 192.85 742.27 211.28Z" fill="white"/>
<path opacity="0.4" d="M739 210.26L740.09 210.61C748 192.61 756.3 173.3 764.66 152.72C755.89 173.3 747.21 192.47 739 210.26Z" fill="white"/>
<path opacity="0.4" d="M735.68 209.09L736.78 209.49C745.54 192.17 754.85 173.25 764.23 152.7C754.46 173.25 744.76 192 735.68 209.09Z" fill="white"/>
<path opacity="0.4" d="M732.44 207.77L733.54 208.23C743.1 191.69 753.42 173.23 763.83 152.68C753 173.19 742.31 191.55 732.44 207.77Z" fill="white"/>
<path opacity="0.4" d="M729.23 206.29L730.33 206.82C740.65 191.17 751.98 173.12 763.43 152.66C751.57 173.12 739.85 191 729.23 206.29Z" fill="white"/>
<path opacity="0.4" d="M726.07 204.65L727.17 205.25C738.17 190.58 750.54 173.04 763.03 152.63C751.638 170.611 739.301 187.976 726.07 204.65V204.65Z" fill="white"/>
<path opacity="0.4" d="M723 202.85C723.36 203.08 723.74 203.29 724.11 203.51C737.989 187.345 750.866 170.347 762.67 152.61C750.59 170.228 737.337 187.013 723 202.85Z" fill="white"/>
<path opacity="0.4" d="M719.93 200.86L721.02 201.61C735.995 186.36 749.773 169.978 762.23 152.61C749.514 169.856 735.364 185.997 719.93 200.86V200.86Z" fill="white"/>
<path opacity="0.4" d="M761.83 152.55C745.74 172.7 730 188.07 717 198.69L718.07 199.52C734.119 185.293 748.773 169.565 761.83 152.55V152.55Z" fill="white"/>
<path opacity="0.4" d="M761.43 152.52C744.29 172.52 727.54 187.14 714.15 196.34L715.21 197.25C728.42 187.47 744.74 172.57 761.43 152.52Z" fill="white"/>
<path opacity="0.4" d="M761 152.49C742.83 172.34 725.13 186.1 711.44 193.78C711.77 194.12 712.1 194.46 712.44 194.78C726 186.48 743.31 172.39 761 152.49Z" fill="white"/>
<path opacity="0.4" d="M760.63 152.45C741.47 172.1 722.85 184.95 708.94 191.05L709.94 192.14C723.71 185.37 741.91 172.16 760.63 152.45Z" fill="white"/>
<path opacity="0.4" d="M706.64 188.13C706.93 188.53 707.23 188.93 707.53 189.32C721.48 184.17 740.53 171.88 760.24 152.42C740.13 171.79 720.67 183.68 706.64 188.13Z" fill="white"/>
<path opacity="0.4" d="M704.6 185.09C704.86 185.51 705.13 185.93 705.4 186.35C719.4 182.83 739.28 171.52 759.84 152.35C738.88 171.41 718.65 182.3 704.6 185.09Z" fill="white"/>
<path opacity="0.4" d="M702.86 182C703.08 182.44 703.31 182.87 703.54 183.31C717.54 181.41 738.1 171.1 759.44 152.36C737.75 170.92 716.86 180.8 702.86 182Z" fill="white"/>
<path opacity="0.4" d="M701.44 178.84C701.62 179.28 701.81 179.73 702 180.17C715.92 179.83 737 170.54 759 152.29C736.75 170.35 715.34 179.19 701.44 178.84Z" fill="white"/>
<path opacity="0.4" d="M765.81 214.86H766.86C767.18 194.193 767.513 173.5 767.86 152.78C767.16 173.487 766.477 194.18 765.81 214.86Z" fill="white"/>
<path opacity="0.4" d="M769.19 214.88H770.25C769.583 194.213 768.917 173.52 768.25 152.8L769.19 214.88Z" fill="white"/>
<path opacity="0.4" d="M772.57 214.79H773.63C771.963 194.19 770.297 173.523 768.63 152.79C769.943 173.497 771.257 194.163 772.57 214.79Z" fill="white"/>
<path opacity="0.4" d="M776 214.58L777.06 214.5C774.393 194.053 771.727 173.48 769.06 152.78C771.353 173.48 773.667 194.08 776 214.58Z" fill="white"/>
<path opacity="0.4" d="M779.33 214.26L780.39 214.13C776.763 193.923 773.097 173.47 769.39 152.77C772.73 173.47 776.043 193.967 779.33 214.26Z" fill="white"/>
<path opacity="0.4" d="M782.7 213.81L783.77 213.65C779.17 193.75 774.52 173.457 769.82 152.77C774.14 173.463 778.433 193.81 782.7 213.81Z" fill="white"/>
<path opacity="0.4" d="M786.06 213.24L787.13 213.04C781.576 193.533 775.94 173.44 770.22 152.76C775.54 173.44 780.82 193.6 786.06 213.24Z" fill="white"/>
<path opacity="0.4" d="M789.4 212.54L790.49 212.29C784.01 193.29 777.33 173.42 770.62 152.75C776.96 173.423 783.22 193.353 789.4 212.54Z" fill="white"/>
<path opacity="0.4" d="M792.74 211.72L793.82 211.41C786.44 192.94 778.75 173.41 771.02 152.73C778.37 173.39 785.69 193 792.74 211.72Z" fill="white"/>
<path opacity="0.4" d="M796.05 210.75L797.15 210.39C788.88 192.57 780.15 173.39 771.42 152.72C779.8 173.35 788.12 192.68 796.05 210.75Z" fill="white"/>
<path opacity="0.4" d="M799.34 209.64L800.44 209.23C791.34 192.14 781.62 173.31 771.82 152.7C781.23 173.31 790.56 192.27 799.34 209.64Z" fill="white"/>
<path opacity="0.4" d="M802.6 208.39C802.97 208.23 803.35 208.09 803.71 207.93C793.81 191.67 783.07 173.26 772.22 152.68C782.67 173.26 793 191.81 802.6 208.39Z" fill="white"/>
<path opacity="0.4" d="M805.83 207L806.94 206.47C796.29 191.14 784.52 173.21 772.62 152.67C784.11 173.19 795.47 191.3 805.83 207Z" fill="white"/>
<path opacity="0.4" d="M809 205.43C809.37 205.24 809.74 205.03 810.1 204.83C796.82 188.098 784.436 170.673 773 152.63C785.56 173.13 798 190.72 809 205.43Z" fill="white"/>
<path opacity="0.4" d="M812.14 203.7L813.26 203.04C798.861 187.145 785.551 170.297 773.42 152.61C785.269 170.417 798.2 187.479 812.14 203.7V203.7Z" fill="white"/>
<path opacity="0.4" d="M773.82 152.58C786.326 170.03 800.164 186.485 815.21 201.8L816.32 201.05C800.808 186.124 786.591 169.909 773.82 152.58V152.58Z" fill="white"/>
<path opacity="0.4" d="M774.22 152.55C787.338 169.646 802.073 185.439 818.22 199.71C818.59 199.44 818.94 199.16 819.3 198.88C806.26 188.26 790.4 172.82 774.22 152.55Z" fill="white"/>
<path opacity="0.4" d="M774.62 152.52C791.42 172.69 807.84 187.65 821.09 197.43C821.45 197.13 821.82 196.83 822.17 196.52C808.73 187.34 791.87 172.68 774.62 152.52Z" fill="white"/>
<path opacity="0.4" d="M775 152.49C792.85 172.49 810.25 186.68 823.85 194.97C824.2 194.64 824.53 194.29 824.85 193.97C811.15 186.3 793.32 172.49 775 152.49Z" fill="white"/>
<path opacity="0.4" d="M775.42 152.45C794.29 172.31 812.63 185.58 826.42 192.3L827.42 191.2C813.51 185.17 794.74 172.27 775.42 152.45Z" fill="white"/>
<path opacity="0.4" d="M828.89 189.46C829.2 189.06 829.49 188.66 829.79 188.25C815.74 183.9 796.1 171.97 775.79 152.42C795.67 172.05 814.91 184.38 828.89 189.46Z" fill="white"/>
<path opacity="0.4" d="M831.06 186.45L831.88 185.17C817.81 182.52 797.39 171.6 776.21 152.38C797 171.71 817 183.05 831.06 186.45Z" fill="white"/>
<path opacity="0.4" d="M833 183.34C833.24 182.9 833.47 182.46 833.7 182.01C819.7 181.01 798.59 171.12 776.7 152.34C798.18 171.28 819 181.61 833 183.34Z" fill="white"/>
<path opacity="0.4" d="M777 152.29C799.24 170.75 820.6 180.04 834.5 180.18C834.7 179.73 834.89 179.28 835.08 178.83C821.2 179.4 799.56 170.55 777 152.29Z" fill="white"/>
</g>
<path opacity="0.2" d="M739 154.27C735.21 163.99 739.31 192.27 766.66 192.27C794.01 192.27 803.94 172.4 802.83 160.12L839.34 154.24C839.34 154.24 850.53 185.16 826.77 206.79C803.01 228.42 720.65 227.02 703.24 210.58C685.83 194.14 695.49 161.66 695.49 161.66L739 154.27Z" fill="black"/>
<path d="M899.24 112.33V105.51C899.24 105.258 899.32 105.012 899.469 104.808C899.619 104.605 899.829 104.455 900.07 104.38L905.07 102.82V96C905.07 95.1831 905.395 94.3997 905.972 93.8221C906.55 93.2445 907.333 92.92 908.15 92.92H914.15C914.446 92.9144 914.732 93.0239 914.949 93.2254C915.165 93.4269 915.295 93.7047 915.31 94V96.2C915.31 96.5006 915.192 96.7891 914.98 97.0026C914.768 97.2161 914.481 97.3373 914.18 97.34H906.55V104.01C906.547 104.211 906.493 104.408 906.393 104.583C906.293 104.758 906.151 104.904 905.98 105.01L901.72 107.59V112.34L899.24 112.33Z" fill="#999999" stroke="#263238" stroke-linecap="round" stroke-linejoin="round"/>
<path d="M905.82 112.33H899.24V132.01H905.82V112.33Z" fill="#263238"/>
<path d="M914.05 110.66H905.82V133.68H914.05V110.66Z" fill="#757575"/>
<path opacity="0.2" d="M914.03 124.68H905.82V133.68H914.03V124.68Z" fill="black"/>
<path d="M914.05 110.66H905.82V133.68H914.05V110.66Z" stroke="#263238" stroke-linecap="round" stroke-linejoin="round"/>
<path d="M630.7 132H637.28V112.32H630.7V132Z" fill="#263238"/>
<path d="M622.47 133.67H630.7V110.65H622.47V133.67Z" fill="#757575"/>
<path opacity="0.2" d="M630.71 124.68H622.48V133.46H630.71V124.68Z" fill="black"/>
<path d="M622.47 133.67H630.7V110.65H622.47V133.67Z" stroke="#263238" stroke-linecap="round" stroke-linejoin="round"/>
<path d="M636.29 123.34C636.884 121.781 636.976 120.075 636.553 118.462C636.13 116.848 635.213 115.407 633.93 114.34L629.09 110.34C628.782 110.08 628.424 109.887 628.038 109.772C627.652 109.657 627.247 109.623 626.847 109.672C626.447 109.721 626.062 109.851 625.715 110.056C625.368 110.26 625.067 110.534 624.83 110.86L605.64 137.33C605.275 137.825 605.079 138.425 605.08 139.04V167.47C605.08 167.852 605.156 168.229 605.303 168.581C605.45 168.933 605.666 169.253 605.938 169.521C606.209 169.789 606.532 170 606.886 170.142C607.24 170.285 607.619 170.355 608 170.35V170.35C608.764 170.35 609.496 170.047 610.037 169.506C610.577 168.966 610.88 168.234 610.88 167.47V144.38C610.882 143.81 611.06 143.255 611.39 142.79L625.74 122.79C625.866 122.614 626.026 122.467 626.212 122.357C626.398 122.246 626.604 122.176 626.819 122.149C627.033 122.123 627.25 122.142 627.457 122.204C627.664 122.266 627.856 122.37 628.02 122.51L630.66 124.75C631.314 125.305 632.143 125.609 633 125.61V125.61C633.713 125.606 634.408 125.387 634.995 124.982C635.582 124.577 636.033 124.005 636.29 123.34V123.34Z" fill="#C53F3F" stroke="#263238" stroke-linecap="round" stroke-linejoin="round"/>
<path d="M632.33 120.75C633.087 120.75 633.7 120.137 633.7 119.38C633.7 118.623 633.087 118.01 632.33 118.01C631.573 118.01 630.96 118.623 630.96 119.38C630.96 120.137 631.573 120.75 632.33 120.75Z" fill="#999999" stroke="#263238" stroke-linecap="round" stroke-linejoin="round"/>
<path d="M893.14 102.82H643.39V141.5H893.14V102.82Z" fill="#263238"/>
<path opacity="0.2" d="M889.53 105.73H646.9C646.138 105.73 645.52 106.348 645.52 107.11V113.37C645.52 114.132 646.138 114.75 646.9 114.75H889.53C890.292 114.75 890.91 114.132 890.91 113.37V107.11C890.91 106.348 890.292 105.73 889.53 105.73Z" fill="white"/>
<path d="M870.78 149.28H665.78C660.003 136.075 656.942 121.842 656.78 107.43H879.82C879.82 126.81 870.78 149.28 870.78 149.28Z" fill="white"/>
<g opacity="0.7">
<path opacity="0.7" d="M682.36 146.14C682.36 146.14 686.85 145.9 689.36 144.39C691.87 142.88 691.69 145.75 693.13 145.94C694.57 146.13 697.97 144.94 699.77 144.94C701.57 144.94 700.2 146.04 702.23 145.94C704.26 145.84 703.17 146.04 704.23 145.84L712.92 144.39C712.92 144.39 717.33 143.54 718.22 143.97C719.11 144.4 720.28 146.52 721.58 145.97C722.88 145.42 722.19 144.97 724.15 144.97C725.362 144.976 726.567 145.151 727.73 145.49C727.73 145.49 727.91 144.98 728.81 144.97H730.42C730.42 144.97 733.83 145.87 734.37 145.87C734.91 145.87 738.94 144.98 739.08 144.97C739.22 144.96 743.08 143.97 743.08 143.97C743.899 144.826 744.936 145.442 746.08 145.75C747.54 145.94 749.08 145.55 750.18 146.04C751.28 146.53 754.9 145.84 754.9 145.84C755.764 145.846 756.626 145.912 757.48 146.04C758.6 146.296 759.767 146.261 760.87 145.94C762.898 145.404 765.026 145.37 767.07 145.84C770.32 146.43 773.31 144.95 774.69 144.94C776.07 144.93 781.59 145.55 783.49 145.55C785.39 145.55 790.42 146.23 793.92 145.84C797.42 145.45 799.71 146.33 802.06 146.33C804.41 146.33 806.92 146.23 807.46 146.23C808 146.23 810.6 144.53 814.32 144.94C818.04 145.35 814.73 144.43 817.02 144.94C819.31 145.45 821.12 145.94 822.09 146.04C822.868 146.085 823.649 146.052 824.42 145.94L828.42 145.65H848.36" stroke="#263238" stroke-linecap="round" stroke-linejoin="round"/>
<path opacity="0.7" d="M678.21 138.42C678.21 138.42 690.56 138.42 692.79 138.22C695.02 138.02 696.21 136.88 697.4 136.88C698.59 136.88 704.6 138.02 704.6 138.02C704.775 137.647 705.062 137.337 705.419 137.133C705.777 136.929 706.19 136.841 706.6 136.88C708.23 136.88 707.4 137.03 708.9 137.63C710.4 138.23 709.62 137.63 710.41 138.22C711.588 138.749 712.833 139.112 714.11 139.3C714.11 139.3 719.68 139.56 719.89 138.22C720.1 136.88 722.89 139.3 722.89 139.3C722.89 139.3 730.45 138.22 733.37 138.22C736.29 138.22 743.61 137.63 743.61 137.63C743.61 137.63 749.61 138.42 749.89 138.42C750.17 138.42 751.16 139.99 752.23 139.3C753.3 138.61 754.33 137.82 755.6 138.02C756.779 138.313 757.92 138.742 759 139.3L761.79 137.82L764.99 138.02C764.99 138.02 768.25 140.19 770.58 139.3C772.354 138.591 774.087 137.783 775.77 136.88L778.64 139.3H780.52L786.09 138.22C786.519 138.747 787.097 139.132 787.748 139.325C788.399 139.517 789.094 139.509 789.74 139.3C792.1 138.62 814.65 139.3 820.39 139.3C826.13 139.3 827.39 137.82 827.39 137.82L831.81 139.3H853.81" stroke="#263238" stroke-linecap="round" stroke-linejoin="round"/>
</g>
<path opacity="0.2" d="M872.87 143.5C871.66 147.1 870.78 149.28 870.78 149.28H665.78C665.78 149.28 664.78 147.18 663.41 143.5H872.87Z" fill="black"/>
<path opacity="0.2" d="M877.14 128.36C876.45 131.36 875.69 134.29 874.94 136.88H661.18C660.44 134.34 659.68 131.47 659.02 128.36H877.14Z" fill="black"/>
<path d="M870.78 149.28H665.78C660.003 136.075 656.942 121.842 656.78 107.43H879.82C879.82 126.81 870.78 149.28 870.78 149.28Z" stroke="#263238" stroke-linecap="round" stroke-linejoin="round"/>
<path d="M643.34 100.83H637.23V143.51H643.34V100.83Z" fill="#757575"/>
<path opacity="0.2" d="M643.22 130.85H637.27V143.51H643.22V130.85Z" fill="black"/>
<path d="M643.34 100.83H637.23V143.51H643.34V100.83Z" stroke="#263238" stroke-linecap="round" stroke-linejoin="round"/>
<path d="M899.29 100.83H893.18V143.51H899.29V100.83Z" fill="#757575"/>
<path opacity="0.2" d="M899.29 130.85H893.13V143.51H899.29V130.85Z" fill="black"/>
<path d="M899.29 100.83H893.18V143.51H899.29V100.83Z" stroke="#263238" stroke-linecap="round" stroke-linejoin="round"/>
<path d="M893.23 99.04V130.17H643.29V99.04H640.89V132.26H895.63V99.04H893.23Z" fill="#999999" stroke="#263238" stroke-linecap="round" stroke-linejoin="round"/>
<path d="M908 151.48V221.29C908 222.468 907.532 223.597 906.7 224.43C905.867 225.262 904.738 225.73 903.56 225.73H632.93C631.753 225.73 630.623 225.262 629.791 224.43C628.958 223.597 628.49 222.468 628.49 221.29V151.48C628.49 150.302 628.958 149.173 629.791 148.34C630.623 147.508 631.753 147.04 632.93 147.04H757.63V151.48C757.63 151.48 736.34 169.95 699.63 176.76C704.89 200.57 733.63 218.76 768.31 218.76C802.99 218.76 831.73 200.55 837 176.76C800.24 169.95 778.95 151.48 778.95 151.48V147H903.59C904.174 147.004 904.752 147.123 905.289 147.35C905.827 147.578 906.315 147.909 906.725 148.325C907.134 148.741 907.458 149.234 907.677 149.776C907.896 150.317 908.006 150.896 908 151.48Z" fill="#C53F3F" stroke="#263238" stroke-linecap="round" stroke-linejoin="round"/>
<path d="M908 151.48V221.29C908 221.874 907.885 222.452 907.661 222.991C907.437 223.531 907.109 224.021 906.696 224.433C906.283 224.846 905.792 225.172 905.252 225.395C904.712 225.617 904.134 225.731 903.55 225.73H632.93C632.346 225.731 631.768 225.617 631.228 225.395C630.688 225.172 630.197 224.846 629.784 224.433C629.371 224.021 629.043 223.531 628.819 222.991C628.595 222.452 628.48 221.874 628.48 221.29V151.48C628.483 150.301 628.952 149.17 629.786 148.336C630.62 147.502 631.751 147.033 632.93 147.03H757.63V151.48C757.63 151.48 736.33 169.94 699.63 176.76C704.89 200.57 733.63 218.76 768.32 218.76C803.01 218.76 831.73 200.55 837 176.76C800.24 169.94 778.95 151.48 778.95 151.48V147H903.59C904.768 147.011 905.895 147.488 906.721 148.328C907.548 149.168 908.008 150.301 908 151.48V151.48Z" fill="#C53F3F"/>
<path opacity="0.2" d="M902 152.55V217C902 217.428 901.915 217.853 901.751 218.248C901.586 218.644 901.345 219.003 901.041 219.305C900.737 219.607 900.376 219.846 899.98 220.008C899.583 220.171 899.158 220.253 898.73 220.25H635.59C635.163 220.251 634.739 220.168 634.345 220.005C633.95 219.842 633.591 219.603 633.289 219.301C632.987 218.999 632.747 218.64 632.585 218.245C632.422 217.85 632.339 217.427 632.34 217V152.55C632.339 152.122 632.422 151.698 632.584 151.302C632.747 150.906 632.986 150.546 633.288 150.242C633.589 149.938 633.948 149.697 634.343 149.532C634.738 149.367 635.162 149.281 635.59 149.28H757.59V151.48C757.59 151.48 736.29 169.94 699.59 176.76C704.85 200.57 733.59 218.76 768.28 218.76C802.97 218.76 831.69 200.55 836.96 176.76C800.2 169.94 778.91 151.48 778.91 151.48V149.28H898.76C899.622 149.288 900.446 149.636 901.053 150.248C901.66 150.861 902 151.688 902 152.55V152.55Z" fill="white"/>
<path d="M908 151.48V221.29C908 221.874 907.885 222.452 907.661 222.991C907.437 223.531 907.109 224.021 906.696 224.433C906.283 224.846 905.792 225.172 905.252 225.395C904.712 225.617 904.134 225.731 903.55 225.73H632.93C632.346 225.731 631.768 225.617 631.228 225.395C630.688 225.172 630.197 224.846 629.784 224.433C629.371 224.021 629.043 223.531 628.819 222.991C628.595 222.452 628.48 221.874 628.48 221.29V151.48C628.483 150.301 628.952 149.17 629.786 148.336C630.62 147.502 631.751 147.033 632.93 147.03H757.63V151.48C757.63 151.48 736.33 169.94 699.63 176.76C704.89 200.57 733.63 218.76 768.32 218.76C803.01 218.76 831.73 200.55 837 176.76C800.24 169.94 778.95 151.48 778.95 151.48V147H903.59C904.768 147.011 905.895 147.488 906.721 148.328C907.548 149.168 908.008 150.301 908 151.48V151.48Z" stroke="#263238" stroke-linecap="round" stroke-linejoin="round"/>
<path opacity="0.2" d="M818.6 246.42L831.89 283.49C831.89 283.49 837.64 242.69 841.07 242.69C844.5 242.69 851.89 265 851.89 265C851.89 265 856.45 253.36 860.77 252.94C865.09 252.52 869 281.52 869 281.52L869.67 345.89L864.22 443.24C864.22 443.24 829.45 404.94 819.31 395.07C809.17 385.2 799.48 363.48 796.68 359.07C793.88 354.66 793.17 331.57 793.17 331.57C796.715 327.034 798.568 321.405 798.41 315.65C798.41 315.65 806.57 301.99 806.07 291.91C805.57 281.83 804.31 242.66 818.6 246.42Z" fill="black" fill-opacity="0.7"/>
<path d="M923.21 426L870.57 453.69C870.57 453.41 863.65 442.2 855.29 429.52C851.51 423.78 847.43 417.75 843.56 412.29C837.22 403.36 829.16 395.65 828.47 393.97C826.47 388.97 811.05 370.25 807.6 362.97C804.15 355.69 803.36 333.04 801.84 327.71C800.32 322.38 804.68 317.29 808.18 314.81C811.68 312.33 815.35 305.81 815.35 305.81C815.35 305.81 811.48 290.73 811.44 283.06C811.4 275.39 808.79 248.62 811.91 246.12C815.03 243.62 817.82 244.67 818.6 246.39C821.16 252.06 823.46 266.32 825.43 272.89C827.4 279.46 831.1 298.52 832.92 299.89C834.74 301.26 837.98 296.12 837.98 296.12C837.98 296.12 838.29 280.12 838.98 273.49L837.98 252.49C837.98 252.49 836.11 239.87 840.46 238.67C846.46 237.02 848.65 240.79 849.33 242.38C850.01 243.97 852.81 253.13 852.81 253.13L852.97 253.76C852.97 253.82 852.97 253.88 852.97 253.95V254.06C853.017 254.233 853.067 254.423 853.12 254.63C853.23 255.05 853.36 255.55 853.5 256.12C854.83 261.33 857.39 271.76 857.28 274.33C857.13 277.8 855.92 297.02 857.63 301.01L860.29 274.46C860.29 274.46 856 254 857.25 251.05C858.5 248.1 864.39 251.36 865.09 252.52C865.79 253.68 871.51 260.7 872.53 263.38L873.53 266.06C873.53 266.06 874.94 259.72 878.25 261.37C881.56 263.02 881.97 271.08 882.2 274.6C882.43 278.12 884.83 300.76 885.2 300.8C885.57 300.84 889.39 312.6 888.87 320.37C887.78 337 890.66 349.37 890.76 355.75C890.86 362.13 886.05 376.91 886.05 376.91C886.22 377.2 889.36 382.54 890.22 387.23C890.85 390.67 902.06 403.1 911.22 412.99C917.59 419.81 922.93 425.39 923.21 426Z" fill="white"/>
<path opacity="0.4" d="M855.3 429.54C851.52 423.8 847.44 417.77 843.57 412.31C837.23 403.38 829.17 395.67 828.48 393.99C826.48 388.99 811.06 370.27 807.61 362.99C804.16 355.71 803.37 333.06 801.85 327.73C800.33 322.4 804.69 317.31 808.19 314.83C811.69 312.35 815.36 305.83 815.36 305.83C815.36 305.83 811.49 290.75 811.45 283.08C811.41 275.41 808.8 248.64 811.92 246.14C815.04 243.64 817.83 244.69 818.61 246.41C821.17 252.08 823.47 266.34 825.44 272.91C827.41 279.48 831.11 298.54 832.93 299.91C834.75 301.28 837.99 296.14 837.99 296.14C837.99 296.14 838.3 280.14 838.99 273.51L837.99 252.51C837.99 252.51 836.12 239.89 840.47 238.69C846.47 237.04 848.66 240.81 849.34 242.4C850.02 243.99 852.82 253.15 852.82 253.15L852.98 253.78C852.98 253.84 852.98 253.9 852.98 253.97V254.08C853.02 254.253 853.07 254.443 853.13 254.65C853.24 255.07 853.37 255.57 853.51 256.14C851.96 253.69 849.83 251.6 846.98 251.05C838.98 249.49 840.71 258.39 841.47 263.73C841.901 267.273 841.816 270.861 841.22 274.38L843.22 273.23C841.78 275.8 839.72 297.16 839.72 301.91C839.72 306.66 835.96 308.24 832.59 306.85C829.22 305.46 828.02 283.66 825.46 279.75C822.9 275.84 815.78 283.31 815.46 290.14C815.14 296.97 821.51 317.34 820 322.14C818.49 326.94 818.51 345.14 818.51 345.14L816.67 340.45C816.79 341.09 816.67 343.24 812.82 349.57C811.374 351.861 810.438 354.437 810.078 357.122C809.717 359.807 809.939 362.539 810.73 365.13C813.08 370.32 825 384 827 385.41C827 385.41 828.45 379.47 833 381.05C831.451 383.513 830.322 386.217 829.66 389.05C828.72 393.41 838.21 396.2 841.18 400.35C843 402.88 844.22 410.59 855.3 429.54Z" fill="#C53F3F"/>
<path opacity="0.4" d="M911.28 413C901.92 403.57 885.45 394.59 886.45 392.24C887.79 389.08 886.09 382.35 883.21 376.89C880.33 371.43 884.21 362.57 884.21 362.57L885.99 367.72C887.414 361.78 887.581 355.608 886.48 349.6C884.66 339.39 883.24 342.98 883.24 342.98C883.24 342.98 883.61 333.78 885.24 328.76C886.87 323.74 888.24 311.55 885.99 304.34C883.74 297.13 878.99 298.49 877.72 300.97C876.45 303.45 877.81 313.12 878.86 316.29C879.91 319.46 875.44 324.79 875.35 320.83C875.26 316.87 873.57 305.83 873.57 305.83L876.96 283.66L873.57 266.05C873.57 266.05 874.98 259.71 878.29 261.36C881.6 263.01 882.01 271.07 882.24 274.59C882.47 278.11 884.87 300.75 885.24 300.79C885.61 300.83 889.43 312.59 888.91 320.36C887.82 336.99 890.7 349.36 890.8 355.74C890.9 362.12 886.09 376.9 886.09 376.9C886.26 377.19 889.4 382.53 890.26 387.22C890.89 390.66 902.1 403.09 911.26 412.98L911.28 413Z" fill="#C53F3F"/>
<path opacity="0.4" d="M872.53 263.38C872.72 263.88 872.88 264.29 873 264.62C869.82 257.23 864.4 259.52 863.44 261.62C862.48 263.72 865.71 276.75 866.44 278.77C867.17 280.79 863.54 296.92 863.01 302.26C862.48 307.6 861.07 308.69 861.07 308.69C857.48 308.96 857.07 299.05 857.07 297.69C857.14 298.828 857.362 299.951 857.73 301.03L860.39 274.48C860.39 274.48 856 254 857.25 251.05C858.5 248.1 864.39 251.36 865.09 252.52C865.79 253.68 871.51 260.7 872.53 263.38Z" fill="#C53F3F"/>
<path d="M923.21 426C922.53 424.46 891.3 393 890.21 387.22C889.33 382.4 886.03 376.89 886.03 376.89C886.03 376.89 890.84 362.14 890.74 355.73C890.64 349.32 887.74 336.98 888.85 320.35C889.37 312.58 885.56 300.82 885.18 300.78C884.8 300.74 882.4 278.1 882.18 274.58C881.96 271.06 881.55 263 878.23 261.35C874.91 259.7 873.51 266.04 873.51 266.04L872.51 263.36C871.51 260.68 865.77 253.66 865.07 252.5C864.37 251.34 858.49 248.07 857.23 251.03C855.97 253.99 860.36 274.42 860.36 274.42L857.72 301C856.01 297 857.22 277.79 857.37 274.32C857.52 270.85 852.82 253.12 852.82 253.12C852.82 253.12 850 244 849.34 242.36C848.68 240.72 846.47 237 840.47 238.65C836.12 239.85 837.99 252.47 837.99 252.47L838.99 273.47C838.32 280.13 837.99 296.1 837.99 296.1C837.99 296.1 834.75 301.23 832.93 299.87C831.11 298.51 827.41 279.46 825.44 272.87C823.47 266.28 821.17 252.04 818.61 246.37C817.83 244.65 815.04 243.6 811.92 246.1C808.8 248.6 811.4 275.36 811.45 283.04C811.5 290.72 815.36 305.79 815.36 305.79C815.36 305.79 811.69 312.27 808.19 314.79C804.69 317.31 800.33 322.35 801.85 327.69C803.37 333.03 804.16 355.69 807.61 362.95C811.06 370.21 826.44 388.95 828.48 393.95C829.17 395.63 837.23 403.34 843.57 412.27C856.02 429.8 870.57 453.27 870.57 453.67" stroke="#263238" stroke-linecap="round" stroke-linejoin="round"/>
<path d="M815.35 305.84C815.35 305.84 817.83 318.13 817.74 320.19C817.74 320.19 815.57 329.68 815.55 335.83C814.031 338.147 812.668 340.562 811.47 343.06C810.63 345.28 809.13 350.74 809.75 353.78" stroke="#263238" stroke-linecap="round" stroke-linejoin="round"/>
<path d="M810.82 324C810.82 324 816.9 324.05 816.51 326.61" stroke="#263238" stroke-linecap="round" stroke-linejoin="round"/>
<path d="M815.55 335.83C815.55 335.83 811.65 334.14 810.28 336.41" stroke="#263238" stroke-linecap="round" stroke-linejoin="round"/>
<path d="M838 296.14C838 296.14 837.72 305.56 835.24 304.81" stroke="#263238" stroke-linecap="round" stroke-linejoin="round"/>
<path d="M857.72 301C857.72 301 857 306.15 858.94 307.74" stroke="#263238" stroke-linecap="round" stroke-linejoin="round"/>
<path d="M873.54 266.06C873.54 266.06 876.24 279.06 876.86 282.14C877.48 285.22 873.79 300.94 873.86 305.03C873.93 309.12 875.68 314.97 875.44 317.72" stroke="#263238" stroke-linecap="round" stroke-linejoin="round"/>
<path d="M884.32 364.79C884.32 364.79 883.45 373.28 886.06 376.91" stroke="#263238" stroke-linecap="round" stroke-linejoin="round"/>
<path d="M831.89 381.59C831.89 381.59 826.07 386.89 828.2 393.41" stroke="#263238" stroke-linecap="round" stroke-linejoin="round"/>
<path d="M870.14 315.51C870.23 319.25 868.04 323.61 867.81 328.78" stroke="#263238" stroke-linecap="round" stroke-linejoin="round"/>
<path d="M851.6 312.17C852.84 315.23 850.14 321.89 849.73 324.39C849.566 326.346 849.78 328.315 850.36 330.19" stroke="#263238" stroke-linecap="round" stroke-linejoin="round"/>
<path d="M886.45 322.71C885.95 325.96 883.65 328.28 883.21 338.28" stroke="#263238" stroke-linecap="round" stroke-linejoin="round"/>
<path d="M829.67 311.22C831.35 313.05 830.22 321.79 830.67 323.22" stroke="#263238" stroke-linecap="round" stroke-linejoin="round"/>
<path d="M861 260.87C861 260.87 866.72 256.68 871.64 261.62" stroke="#263238" stroke-linecap="round" stroke-linejoin="round"/>
<path d="M841.3 251.24C841.3 251.24 842.3 249.57 847.13 249.98C851.96 250.39 852.82 253.11 852.82 253.11" stroke="#263238" stroke-linecap="round" stroke-linejoin="round"/>
<path d="M827.19 279.79C827.19 279.79 825.57 277.4 821.3 278.19C817.03 278.98 815.13 285.02 815.13 285.02" fill="white"/>
<path d="M827.19 279.79C827.19 279.79 825.57 277.4 821.3 278.19C817.03 278.98 815.13 285.02 815.13 285.02" stroke="#263238" stroke-linecap="round" stroke-linejoin="round"/>
<path d="M885.21 300.8C885.21 300.8 881.65 295.64 877.37 297.85" stroke="#263238" stroke-linecap="round" stroke-linejoin="round"/>
<path opacity="0.2" d="M733.55 263C739.55 267.65 734.49 296.19 734.49 296.19L735.02 305.48L745.31 301L750 320.85C750 320.85 749.88 328.12 753.69 330.85C753.69 330.85 754.63 347.16 753.69 359.08C752.75 371 733.69 385.01 727.12 397.52C720.55 410.03 677.7 446.8 677.7 446.8L641.42 429.54L667.65 323.6L691.15 293.39L705.08 258.64C705.08 258.64 707.47 281.34 706.08 296.64L733.55 263Z" fill="black" fill-opacity="0.7"/>
<path d="M743.65 326.4C742.74 330.78 744.93 354.79 744.55 358.03C744.17 361.27 725.07 383.03 724.11 384.68C723.15 386.33 710.38 393.68 707.41 397.19C693.53 413.38 685.95 428.29 679.86 443.24C678.69 446.12 677.57 449.01 676.47 451.91L621.39 419.91C626.02 414.17 630.39 409.07 634.39 404.43C642.39 395.02 648.76 387.49 651.88 380.38C652.837 378.565 653.934 376.826 655.16 375.18C656.4 373.42 657.51 371.97 657.51 371.97C657.51 371.97 653.51 360.7 654.44 357.16C655.37 353.62 653.29 324.52 653.29 324.52C653.29 324.52 650.58 304.71 647.91 299.71C647.254 298.404 646.957 296.948 647.05 295.49C647.18 290.92 649.83 285.16 651.13 278.49C652.87 269.49 652.03 265.04 657.49 268.15C662.95 271.26 660.4 290.15 660.4 290.15L668.65 308.43C670.82 304.01 668.65 291.11 668.54 288.06C668.54 287.56 668.54 286.73 668.46 285.65C668.29 280.39 667.94 269.44 668.39 265.12C668.39 264.88 668.39 264.66 668.47 264.46C669.14 260 671.53 245.81 673.05 244.23C675.31 241.89 678.9 239.92 682.28 245.23C684.17 248.23 683.36 272.02 683.36 272.02C683.36 272.02 691.2 262.56 693.58 260.25C695.96 257.94 703.18 253.72 705.11 258.61C707.04 263.5 699.92 278.61 699.92 278.61C701.41 282.11 701.59 291.8 701.59 291.8C701.59 291.8 704.96 303.91 707.03 303.8H707.12C707.72 303.67 708.38 301.47 709.07 298.38C710.77 290.81 712.62 277.86 714.07 276.73L715.07 275.93C715.115 275.872 715.169 275.822 715.23 275.78L715.6 275.45C719.14 272.3 726.6 265.3 726.6 265.3C726.6 265.3 727.13 261.95 733.66 262.98C740.19 264.01 730.76 283.28 730.76 283.28C729.45 289.41 727.44 305.18 727.44 305.18C726.83 311.74 727.19 329.37 727.19 329.37C727.19 329.37 730.28 319.11 730.08 315.37C729.88 311.63 736.22 302.47 738.08 300.11C739.94 297.75 748.24 298.58 745.93 303.11C743.62 307.64 744.56 322 743.65 326.4Z" fill="white"/>
<path opacity="0.4" d="M651.85 380.42C652.807 378.605 653.904 376.866 655.13 375.22C655.13 375.22 651.88 384.22 651.56 389.01C651.35 392.17 643.03 397.64 634.36 404.47C642.41 395.06 648.73 387.53 651.85 380.42Z" fill="#C53F3F"/>
<path opacity="0.4" d="M655.13 375.22C656.37 373.46 657.48 372.01 657.48 372.01C657.48 372.01 653.48 360.74 654.41 357.2C655.34 353.66 653.26 324.56 653.26 324.56C653.26 324.56 650.55 304.75 647.88 299.75L654.1 310.62C654.1 310.62 653.49 319.21 655.26 323.92C657.03 328.63 659.26 343 659.26 343C659.26 343 656.64 355.08 657.53 359.43C658.42 363.78 662.43 362.2 662.43 362.2C662.43 362.2 664.4 370.16 655.13 375.22Z" fill="#C53F3F"/>
<path opacity="0.4" d="M669.64 293.39C673.93 318.51 666.54 311.56 663.87 306.14C661.2 300.72 654.93 290.46 650.21 292.65C648.885 293.272 647.774 294.275 647.02 295.53C647.15 290.96 649.8 285.2 651.1 278.53C652.84 269.53 652 265.08 657.46 268.19C662.92 271.3 660.37 290.19 660.37 290.19L668.62 308.47C670.79 304.05 668.62 291.15 668.51 288.1C668.51 287.6 668.51 286.77 668.43 285.69C668.76 288 669.16 290.57 669.64 293.39Z" fill="#C53F3F"/>
<path opacity="0.4" d="M680.14 268.57C680.14 268.57 675.51 262.51 671.49 262.82C670.8 262.857 670.135 263.096 669.579 263.507C669.023 263.917 668.599 264.481 668.36 265.13C668.36 264.89 668.36 264.67 668.44 264.47C669.11 260.01 671.5 245.82 673.02 244.24C675.28 241.9 678.87 239.93 682.25 245.24C684.14 248.24 683.33 272.03 683.33 272.03C683.33 272.03 691.17 262.57 693.55 260.26C695.93 257.95 703.15 253.73 705.08 258.62C707.01 263.51 699.89 278.62 699.89 278.62C701.38 282.12 701.56 291.81 701.56 291.81C701.56 291.81 704.93 303.92 707 303.81C702.44 312.39 699.4 293.42 699.4 293.42C700.08 289.5 697.66 281 697.9 278.76C698.14 276.52 693.7 268.6 686.22 270.76C678.74 272.92 684.14 302.48 684.14 302.48C682.662 304.835 681.802 307.524 681.64 310.3C679.33 307.45 681.64 299.3 681.64 299.3C679.59 291.5 680.14 268.57 680.14 268.57Z" fill="#C53F3F"/>
<path opacity="0.4" d="M715 275.9C711.81 279.25 712.25 287.72 709 298.35C710.7 290.78 712.55 277.83 714 276.7L715 275.9Z" fill="#C53F3F"/>
<path opacity="0.4" d="M743.65 326.4C742.74 330.78 744.93 354.79 744.55 358.03C744.17 361.27 725.07 383.03 724.11 384.68C723.15 386.33 710.38 393.68 707.41 397.19C693.53 413.38 685.95 428.29 679.86 443.24C682.154 435.491 684.922 427.89 688.15 420.48C694.72 405.71 697.4 403.08 701.34 398.86C705.28 394.64 704.85 385.67 704.85 385.67C707.758 384.97 710.739 384.617 713.73 384.62C718.73 384.62 733.53 363.52 738.62 359.82C743.71 356.12 744.62 356.12 738.62 347.96C732.62 339.8 734.32 349.27 732.52 348.96C730.72 348.65 729.74 352.59 729.74 352.59C729.11 344.27 723.74 334.59 722.61 332.17C721.48 329.75 725.35 315.56 724.55 311.61C723.75 307.66 727.99 283.61 727.99 283.61C727.99 283.61 727.46 274.38 719.1 274.35C717.817 274.279 716.55 274.661 715.52 275.43C719.06 272.28 726.52 265.28 726.52 265.28C726.52 265.28 727.05 261.93 733.58 262.96C740.11 263.99 730.68 283.26 730.68 283.26C729.37 289.39 727.36 305.16 727.36 305.16C726.75 311.72 727.11 329.35 727.11 329.35C727.11 329.35 730.2 319.09 730 315.35C729.8 311.61 736.14 302.45 738 300.09C739.86 297.73 748.16 298.56 745.85 303.09C743.54 307.62 744.56 322 743.65 326.4Z" fill="#C53F3F"/>
<path d="M676.46 452C683.25 434.07 690.84 416.57 707.41 397.24C710.41 393.78 723.14 386.43 724.11 384.73C725.08 383.03 744.18 361.31 744.55 358.08C744.92 354.85 742.74 330.83 743.65 326.45C744.56 322.07 743.5 307.63 745.8 303.13C748.1 298.63 739.8 297.81 737.95 300.13C736.1 302.45 729.78 311.69 729.95 315.39C730.12 319.09 727.06 329.39 727.06 329.39C727.06 329.39 726.7 311.76 727.31 305.2C727.31 305.2 729.31 289.43 730.63 283.3C730.63 283.3 740.05 264.02 733.53 263C727.01 261.98 726.47 265.32 726.47 265.32C726.47 265.32 716.06 275.1 714 276.7C711.94 278.3 709.13 303.3 707.06 303.77C704.99 304.24 701.53 291.77 701.53 291.77C701.53 291.77 701.35 282.08 699.86 278.58C699.86 278.58 706.97 263.51 705.05 258.58C703.13 253.65 695.91 257.92 693.52 260.22C691.13 262.52 683.3 271.99 683.3 271.99C683.3 271.99 684.11 248.18 682.22 245.2C678.84 239.87 675.22 241.84 672.99 244.2C671.47 245.78 669.08 259.97 668.41 264.43C667.74 268.89 668.41 284.97 668.48 288.03C668.55 291.09 670.76 303.98 668.59 308.4L660.34 290.12C660.34 290.12 662.9 271.21 657.43 268.12C651.96 265.03 652.81 269.49 651.07 278.46C649.33 287.43 645.19 294.72 647.85 299.73C650.51 304.74 653.23 324.54 653.23 324.54C653.23 324.54 655.29 353.64 654.38 357.18C653.47 360.72 657.48 372 657.48 372C657.48 372 652.86 378.09 651.85 380.41C647.19 391 635.4 402.58 621.38 420" stroke="#263238" stroke-linecap="round" stroke-linejoin="round"/>
<path d="M683.33 272.05C682.169 273.767 681.581 275.808 681.65 277.88C681.65 281.68 684.14 302.48 684.14 302.48C684.14 302.48 682.33 304.62 682.24 306.48" stroke="#263238" stroke-linecap="round" stroke-linejoin="round"/>
<path d="M727.08 329.34C727.353 332.853 728.258 336.288 729.75 339.48C732.09 344.1 731.33 346.65 730.53 349.38C729.994 351.774 729.709 354.217 729.68 356.67" stroke="#263238" stroke-linecap="round" stroke-linejoin="round"/>
<path d="M669.5 304.33C669.5 304.33 671.24 309.85 668.01 312.47" stroke="#263238" stroke-linecap="round" stroke-linejoin="round"/>
<path d="M707.09 303.77C707.09 303.77 707.43 305.94 704.36 306.14" stroke="#263238" stroke-linecap="round" stroke-linejoin="round"/>
<path d="M727.71 278.77C727.71 278.77 720.01 270.37 714.03 276.7" stroke="#263238" stroke-linecap="round" stroke-linejoin="round"/>
<path d="M696.51 274.05C696.51 274.05 692.96 269.56 689.88 269.83C686.8 270.1 682.64 271.98 682.17 274.45" stroke="#263238" stroke-linecap="round" stroke-linejoin="round"/>
<path d="M731.19 346.68C732.432 348.457 733.337 350.446 733.86 352.55" stroke="#263238" stroke-linecap="round" stroke-linejoin="round"/>
<path d="M711.19 312.54C708.8 316.99 709.94 324.54 709.06 326.61" stroke="#263238" stroke-linecap="round" stroke-linejoin="round"/>
<path d="M685.87 305.15C686.43 307.71 684.66 311.88 684.39 314.95C684.12 318.02 686.63 322.76 686.17 327.07" stroke="#263238" stroke-linecap="round" stroke-linejoin="round"/>
<path d="M669.64 315.63C669.64 315.63 667.55 320.45 667.64 323.63C667.73 326.81 668.86 333.78 668.86 333.78" stroke="#263238" stroke-linecap="round" stroke-linejoin="round"/>
<path d="M654.27 315.4C654.27 315.4 653.51 320.4 655.27 323.92C657.03 327.44 658.74 334.92 658.74 334.92" stroke="#263238" stroke-linecap="round" stroke-linejoin="round"/>
<path d="M657.48 372C658.402 371.745 659.226 371.218 659.844 370.489C660.463 369.76 660.848 368.861 660.95 367.91" stroke="#263238" stroke-linecap="round" stroke-linejoin="round"/>
<path d="M707.75 387.24C707.75 387.24 709.66 394.31 706 398.86" stroke="#263238" stroke-linecap="round" stroke-linejoin="round"/>
<path d="M647.07 294.69C647.07 294.69 652.45 289.44 656.52 293.87" stroke="#263238" stroke-linecap="round" stroke-linejoin="round"/>
<path d="M668.44 264.47C668.44 264.47 672.44 260.28 677.12 264.76" stroke="#263238" stroke-linecap="round" stroke-linejoin="round"/>
</g>
<defs>
<clipPath id="clip0_102_2">
<rect width="1040" height="499" fill="white"/>
</clipPath>
</defs>
</svg>
