<svg width="1124" height="630" viewBox="0 0 1124 630" fill="none" xmlns="http://www.w3.org/2000/svg">
<g clip-path="url(#clip0_10:2)">
<rect width="1124" height="630" fill="#365BA3"/>
<path d="M1222.5 525.152C1235.36 565.666 1222.2 613.357 1191.25 635.782C1160.31 658.057 1111.27 655.067 1078.53 630.998C1045.79 606.928 1029.34 561.779 1041.01 522.76C1052.67 483.74 1092.58 450.85 1131.9 451C1171.07 451.299 1209.64 484.488 1222.5 525.152Z" fill="#F2F4F8"/>
<path d="M894.907 526.152C908.108 566.666 894.6 614.357 862.825 636.782C831.051 659.057 780.703 656.067 747.086 631.998C713.47 607.928 696.585 562.779 708.558 523.76C720.531 484.74 761.515 451.85 801.886 452C842.103 452.299 881.706 485.488 894.907 526.152Z" fill="#F2F4F8"/>
<path d="M1050.57 511.349C1059.92 523.64 1063.68 537.907 1068.58 553.722C1073.56 569.536 1079.68 586.898 1074 598.157C1068.23 609.502 1050.57 614.831 1034.93 616.55C1019.2 618.269 1005.56 616.464 989.915 613.542C974.357 610.62 956.877 606.666 947.35 595.665C937.823 584.663 936.337 566.614 939.134 549.081C941.844 531.461 949.011 514.272 961.684 502.583C974.445 490.808 992.887 484.534 1009.58 486.596C1026.27 488.573 1041.22 498.973 1050.57 511.349Z" fill="#F2F4F8"/>
<path d="M945.085 501.9C956.005 512.1 963.708 525.6 964.78 539.2C965.853 552.8 960.198 566.4 952.105 576.3C943.915 586.2 933.093 592.3 921.49 597.3C909.79 602.2 897.213 605.9 881.515 605.7C865.818 605.4 846.903 601.2 837.543 589.1C828.183 577 828.28 557 831.4 537.4C834.52 517.7 840.565 498.3 853.435 488.5C866.208 478.6 885.903 478.2 902.868 481.5C919.833 484.8 934.068 491.7 945.085 501.9Z" fill="#F2F4F8"/>
<rect x="-69.9222" y="533.135" width="1302.3" height="172.756" fill="#F2F4F8"/>
<path d="M1114.8 222.39C1114.8 222.39 1045.86 127.312 956.688 113.432C867.517 99.552 827.053 136.334 780.595 168.952C734.136 201.57 646.464 225.86 635.973 277.91C625.483 329.96 634.475 370.212 682.432 395.196C730.389 420.18 764.859 409.77 859.275 400.748C953.691 391.726 965.68 427.814 1048.11 418.098C1130.53 408.382 1140.27 327.184 1136.53 286.932C1132.78 246.68 1114.8 222.39 1114.8 222.39Z" fill="#90CAF9"/>
<path opacity="0.7" d="M1114.8 222.39C1114.8 222.39 1045.86 127.312 956.688 113.432C867.517 99.552 827.053 136.334 780.595 168.952C734.136 201.57 646.464 225.86 635.973 277.91C625.483 329.96 634.475 370.212 682.432 395.196C730.389 420.18 764.859 409.77 859.275 400.748C953.691 391.726 965.68 427.814 1048.11 418.098C1130.53 408.382 1140.27 327.184 1136.53 286.932C1132.78 246.68 1114.8 222.39 1114.8 222.39Z" fill="white"/>
<path opacity="0.3" d="M1073.33 116.971C1072.49 116.973 1071.67 117.219 1070.98 117.674C1070.3 118.13 1069.79 118.773 1069.52 119.511H872.306C871.999 118.671 871.38 117.959 870.559 117.502C869.738 117.045 868.769 116.874 867.824 117.017C866.879 117.161 866.02 117.611 865.4 118.288C864.78 118.964 864.44 119.822 864.44 120.709C864.44 121.596 864.78 122.454 865.4 123.13C866.02 123.806 866.879 124.256 867.824 124.4C868.769 124.544 869.738 124.372 870.559 123.915C871.38 123.458 871.999 122.746 872.306 121.906H1069.52C1069.76 122.556 1070.19 123.133 1070.76 123.573C1071.33 124.013 1072.02 124.299 1072.75 124.399C1073.49 124.499 1074.23 124.41 1074.92 124.141C1075.6 123.873 1076.19 123.435 1076.62 122.876C1077.05 122.317 1077.31 121.659 1077.36 120.973C1077.41 120.288 1077.26 119.603 1076.92 118.992C1076.58 118.382 1076.07 117.87 1075.43 117.514C1074.8 117.157 1074.07 116.97 1073.33 116.971V116.971Z" fill="black"/>
<g opacity="0.3">
<path opacity="0.3" d="M918.952 122.579C921.762 185.899 924.197 249.831 927.194 312.929L926.902 325.296C926.902 325.296 914.261 325.296 907.607 325.907C900.953 326.518 890.642 326.525 883.328 326.525C876.015 326.525 872.013 324.061 872.013 324.061L872.493 312.908C873.992 249.845 875.558 185.906 876.599 122.579" stroke="black" stroke-linejoin="round"/>
<path opacity="0.3" d="M887.435 302.457L887.405 309.917" stroke="black" stroke-linejoin="round"/>
<path opacity="0.3" d="M888.124 157.182L887.472 295.836" stroke="black" stroke-linejoin="round"/>
<path opacity="0.3" d="M888.296 121.177L888.146 153.046" stroke="black" stroke-linejoin="round"/>
<path opacity="0.3" d="M899.634 194.012L898.128 286.321" stroke="black" stroke-linejoin="round"/>
<path opacity="0.3" d="M900.81 122.003L899.731 188.238" stroke="black" stroke-linejoin="round"/>
<path opacity="0.3" d="M910.222 219.683L910.642 305.365" stroke="black" stroke-linejoin="round"/>
<path opacity="0.3" d="M909.922 158.84L910.184 212.646" stroke="black" stroke-linejoin="round"/>
<path opacity="0.3" d="M909.75 122.829L909.892 152.22" stroke="black" stroke-linejoin="round"/>
</g>
<g opacity="0.3">
<path opacity="0.3" d="M1020.98 122.579C1018.28 189.626 1014.84 257.347 1012.25 324.04C1012.25 324.04 1020.85 325.248 1026.4 325.248H1054.65C1059.04 325.159 1063.41 324.741 1067.73 323.999C1066.46 257.375 1065.6 189.626 1063.36 122.579" stroke="black" stroke-linejoin="round"/>
<path opacity="0.3" d="M1052.5 302.457L1052.53 309.917" stroke="black" stroke-linejoin="round"/>
<path opacity="0.3" d="M1051.81 157.182L1052.47 295.836" stroke="black" stroke-linejoin="round"/>
<path opacity="0.3" d="M1051.64 121.177L1051.79 153.046" stroke="black" stroke-linejoin="round"/>
<path opacity="0.3" d="M1040.3 194.012L1041.8 286.321" stroke="black" stroke-linejoin="round"/>
<path opacity="0.3" d="M1039.12 122.003L1040.2 188.238" stroke="black" stroke-linejoin="round"/>
<path opacity="0.3" d="M1029.71 219.683L1029.29 305.365" stroke="black" stroke-linejoin="round"/>
<path opacity="0.3" d="M1030.01 158.84L1029.75 212.646" stroke="black" stroke-linejoin="round"/>
<path opacity="0.3" d="M1030.18 122.829L1030.04 152.22" stroke="black" stroke-linejoin="round"/>
</g>
<g opacity="0.3">
<path opacity="0.3" d="M920.203 140.574H940.053V162.019H921.529" stroke="black" stroke-linejoin="round"/>
<path opacity="0.3" d="M964.264 140.623H943.515V162.137H964.264V140.623Z" stroke="black" stroke-linejoin="round"/>
</g>
<g opacity="0.3">
<path opacity="0.3" d="M1020 140.574H1000.15V162.019H1018.67" stroke="black" stroke-linejoin="round"/>
<path opacity="0.3" d="M975.938 162.137H996.687V140.623H975.938V162.137Z" stroke="black" stroke-linejoin="round"/>
</g>
<path opacity="0.3" d="M923.485 238.026H964.788V173.727H921.664" stroke="black" stroke-linejoin="round"/>
<path opacity="0.3" d="M1017.91 173.185H975.684V238.026H1014.72" stroke="black" stroke-linejoin="round"/>
<path opacity="0.3" d="M924.841 253.28H964.788V317.919H927.869" stroke="black" stroke-linejoin="round"/>
<path opacity="0.3" d="M1015.18 252.739H975.684V318.516H1011.7" stroke="black" stroke-linejoin="round"/>
<path opacity="0.3" d="M927.689 322.624H1012.25" stroke="black" stroke-linejoin="round"/>
<path opacity="0.3" d="M920.038 133.128H1019.95" stroke="black" stroke-linejoin="round"/>
<path opacity="0.3" d="M970.236 133.572V321.736" stroke="black" stroke-linejoin="round"/>
<path opacity="0.3" d="M921.304 168.758H1018.49" stroke="black" stroke-linejoin="round"/>
<g opacity="0.3">
<path opacity="0.3" d="M686.344 140.574H718.378L729.078 183.602H715.328" stroke="black" stroke-linejoin="round"/>
<path opacity="0.3" d="M711.566 183.602H669.461L680.162 140.574H683.121" stroke="black" stroke-linejoin="round"/>
<path opacity="0.3" d="M701.892 232.772V406.168" stroke="black" stroke-linejoin="round"/>
<path opacity="0.3" d="M701.892 224.819V228.796" stroke="black" stroke-linejoin="round"/>
<path opacity="0.3" d="M696.647 357.54V183.595H701.892V221.585" stroke="black" stroke-linejoin="round"/>
<path opacity="0.3" d="M696.647 406.168V362.259" stroke="black" stroke-linejoin="round"/>
<path opacity="0.3" d="M722.042 406.168H674.557V411.22H722.042V406.168Z" stroke="black" stroke-linejoin="round"/>
</g>
<path d="M1049.91 347.962V271.386" stroke="#5E5E5E" stroke-width="4" stroke-miterlimit="10"/>
<path d="M1039.62 349.51V243.751" stroke="#5E5E5E" stroke-width="4" stroke-miterlimit="10"/>
<path d="M1062.95 350.024V312.881" stroke="#5E5E5E" stroke-width="4" stroke-miterlimit="10"/>
<path d="M1035.63 254.182C1035.63 254.182 1033.56 250.671 1026.68 243.03C1019.8 235.389 991.247 214.666 991.247 214.666C991.247 214.666 1007.42 222.633 1012.58 226.776C1017.74 230.919 1024.62 236.013 1024.62 236.013C1024.62 236.013 1005.35 216.581 1003.29 215.304C1001.23 214.027 1022.9 230.572 1022.9 230.572C1022.9 230.572 1014.66 215.304 1010.51 210.183C1006.37 205.061 998.471 192.971 998.471 192.971C998.471 192.971 1020.83 220.724 1021.88 222.314C1022.93 223.903 1027.39 230.919 1027.39 230.919L1019.47 211.8L1029.1 227.415C1029.1 227.415 1015.35 200.966 1014.66 199.655C1013.97 198.343 1024.28 212.119 1024.28 212.119L1015.33 187.267L1035.98 226.457L1034.6 211.189L1038.34 227.151L1039.38 187.961L1041.78 226.825C1041.78 226.825 1045.53 201.973 1046.28 196.872C1047.03 191.771 1047.36 186.302 1047.36 186.302C1047.36 186.302 1046.67 220.079 1046.67 221.037C1046.67 221.994 1045.98 229.635 1045.98 229.635C1045.98 229.635 1051.14 215.297 1052.51 211.473C1053.88 207.649 1055.27 194.588 1055.96 192.673C1056.65 190.757 1052.51 221.987 1052.17 223.264C1051.57 225.345 1050.76 227.371 1049.76 229.316C1048.73 231.232 1057.33 217.844 1060.43 212.112C1063.52 206.379 1069.37 195.546 1069.37 195.546C1069.37 195.546 1064.21 211.473 1062.84 214.34C1061.47 217.206 1052.51 232.502 1052.51 232.502C1052.51 232.502 1065.93 217.844 1071.79 214.027C1077.64 210.21 1088.27 202.875 1088.27 202.875C1088.27 202.875 1071.04 220.079 1067.63 223.264C1064.23 226.45 1054.21 237.602 1054.21 237.602C1054.21 237.602 1071.45 227.408 1072.45 226.45C1073.44 225.492 1085.87 218.164 1085.87 218.164C1085.87 218.164 1060.89 236.437 1059.72 237.596C1049.74 247.471 1046.3 252.253 1044.24 254.168C1042.18 256.084 1038.73 257.048 1035.63 254.182Z" fill="#90CAF9"/>
<path d="M1047.5 282.109C1047.5 282.109 1046 279.631 1041.18 274.225C1036.35 268.819 1016.11 254.161 1016.11 254.161C1016.11 254.161 1027.54 259.797 1031.19 262.725C1034.84 265.654 1039.71 269.263 1039.71 269.263C1039.71 269.263 1026.08 255.515 1024.63 254.612C1023.18 253.71 1038.5 265.418 1038.5 265.418C1038.5 265.418 1032.66 254.599 1029.74 250.997C1026.83 247.395 1021.22 238.824 1021.22 238.824C1021.22 238.824 1037.04 258.478 1037.77 259.575C1038.49 260.671 1041.66 265.661 1041.66 265.661L1036.06 252.135L1042.86 263.176C1042.86 263.176 1033.12 244.438 1032.64 243.571C1032.16 242.703 1039.46 252.364 1039.46 252.364L1033.12 234.778L1047.72 262.538L1046.75 251.718L1049.43 262.989L1050.17 235.264L1051.85 262.725C1051.85 262.725 1054.53 245.146 1055.02 241.544C1055.5 237.943 1055.76 234.105 1055.76 234.105C1055.76 234.105 1055.28 257.992 1055.28 258.672C1055.28 259.352 1054.79 264.759 1054.79 264.759L1059.42 251.913C1060.39 249.206 1061.36 239.962 1061.85 238.616C1062.34 237.269 1059.42 259.346 1059.17 260.248C1058.75 261.719 1058.18 263.152 1057.47 264.53C1056.72 265.883 1062.82 256.417 1065.01 252.364L1071.34 240.642C1071.34 240.642 1067.69 251.913 1066.71 253.939C1065.74 255.966 1059.43 266.806 1059.43 266.806C1059.43 266.806 1068.92 256.438 1073.05 253.731C1077.19 251.024 1084.73 245.847 1084.73 245.847C1084.73 245.847 1072.56 258.013 1070.13 260.269C1067.69 262.524 1060.64 270.415 1060.64 270.415C1060.64 270.415 1072.81 263.197 1073.54 262.524C1074.27 261.851 1083.03 256.667 1083.03 256.667C1083.03 256.667 1065.34 269.582 1064.54 270.394C1057.48 277.376 1055.05 280.755 1053.58 282.109C1052.12 283.462 1049.69 284.156 1047.5 282.109Z" fill="#90CAF9"/>
<path d="M1059.89 314.289C1059.89 314.289 1058.39 311.812 1053.56 306.406C1048.74 300.999 1028.5 286.342 1028.5 286.342C1028.5 286.342 1039.93 291.977 1043.58 294.913C1047.23 297.849 1052.1 301.444 1052.1 301.444C1052.1 301.444 1038.47 287.695 1037.01 286.793C1035.55 285.891 1050.88 297.613 1050.88 297.613C1050.88 297.613 1045.04 286.793 1042.11 283.191C1039.18 279.589 1033.6 271.019 1033.6 271.019C1033.6 271.019 1049.42 290.631 1050.14 291.755C1050.87 292.88 1054.04 297.842 1054.04 297.842L1048.44 284.316L1055.26 295.364C1055.26 295.364 1045.51 276.626 1045.03 275.752C1044.55 274.877 1051.85 284.545 1051.85 284.545L1045.53 266.966L1060.13 294.684L1059.16 283.864L1061.83 295.135L1062.58 267.417L1064.29 294.913C1064.29 294.913 1066.97 277.327 1067.45 273.725C1067.94 270.123 1068.2 266.285 1068.2 266.285C1068.2 266.285 1067.72 290.18 1067.72 290.853C1067.72 291.526 1067.23 296.939 1067.23 296.939L1071.85 284.094C1072.83 281.387 1073.8 272.15 1074.29 270.796C1074.78 269.443 1071.85 291.526 1071.61 292.428C1071.18 293.899 1070.61 295.332 1069.91 296.71C1069.16 298.098 1075.26 288.598 1077.45 284.545L1083.78 272.823C1083.78 272.823 1080.13 284.093 1079.16 286.12C1078.18 288.146 1071.85 298.966 1071.85 298.966C1071.85 298.966 1081.35 288.598 1085.48 285.898C1089.62 283.198 1097.17 278.007 1097.17 278.007C1097.17 278.007 1085 290.18 1082.56 292.428C1080.13 294.677 1073.07 302.575 1073.07 302.575C1073.07 302.575 1085.24 295.364 1085.97 294.684C1086.7 294.004 1095.46 288.827 1095.46 288.827C1095.46 288.827 1077.8 301.749 1076.96 302.575C1069.91 309.556 1067.48 312.943 1066.02 314.289C1064.55 315.636 1062.07 316.323 1059.89 314.289Z" fill="#90CAF9"/>
<path d="M1075.29 374.806C1075.29 389.852 1071.01 403.135 1064.49 411.158H1035.53C1029.01 403.135 1024.73 389.852 1024.73 374.806C1024.73 373.495 1024.73 372.19 1024.83 370.906C1024.99 367.649 1025.36 364.404 1025.95 361.19C1026.17 360.01 1026.41 358.851 1026.7 357.72C1026.92 356.776 1027.16 355.853 1027.45 354.944C1028.56 350.937 1030.16 347.061 1032.21 343.389H1067.9C1069.94 347.062 1071.52 350.939 1072.62 354.944C1072.88 355.853 1073.12 356.776 1073.37 357.72C1073.64 358.851 1073.88 360.01 1074.12 361.19C1074.7 364.404 1075.08 367.649 1075.23 370.906C1075.26 372.19 1075.29 373.495 1075.29 374.806Z" fill="white" stroke="#263238" stroke-miterlimit="10"/>
<path d="M1072.62 354.944H1027.4C1027.14 355.853 1026.9 356.776 1026.65 357.72H1073.32C1073.12 356.776 1072.88 355.853 1072.62 354.944ZM1074.07 361.19H1025.95C1025.36 364.404 1024.99 367.649 1024.83 370.906H1075.19C1075.03 367.649 1074.66 364.404 1074.07 361.19V361.19Z" fill="#263238" stroke="#263238" stroke-miterlimit="10"/>
<g opacity="0.3">
<path opacity="0.3" d="M767.654 160.09H750.359L733.229 187.565L750.359 215.034H784.604L801.726 187.565L784.604 160.09H772.749H767.654ZM782.685 211.98H752.27L737.066 187.586L752.27 163.164H782.685L797.897 187.565L782.685 211.98Z" stroke="black" stroke-linejoin="round"/>
<path opacity="0.3" d="M844.97 153.323L849.151 160.02L833.94 184.421H803.532L788.32 160.02L803.532 135.64H833.947L840.601 146.314M835.866 132.552H801.613L784.491 160.02L801.613 187.496H835.866L852.988 160.02L835.866 132.552ZM841.86 148.333L843.404 150.811L841.86 148.333Z" stroke="black" stroke-linejoin="round"/>
<path opacity="0.3" d="M794.69 231.315L801.613 242.419H835.866L852.988 214.95L835.866 187.482H801.613L784.491 214.95L789.22 222.529L794.69 231.315ZM790.366 224.375L792.614 227.921L790.366 224.375ZM833.985 239.351H803.532L788.32 214.95L803.532 190.556H833.947L849.159 214.95L833.985 239.351Z" stroke="black" stroke-linejoin="round"/>
<path opacity="0.3" d="M774.682 211.8H757.455L755.305 192.499H776.833L774.682 211.8Z" stroke="black" stroke-linejoin="round"/>
<path opacity="0.3" d="M758.429 192.499L751.138 184.782L759.126 188.641V184.782L758.429 176.093L763.989 187.35L766.762 175.455L767.811 182.853L773.019 169.341L772.322 184.456L778.916 179.313L774.405 185.747L782.393 182.527L777.53 188.641L785.862 188.322L776.833 192.499" stroke="black" stroke-linejoin="round"/>
<path opacity="0.3" d="M826.079 184.137H808.852L806.701 164.837H828.237L826.079 184.137Z" stroke="black" stroke-linejoin="round"/>
<path opacity="0.3" d="M806.701 164.837C805.595 164.561 804.513 164.208 803.464 163.782C802.902 163.435 803.464 162.574 803.464 162.574L802.715 161.533L804.393 161.013L803.644 158.931L804.581 158.757L804.019 156.162L805.517 155.815L805.892 154.26L807.945 154.087L808.695 152.699L810.193 152.872L810.943 151.664L812.996 151.317L813.932 151.491L815.813 150.977L816.188 151.838L818.811 150.977L818.998 152.365L820.497 151.671C820.497 151.671 820.309 152.532 820.871 152.532C821.529 152.394 822.159 152.16 822.737 151.838L823.112 152.879L824.611 152.185L825.173 153.052H826.671V154.267L828.537 153.92L830.223 154.267L830.036 155.822L830.59 156.689L831.902 156.863L831.527 158.251L831.34 159.292L832.464 159.465L831.152 160.499L832.464 160.846L830.965 162.061L832.838 162.755L831.152 163.275L830.223 164.316V165.01L828.275 164.85" stroke="black" stroke-linejoin="round"/>
<path opacity="0.3" d="M809.624 155.648L808.507 156.342L810.373 157.036L808.32 158.938H810.186L809.811 160.319L811.31 159.972L811.872 161.186L814.674 160.492L815.236 162.914L817.102 161.707L818.039 162.054H819.343L821.029 162.574L821.958 161.36H822.707L822.894 159.972" stroke="black" stroke-linejoin="round"/>
<path opacity="0.3" d="M826.776 239.455H809.549L807.398 220.162H828.927L826.776 239.455Z" stroke="black" stroke-linejoin="round"/>
<path opacity="0.3" d="M825.697 220.03C825.697 220.03 824.948 219.336 827.008 215.526C829.069 211.716 833.175 211.55 834.292 209.974C835.408 208.399 836.72 203.402 831.864 203.576C827.008 203.749 826.259 207.552 825.12 207.74C823.981 207.927 823.067 205.491 822.317 207.566C821.568 209.641 822.317 211.203 823.441 212.07C824.565 212.938 823.629 215.7 823.629 215.7C823.014 214.773 822.512 213.786 822.13 212.757C821.381 210.856 818.024 210.675 818.024 208.954C818.024 207.233 820.077 203.59 817.274 201.508C814.472 199.426 810.733 201.334 810.358 203.069C809.983 204.804 812.973 208.087 812.973 208.087C812.973 208.087 811.669 210.682 813.535 211.723L818.211 214.319C818.211 214.319 815.409 213.451 814.659 213.972C813.91 214.492 814.847 216.054 813.535 216.22C812.224 216.387 812.973 214.666 812.231 212.75C811.49 210.835 809.054 210.155 809.054 208.427C809.054 206.699 809.242 204.263 806.994 204.79C804.746 205.318 800.459 208.774 803.247 211.036C806.034 213.299 808.29 214.326 808.103 215.013C807.915 215.7 804.738 214.499 804.551 215.707C804.363 216.914 806.049 217.615 808.665 217.955C811.28 218.295 811.662 219.864 811.662 219.864" stroke="black" stroke-linejoin="round"/>
<path opacity="0.3" d="M816.563 220.204C816.563 220.204 814.51 218.816 814.51 217.948C814.51 217.081 818.256 216.56 818.803 216.56C819.35 216.56 817.874 217.948 817.874 217.948C818.233 218.282 818.691 218.51 819.19 218.603C819.689 218.695 820.206 218.649 820.677 218.469C822.175 217.775 822.542 220.03 822.542 220.03" stroke="black" stroke-linejoin="round"/>
</g>
<path d="M860.833 260.213H758.931C754.102 260.213 750.187 263.839 750.187 268.312V356.866C750.187 361.339 754.102 364.965 758.931 364.965H860.833C865.663 364.965 869.578 361.339 869.578 356.866V268.312C869.578 263.839 865.663 260.213 860.833 260.213Z" fill="#90CAF9" stroke="#263238" stroke-miterlimit="10"/>
<path d="M755.979 305.372L762.618 351.932H753.739L755.979 305.372Z" fill="#263238" stroke="#263238" stroke-miterlimit="10"/>
<path d="M980.225 260.213H878.323C873.493 260.213 869.578 263.839 869.578 268.312V356.866C869.578 361.339 873.493 364.965 878.323 364.965H980.225C985.054 364.965 988.969 361.339 988.969 356.866V268.312C988.969 263.839 985.054 260.213 980.225 260.213Z" fill="#90CAF9" stroke="#263238" stroke-miterlimit="10"/>
<path d="M748.403 409.923H992.431V361.669H750.629L748.403 409.923Z" fill="#90CAF9" stroke="#263238" stroke-miterlimit="10"/>
<path d="M754.091 373.98C754.091 373.98 813.79 372.988 835.468 372.988C857.147 372.988 897.296 374.307 907.247 374.307C917.198 374.307 986.489 374.938 986.489 374.938L986.609 369.102L752.667 366.742L754.091 373.98Z" fill="#263238" stroke="#263238" stroke-miterlimit="10"/>
<path d="M753.304 370.739C753.304 370.739 920.735 372.821 930.978 372.821C941.222 372.821 986.197 371.725 986.197 371.725V352.321C986.197 352.321 869.968 354.25 865.517 354.25C861.066 354.25 767.998 350.128 764.439 349.718C760.88 349.309 753.304 349.718 753.304 349.718V370.739Z" fill="#90CAF9" stroke="#263238" stroke-miterlimit="10"/>
<path d="M1013.01 301.041H990.101C987.204 301.041 984.855 303.216 984.855 305.899V406.3C984.855 408.983 987.204 411.158 990.101 411.158H1013.01C1015.9 411.158 1018.25 408.983 1018.25 406.3V305.899C1018.25 303.216 1015.9 301.041 1013.01 301.041Z" fill="#90CAF9" stroke="#263238" stroke-miterlimit="10"/>
<path d="M750.734 301.041H727.827C724.93 301.041 722.581 303.216 722.581 305.899V406.3C722.581 408.983 724.93 411.158 727.827 411.158H750.734C753.631 411.158 755.979 408.983 755.979 406.3V305.899C755.979 303.216 753.631 301.041 750.734 301.041Z" fill="#90CAF9" stroke="#263238" stroke-miterlimit="10"/>
<path d="M682.057 411.227H676.812" stroke="black" stroke-linejoin="round"/>
<path d="M641.219 411.158H1114.8" stroke="#263238" stroke-miterlimit="10"/>
<path d="M923.717 207.275C924.123 205.102 923.809 202.867 922.818 200.862C921.162 197.656 911.218 198.905 907.15 201.14C903.081 203.374 901.582 207.698 900.825 212.299C900.068 216.9 903.688 218.858 907.457 219.552C911.226 220.246 914.081 214.395 915.437 212.612C916.793 210.828 922.818 209.142 922.818 209.142L923.717 207.275Z" fill="#263238" stroke="#263238" stroke-miterlimit="10"/>
<path d="M986.609 285.801C984.503 282.671 958.217 267.944 958.217 267.944C952.222 262.531 947.868 259.283 943.02 256.347C938.172 253.412 937.175 253.252 937.175 253.252L938.015 247.221L919.813 247.686C919.813 247.686 919.476 252.947 917.977 254.626C916.479 256.306 910.964 256.327 904.617 257.402C898.27 258.478 887.914 259.255 884.385 264.981C880.856 270.706 869.69 293.9 869.69 293.9C879.774 295.013 889.942 295.324 900.083 294.83C915.115 293.9 931.982 289.104 935.819 288.952C939.656 288.799 943.665 290.034 952.349 292.817C961.034 295.6 973.391 298.23 977.077 297.925C978.063 297.832 979.006 297.502 979.811 296.967C980.617 296.433 981.258 295.713 981.671 294.878C985.02 294.982 989.981 293.331 989.981 292.415C989.988 291.269 988.722 288.924 986.609 285.801Z" fill="#263238" stroke="#263238" stroke-miterlimit="10"/>
<path d="M939.641 293.331C939.641 293.331 941.454 285.148 945.98 278.43C950.506 271.713 950.738 268.569 958.666 266.05C966.594 263.53 969.771 263.537 973.653 263.114C977.534 262.691 977.954 264.162 977.272 266.889C976.59 269.617 975.916 272.136 975.916 272.136C975.916 272.136 975.916 284.309 975.459 289.972C975.053 293.784 974.061 297.523 972.514 301.076C965.3 301.82 958.033 302.032 950.783 301.707C940.315 301.09 939.641 293.331 939.641 293.331Z" fill="#DEDEDE" stroke="#263238" stroke-miterlimit="10"/>
<path d="M896.269 266.862C912.065 268.34 935.789 266.168 948.355 259.873C946.572 258.589 944.834 257.444 943.02 256.347C938.18 253.412 937.175 253.252 937.175 253.252L938.015 247.221L919.813 247.686C919.813 247.686 919.476 252.947 917.977 254.626C916.479 256.306 910.964 256.327 904.617 257.402C898.27 258.478 887.914 259.255 884.385 264.981C884.055 265.529 883.636 266.237 883.186 267.063C886.116 266.556 890.297 266.306 896.269 266.862Z" fill="white" stroke="#263238" stroke-miterlimit="10"/>
<path d="M945.77 227.144C945.77 227.144 944.938 241.891 944.526 245.729C944.114 249.567 937.91 256.07 933.151 256.833C928.393 257.597 923.837 255.112 920.72 252.232C918.467 249.902 916.916 247.063 916.224 244.001C916.224 243.425 914.778 237.679 914.778 237.679C914.778 237.679 911.878 236.534 911.878 234.611C911.878 232.689 910.432 227.526 912.71 224.271C914.988 221.016 920.772 213.167 926.153 212.778C931.533 212.389 937.325 213.923 940.63 219.669C943.934 225.416 945.77 227.144 945.77 227.144Z" fill="white" stroke="#263238" stroke-miterlimit="10"/>
<path d="M911.638 229.441C911.638 229.441 918.464 229.441 920.533 226.762C922.601 224.083 923.223 216.415 929.015 216.991C934.807 217.567 934.186 227.144 939.558 228.678C944.931 230.211 948.663 228.483 948.663 228.483C950.823 227.347 952.446 225.502 953.211 223.313C954.455 219.669 950.109 216.796 948.663 214.694C947.216 212.591 944.736 208.559 940.592 207.219C936.448 205.88 923.223 205.498 916.396 208.753C909.57 212.008 908.116 219.288 905.846 225.61C903.575 231.932 902.946 237.679 908.536 239.976C914.126 242.273 914.943 239.594 914.74 237.679C914.538 235.763 913.084 235.597 912.672 234.042C912.26 232.488 911.638 229.441 911.638 229.441Z" fill="#263238" stroke="#263238" stroke-miterlimit="10"/>
<path d="M926.999 216.574C928.985 217.574 930.539 219.177 931.398 221.113C933.084 224.583 935.961 228.934 942.039 228.934" stroke="#263238" stroke-miterlimit="10"/>
<path d="M923.837 236.721C924.769 237.331 925.873 237.675 927.013 237.709C928.153 237.744 929.279 237.468 930.251 236.915" stroke="#263238" stroke-miterlimit="10"/>
<path d="M938.944 236.915C938.944 236.915 942.248 238.449 943.904 236.721" stroke="#263238" stroke-miterlimit="10"/>
<path d="M935.01 234.042C930.47 232.171 925.459 231.501 920.533 232.106C920.533 232.106 918.285 239.955 925.703 241.128C933.122 242.301 935.01 234.042 935.01 234.042Z" stroke="#263238" stroke-miterlimit="10"/>
<path d="M951.548 234.382C946.774 233.105 941.712 233.074 936.921 234.292C936.921 234.292 935.812 242.363 943.357 242.571C950.903 242.78 951.548 234.382 951.548 234.382Z" stroke="#263238" stroke-miterlimit="10"/>
<path d="M936.921 234.292C936.303 234.11 935.657 234.025 935.01 234.042" stroke="#263238" stroke-miterlimit="10"/>
<path d="M920.533 232.127L913.017 229.039" stroke="#263238" stroke-miterlimit="10"/>
<path d="M934.688 235.52C934.688 235.52 936.321 235.167 936.988 235.791" stroke="#263238" stroke-miterlimit="10"/>
<path d="M914.725 231.551C914.725 231.551 915.138 227.331 912.245 228.081C909.353 228.83 910.177 235.361 911.413 236.513C912.65 237.665 914.516 235.743 914.516 235.743" fill="white"/>
<path d="M914.725 231.551C914.725 231.551 915.138 227.331 912.245 228.081C909.353 228.83 910.177 235.361 911.413 236.513C912.65 237.665 914.516 235.743 914.516 235.743" stroke="#263238" stroke-miterlimit="10"/>
<path d="M924.879 230.829C924.879 230.829 929.66 229.059 932.335 231.523" stroke="#263238" stroke-width="2" stroke-miterlimit="10" stroke-linecap="round"/>
<path d="M938.24 232.377C938.24 232.377 942.578 230.42 944.362 232.064" stroke="#263238" stroke-width="2" stroke-miterlimit="10" stroke-linecap="round"/>
<path d="M936.568 236.603C936.568 236.603 936.681 240.621 937.01 241.343" stroke="#263238" stroke-miterlimit="10"/>
<path d="M918.172 250.518C918.172 250.518 920.128 247.589 920.278 246.354C920.428 245.118 923.14 244.404 923.275 246.638C923.325 248.191 923.122 249.742 922.676 251.24L918.172 250.518Z" stroke="#263238" stroke-miterlimit="10"/>
<path d="M944.699 253.099C944.699 253.099 948.708 257.583 949.877 258.825C951.046 260.067 951.21 270.574 952.05 272.122C952.889 273.67 954.89 274.898 961.903 278.153C968.917 281.408 988.13 288.827 989.786 290.374C991.442 291.922 992.461 298.105 989.456 299.958C986.452 301.811 985.11 302.124 980.105 301.041C975.099 299.958 967.928 294.705 964.399 292.38C960.869 290.055 949.869 277.07 947.531 275.37C945.193 273.67 942.518 271.969 942.353 270.422C942.188 268.874 941.184 266.556 940.855 265.009C940.482 263.824 939.858 262.719 939.019 261.761C939.019 261.761 937.85 250.317 941.019 250.164C944.189 250.011 944.699 253.099 944.699 253.099Z" fill="white" stroke="#263238" stroke-miterlimit="10"/>
<path d="M946.699 268.888C946.699 268.888 946.197 265.175 946.197 263.627C946.236 262.335 946.346 261.044 946.527 259.762C946.527 259.762 942.69 255.896 942.518 254.21C942.346 252.523 943.859 253.44 945.028 254.675C946.197 255.91 949.367 258.228 949.869 258.839C950.371 259.45 950.701 261.774 950.701 262.545C950.701 263.315 950.873 267.805 950.873 267.805" fill="white"/>
<path d="M946.699 268.888C946.699 268.888 946.197 265.175 946.197 263.627C946.236 262.335 946.346 261.044 946.527 259.762C946.527 259.762 942.69 255.896 942.518 254.21C942.346 252.523 943.859 253.44 945.028 254.675C946.197 255.91 949.367 258.228 949.869 258.839C950.371 259.45 950.701 261.774 950.701 262.545C950.701 263.315 950.873 267.805 950.873 267.805" stroke="#263238" stroke-miterlimit="10"/>
<path d="M944.639 247.471C944.197 244.064 939.049 241.843 933.144 242.502C927.239 243.161 922.811 246.451 923.26 249.859C923.396 250.766 923.744 251.635 924.279 252.405L928.903 262.323L944.406 260.588L944.624 248.443C944.674 248.121 944.679 247.794 944.639 247.471V247.471Z" fill="white" stroke="#263238" stroke-miterlimit="10"/>
<path d="M928.033 256.118C928.033 256.118 926.685 251.378 928.573 248.637C930.461 245.896 931.803 252.877 928.033 256.118Z" fill="#90CAF9"/>
<path d="M931.263 253.37C931.263 253.37 932.072 245.139 934.493 246.139C936.913 247.138 932.612 252.628 931.263 253.37Z" fill="#90CAF9"/>
<path d="M934.208 251.378C934.208 251.378 936.089 244.397 938.786 246.388C941.484 248.38 934.208 251.378 934.208 251.378Z" fill="#90CAF9"/>
<path d="M938.539 250.629C938.539 250.629 942.286 247.638 942.286 249.63C942.286 251.621 938.539 250.629 938.539 250.629Z" fill="#90CAF9"/>
<path d="M929.382 256.868C929.382 256.868 933.691 252.128 937.73 252.128C941.769 252.128 942.518 254.21 942.518 254.21C940.274 253.513 937.867 253.392 935.554 253.86C933.241 254.328 931.108 255.367 929.382 256.868V256.868Z" fill="#90CAF9"/>
<path d="M944.406 260.56C944.691 262.753 941.454 264.925 937.168 265.418C932.882 265.911 929.188 264.502 928.925 262.309C928.663 260.116 931.878 257.944 936.156 257.451C940.435 256.958 944.122 258.388 944.406 260.56Z" fill="#DEDEDE" stroke="#263238" stroke-miterlimit="10"/>
<path d="M878.945 355.638C878.945 355.638 909.712 371.836 919.663 375.764C929.615 379.692 932.934 383.863 938.06 386.098C943.185 388.332 956.456 388.617 956.456 388.617C956.456 388.617 953.458 391.129 958.269 393.364C963.08 395.599 967.014 395.599 970.034 396.14C973.053 396.681 978.171 397.819 978.171 397.819H988.43C989.336 397.819 992.926 397.257 992.926 397.257L994.424 391.955L997.422 391.115L996.215 386.646C996.215 386.646 942.533 372.676 927.756 365.132C912.979 357.588 886.483 352.001 878.945 355.638Z" fill="#263238" stroke="#263238" stroke-miterlimit="10"/>
<path d="M982.96 301.457C982.96 301.457 989.014 306.44 989.636 312.797C990.258 319.154 987.051 328.704 987.051 328.704L994.544 381.594L974.882 303.588C974.882 303.588 977.077 298.334 982.96 301.457Z" fill="#263238" stroke="#263238" stroke-miterlimit="10"/>
<path d="M980.981 312.61C980.981 312.61 992.559 372.412 994.117 376.951C995.676 381.489 997.901 387.236 997.901 387.236C996.81 388.194 995.54 388.963 994.155 389.505C992.78 390.012 991.368 390.425 989.928 390.741L989.486 395.279H975.639C969.644 395.279 960.502 391.775 960.502 391.775L964.286 345.79C964.286 345.79 970.071 333.416 973.638 326.816C977.205 320.216 980.981 312.61 980.981 312.61Z" fill="white"/>
<g opacity="0.5">
<path opacity="0.21" d="M981.708 316.323L980.959 312.589C980.959 312.589 977.175 320.223 973.615 326.816L973.113 327.753V330.744H971.57C970.348 333.152 969.052 335.79 967.891 338.177H973.136V352.598H963.724L963.11 360.038H973.173V374.459H961.933L961.319 381.892H973.173V395.113C974.003 395.217 974.839 395.273 975.676 395.279H981.206V381.892H995.938C995.346 380.289 994.709 378.533 994.155 376.93C994.02 376.52 993.795 375.667 993.51 374.459H981.169V360.038H990.408C989.921 357.671 989.411 355.18 988.909 352.598H981.169V338.177H986.002C985.492 335.616 984.998 333.118 984.503 330.744H981.139V316.323H981.708Z" fill="black"/>
<path opacity="0.2" d="M968.153 341.355V337.684L967.486 339.072V341.362H966.384C966.287 341.578 966.19 341.779 966.092 341.98H967.486V363.633H962.818L962.765 364.251H967.486V385.903H961.933V374.536L961.266 382.648V385.896H960.997L960.952 386.514H961.266V392.066L961.933 392.302V386.528H967.501V394.002L968.168 394.169V386.535H986.204V395.3H986.871V386.514H991.989V390.213L992.664 390.005V386.535H997.647L997.407 385.917H992.656V370.76C992.446 369.809 992.221 368.768 991.982 367.651V385.896H986.864V364.244H991.27C991.225 364.042 991.187 363.834 991.142 363.626H986.864V342.501C986.639 341.369 986.414 340.252 986.197 339.135V341.355H968.153ZM986.189 385.896H968.153V364.244H986.189V385.896ZM986.189 363.626H968.153V341.973H986.189V363.626Z" fill="black"/>
<path opacity="0.2" d="M977.377 319.703H982.368C982.368 319.494 982.285 319.286 982.248 319.085H977.669C977.595 319.293 977.49 319.494 977.377 319.703Z" fill="black"/>
</g>
<path d="M980.981 312.61C980.981 312.61 992.559 372.412 994.117 376.951C995.676 381.489 997.901 387.236 997.901 387.236C996.81 388.194 995.54 388.963 994.155 389.505C992.78 390.012 991.368 390.425 989.928 390.741L989.486 395.279H975.639C969.644 395.279 960.502 391.775 960.502 391.775L964.286 345.79C964.286 345.79 970.071 333.416 973.638 326.816C977.205 320.216 980.981 312.61 980.981 312.61Z" stroke="#263238" stroke-miterlimit="10"/>
<path d="M972.746 384.786C972.746 384.786 975.421 386.021 971.412 387.874C967.862 389.379 964.219 390.688 960.502 391.795L961.394 382.079C961.394 382.079 970.071 382.704 972.746 384.786Z" fill="#9C9C9C" stroke="#263238" stroke-miterlimit="10"/>
<path d="M968.07 339.19C968.07 339.19 973.638 381.462 972.746 384.765C972.746 384.765 968.962 383.322 960.277 383.322C951.593 383.322 946.25 384.557 937.123 379.817C927.996 375.077 927.996 368.886 927.996 368.886L959.168 330.328L968.07 339.19Z" fill="white"/>
<g opacity="0.5">
<path opacity="0.21" d="M956.231 374.459V360.038H970.663C970.363 357.484 970.056 354.958 969.771 352.598H956.231V338.177H967.051L959.558 330.744H958.809L948.183 343.889V352.598H941.147L935.152 360.038H948.206V374.459H931.293V364.806L927.996 368.886C927.996 368.886 927.996 375.07 937.123 379.817C938.655 380.622 940.25 381.318 941.896 381.899H948.198V383.287C950.87 383.496 953.554 383.533 956.231 383.398V381.899H972.806C972.716 380.046 972.514 377.457 972.222 374.466L956.231 374.459Z" fill="black"/>
<path opacity="0.2" d="M961.252 341.973V363.626H943.665V349.503L942.998 350.329V363.626H937.003V357.762L936.336 358.594V363.626H932.267L931.765 364.244H936.336V379.38L937.003 379.741V364.244H942.998V382.246L943.665 382.44V364.244H961.252V383.329H961.933V364.244H967.501V383.71L968.168 383.794V364.244H971.165L971.098 363.626H968.175V341.973H968.453C968.453 341.758 968.4 341.55 968.378 341.355H968.175V339.829L968.093 339.19L967.508 338.607V341.383H961.933V333.069L961.267 332.375V341.328H950.244L949.749 341.945L961.252 341.973ZM967.486 341.973V363.626H961.933V341.973H967.486Z" fill="black"/>
</g>
<path d="M968.07 339.19C968.07 339.19 973.638 381.462 972.746 384.765C972.746 384.765 968.962 383.322 960.277 383.322C951.593 383.322 946.25 384.557 937.123 379.817C927.996 375.077 927.996 368.886 927.996 368.886L959.168 330.328L968.07 339.19Z" stroke="#263238" stroke-miterlimit="10"/>
<path d="M989.891 390.74C989.891 390.74 989.449 388.658 989.224 374.452C988.999 360.246 984.548 340.634 984.548 340.634" fill="white"/>
<path d="M989.891 390.74C989.891 390.74 989.449 388.658 989.224 374.452C988.999 360.246 984.548 340.634 984.548 340.634" stroke="#263238" stroke-miterlimit="10"/>
<path d="M979.205 330.328C979.205 330.328 979.873 351.772 979.205 366.208" stroke="#263238" stroke-miterlimit="10"/>
<path d="M975.198 333.43C971.631 339.412 950.47 376.736 948.701 378.179C946.933 379.623 923.973 370.545 915.304 368.283C906.634 366.02 887.249 359.399 883.255 357.755C880.386 356.65 877.403 355.82 874.353 355.277C869.489 355.989 864.58 356.402 859.658 356.512C855.501 356.42 851.414 355.506 847.669 353.834H847.616C847.324 353.785 845.631 353.535 843.915 353.369H843.862C843 353.285 842.124 353.223 841.427 353.223C839.179 353.223 833.409 354.673 826.957 354.875C820.505 355.076 816.714 351.988 816.714 350.135C816.879 349.66 817.176 349.234 817.576 348.899C821.48 344.825 837.306 333.354 838.085 332.812C838.984 332.195 843.877 323.534 848.778 324.568C853.678 325.602 863.914 328.898 863.914 328.898C862.805 325.387 863.247 309.716 863.247 309.716C872.992 308.403 882.655 306.613 892.194 304.351C905.33 301.055 909.339 296.933 921.808 295.288C934.277 293.643 948.349 298.203 954.539 296.933C970.567 293.636 981.252 298.584 982.594 303.324C983.935 308.064 978.757 327.441 975.198 333.43Z" fill="white"/>
<path d="M975.198 333.43C971.631 339.412 950.47 376.736 948.701 378.179C946.933 379.623 923.973 370.545 915.304 368.283C906.634 366.02 887.249 359.399 883.255 357.755C880.386 356.65 877.403 355.82 874.353 355.277C869.489 355.989 864.58 356.402 859.658 356.512C855.501 356.42 851.414 355.506 847.669 353.834H847.616C847.324 353.785 845.631 353.535 843.915 353.369H843.862C843 353.285 842.124 353.223 841.427 353.223C839.179 353.223 833.409 354.673 826.957 354.875C820.505 355.076 816.714 351.988 816.714 350.135C816.879 349.66 817.176 349.234 817.576 348.899C821.48 344.825 837.306 333.354 838.085 332.812C838.984 332.195 843.877 323.534 848.778 324.568C853.678 325.602 863.914 328.898 863.914 328.898C862.805 325.387 863.247 309.716 863.247 309.716C872.992 308.403 882.655 306.613 892.194 304.351C905.33 301.055 909.339 296.933 921.808 295.288C934.277 293.643 948.349 298.203 954.539 296.933C970.567 293.636 981.252 298.584 982.594 303.324C983.935 308.064 978.757 327.441 975.198 333.43Z" stroke="#263238" stroke-miterlimit="10"/>
<g opacity="0.5">
<path opacity="0.21" d="M831.549 338.177H830.733C828.395 339.933 825.817 341.897 823.516 343.729V352.598H831.549V338.177Z" fill="black"/>
<path opacity="0.21" d="M823.516 352.598H818.361C819.861 353.686 821.635 354.402 823.516 354.68V352.598Z" fill="black"/>
<path opacity="0.21" d="M848.454 352.598H831.549V354.521C836.045 354.028 839.71 353.209 841.381 353.209C842.077 353.209 842.954 353.271 843.816 353.355H843.868C845.584 353.521 847.278 353.771 847.57 353.82H847.623C851.368 355.492 855.455 356.406 859.612 356.499C864.534 356.388 869.443 355.976 874.306 355.263C877.373 355.807 880.371 356.642 883.253 357.755C884.355 358.206 886.618 359.032 889.495 360.038H898.345V363.043C901.02 363.931 903.77 364.82 906.37 365.639V360.038H923.268V370.746C925.808 371.6 928.558 372.551 931.293 373.522V360.038H948.198V374.459H934.148C941.372 376.895 947.793 378.901 948.7 378.165C949.329 377.652 952.387 372.648 956.231 366.131V360.038H959.798C961.221 357.595 962.683 355.076 964.114 352.598H956.231V338.177H972.424C973.675 336.012 974.672 334.339 975.196 333.416C977.902 328.877 981.506 316.6 982.495 308.883H981.169V301.02C979.603 299.334 976.86 297.807 973.136 296.856V308.883H956.231V296.592C955.654 296.69 955.077 296.794 954.492 296.919C952.406 297.215 950.284 297.215 948.198 296.919V308.869H931.293V294.989H924.212L923.268 295.073V308.848H906.355V299.521C903.905 300.493 901.365 301.527 898.33 302.54V308.883H881.417V306.704C878.577 307.252 875.842 307.745 873.392 308.154V308.883H868.896C865.449 309.418 863.239 309.702 863.239 309.702C863.239 309.702 863.156 312.679 863.149 316.323H873.43V330.744H856.487V326.615C853.722 325.803 850.762 324.977 848.732 324.533L848.454 324.491V330.737H839.672C839.186 331.469 838.64 332.165 838.039 332.819C837.724 333.034 834.974 335.026 831.549 337.587V338.198H848.454V352.598ZM881.425 352.598V338.177H898.337V352.598H881.425ZM906.363 352.598V338.177H923.268V352.598H906.363ZM948.205 352.598H931.293V338.177H948.198L948.205 352.598ZM973.173 316.323V330.744H956.231V316.323H973.173ZM948.235 316.323V330.744H931.293V316.323H948.235ZM923.305 316.323V330.744H906.355V316.323H923.305ZM881.455 316.323H898.367V330.744H881.417L881.455 316.323ZM873.43 338.177V352.598H856.487V338.177H873.43Z" fill="black"/>
<path opacity="0.2" d="M837.237 333.374L836.57 333.86V341.355H837.237V333.374Z" fill="black"/>
<path opacity="0.2" d="M825.75 341.973H836.57V341.355H826.551L825.75 341.973Z" fill="black"/>
<path opacity="0.2" d="M836.57 353.834L837.237 353.729V341.973H836.57V353.834Z" fill="black"/>
<path opacity="0.2" d="M845.037 341.973V353.487L845.704 353.57V341.973H861.523V356.485H862.19V341.973H869.533V355.853L870.2 355.784V341.973H886.461V358.955L887.127 359.198V341.973H894.029V361.599L894.696 361.822V341.973H911.391V363.626H900.151L902.047 364.244H911.428V367.165L912.103 367.367V364.244H918.472V369.199L919.139 369.407V364.244H936.284V375.181L936.951 375.403V364.244H942.945V377.284L943.612 377.464V364.244H957.288L957.647 363.626H943.665V341.973H961.251V357.54L961.918 356.387V341.973H967.486V346.755C967.711 346.359 967.936 345.977 968.153 345.589V341.973H970.236L970.596 341.355H968.153V319.703H980.232C980.292 319.501 980.345 319.293 980.404 319.085H968.153V296.509H967.486V319.085H961.933V296.509H961.266V319.085H943.665V296.509H942.998V319.085H937.003V296.509H936.336V319.085H919.169V296.509H918.472V319.085H912.02V297.432L911.346 297.647V319.085H894.681V303.664L894.014 303.845V319.113H887.112V305.524L886.446 305.67V319.085H870.185V308.675L869.518 308.779V319.085H863.126C863.126 319.293 863.126 319.501 863.126 319.703H869.503V341.355H862.16V328.343L861.493 328.135V341.355H845.682V325.012C845.457 325.123 845.232 325.241 845.015 325.373V341.335H837.222V341.952L845.037 341.973ZM912.058 363.626V341.973H918.472V363.626H912.058ZM919.176 363.626V341.973H936.321V363.626H919.176ZM943.005 363.626H937.011V341.973H943.005V363.626ZM967.493 319.703V341.355H961.933V319.703H967.493ZM961.259 319.703V341.355H943.665V319.703H961.259ZM943.005 319.703V341.355H937.011V319.703H943.005ZM936.321 319.703V341.355H919.169V319.703H936.321ZM918.509 319.703V341.355H912.058V319.703H918.509ZM911.383 319.703V341.355H894.681V319.703H911.383ZM894.021 319.703V341.355H887.12V319.703H894.021ZM870.192 319.703H886.453V341.355H870.192V319.703Z" fill="black"/>
</g>
<path d="M955.189 297.127C955.189 297.127 949.397 292.179 947.171 288.466C944.946 284.753 940.937 283.101 936.486 283.101C932.035 283.101 916.254 289.083 906.205 289.292C896.157 289.5 888.394 289.083 880.601 287.848C872.808 286.613 865.015 282.074 863.231 283.101C861.448 284.128 860.773 294.441 860.773 294.441C860.773 294.441 853.872 294.032 853.655 296.71C853.437 299.389 856.322 311.562 860.106 312.388C863.891 313.214 887.937 306.197 904.415 302.075C920.892 297.953 929.352 296.301 934.47 296.301C939.588 296.301 955.189 297.127 955.189 297.127Z" fill="#9C9C9C" stroke="#263238" stroke-miterlimit="10"/>
<path d="M932.994 289.847C935.789 289.028 938.105 288.459 939.91 288.459" stroke="#263238" stroke-miterlimit="10"/>
<path d="M860.773 294.441C860.773 294.441 874.771 297.703 896.044 297.453C910.05 297.286 921.522 293.456 929.764 290.846" stroke="#263238" stroke-miterlimit="10"/>
<path d="M914.328 292.713C914.328 292.713 936.411 283.74 943.41 286.731" stroke="#263238" stroke-miterlimit="10"/>
<path d="M879.799 335.866C881.063 336.427 882.361 336.918 883.688 337.337" stroke="#263238" stroke-miterlimit="10"/>
<path d="M863.868 328.884C863.868 328.884 871.766 332.445 877.633 334.95" stroke="#263238" stroke-miterlimit="10"/>
<path d="M951.63 302.29C952.928 301.807 954.254 301.39 955.601 301.041" stroke="#263238" stroke-miterlimit="10"/>
<path d="M912.297 323.089C914.351 321.942 916.391 320.785 918.42 319.619C931.555 311.985 940.712 306.968 947.539 303.97" stroke="#263238" stroke-miterlimit="10"/>
<path d="M877.453 341.064C877.453 341.064 893.392 333.534 909.975 324.408" stroke="#263238" stroke-miterlimit="10"/>
<path d="M936.981 353.202C935.587 355.367 934.44 357.088 933.781 357.956" stroke="#263238" stroke-miterlimit="10"/>
<path d="M927.771 350.947C933.766 347.025 950.926 330.737 950.926 330.737C950.926 330.737 944.099 341.98 938.936 350.169" stroke="#263238" stroke-miterlimit="10"/>
<path d="M871.444 345.651C864.7 347.664 858.113 349.815 857.207 349.913" stroke="#263238" stroke-miterlimit="10"/>
<path d="M902.736 347.664C897.783 345.513 889.728 342.216 886.588 342.077C884.587 341.987 879.244 343.375 873.654 344.999" stroke="#263238" stroke-miterlimit="10"/>
<path d="M906.842 349.503C906.842 349.503 905.996 349.107 904.647 348.511" stroke="#263238" stroke-miterlimit="10"/>
<path d="M912.477 359.205C916.401 360.621 920.498 361.586 924.676 362.078" stroke="#263238" stroke-miterlimit="10"/>
<path d="M881.103 352.008C883.883 350.711 886.693 349.482 887.697 349.295C889.945 348.885 900.833 354.042 904.392 355.485C905.793 356.047 907.299 356.936 909.368 357.907" stroke="#263238" stroke-miterlimit="10"/>
<path d="M874.336 355.277C874.336 355.277 875.768 354.583 877.708 353.618" stroke="#263238" stroke-miterlimit="10"/>
<path d="M843.816 353.355C842.954 353.271 842.077 353.209 841.381 353.209C839.133 353.209 833.363 354.659 826.911 354.861C820.459 355.062 816.668 351.974 816.668 350.121C816.833 349.646 817.13 349.22 817.529 348.885C817.859 348.747 818.166 348.608 818.451 348.476C822.46 346.616 827.803 348.261 833.812 350.738C837.024 351.973 840.382 352.851 843.816 353.355V353.355Z" fill="#9C9C9C" stroke="#263238" stroke-miterlimit="10"/>
<path d="M874.479 283.802L869.593 291.263L882.047 285.384L874.479 283.802Z" fill="#263238" stroke="#263238" stroke-miterlimit="10"/>
<path d="M923.717 250.657C923.717 250.657 922.219 248.429 920.255 248.845C918.292 249.262 913.324 255.785 913.324 256.66C913.324 257.534 914.381 268.097 914.381 268.097C914.381 268.097 900.675 277.445 893.444 279.95C886.213 282.456 874.321 288.181 871.152 289.576C867.982 290.971 866.483 298.508 868.154 301.013C874.719 310.972 886.266 302.103 892.59 296.849C900.578 290.215 907.142 282.234 915.302 275.759C917.408 274.086 918.614 273.531 920.42 271.296C921.489 270.008 922.117 268.455 922.226 266.834C922.226 266.834 924.639 266.973 925.388 265.578C926.138 264.183 927.052 261.955 926.595 260.976C926.138 259.998 923.717 250.657 923.717 250.657Z" fill="white" stroke="#263238" stroke-miterlimit="10"/>
<path d="M924.467 253.62C924.467 253.62 921.469 251.753 920.72 252.232C919.971 252.711 914.725 256.514 914.725 256.514" stroke="#263238" stroke-miterlimit="10"/>
<path d="M925.216 256.798C925.216 256.798 922.811 255.82 921.005 256.66C919.072 257.746 917.224 258.956 915.475 260.282" stroke="#263238" stroke-miterlimit="10"/>
<path d="M925.703 259.588C924.448 259.809 923.231 260.185 922.084 260.706C920.278 261.539 916.359 263.912 916.359 263.912" stroke="#263238" stroke-miterlimit="10"/>
<path d="M922.234 266.841L922.084 265.585L924.047 264.752" stroke="#263238" stroke-miterlimit="10"/>
<path d="M914.118 352.279C914.118 352.279 911.743 351.87 911.121 347.824C910.057 340.71 906.303 338.691 904.699 338.052C903.668 337.653 902.589 337.369 901.485 337.205L906.303 335.72C906.303 335.72 907.637 335.345 911.076 337.892C914.516 340.439 915.475 344.215 917.311 344.215" fill="white"/>
<path d="M914.118 352.279C914.118 352.279 911.743 351.87 911.121 347.824C910.057 340.71 906.303 338.691 904.699 338.052C903.668 337.653 902.589 337.369 901.485 337.205L906.303 335.72C906.303 335.72 907.637 335.345 911.076 337.892C914.516 340.439 915.475 344.215 917.311 344.215" stroke="#263238" stroke-miterlimit="10"/>
<path d="M941.761 336.484C943.813 336.58 945.868 336.367 947.846 335.852C950.776 335.019 954.388 335.644 954.837 341.078C955.287 346.512 950.341 350.475 948.52 351.099L946.722 351.724V349.642C946.722 349.642 950.101 346.096 950.776 343.174C951.45 340.252 951.233 338.788 948.528 339.01C945.823 339.232 944.249 342.556 943.8 343.604C943.35 344.652 938.157 340.467 938.382 339.634C938.681 338.922 939.135 338.275 939.717 337.732C940.298 337.19 940.994 336.765 941.761 336.484V336.484Z" fill="white" stroke="#263238" stroke-miterlimit="10"/>
<path d="M944.878 342.515C942.361 339.329 942.818 335.082 942.818 335.082L931.705 334.894H930.843H929.974L918.862 335.082C918.862 335.082 919.319 339.329 916.801 342.515C914.283 345.7 910.611 350.586 915.197 356.318C919.034 361.121 928.026 361.301 930.843 361.239C933.653 361.301 942.645 361.121 946.49 356.318C951.075 350.586 947.404 345.7 944.878 342.515Z" fill="white" stroke="#263238" stroke-miterlimit="10"/>
<path d="M942.271 335.401C942.496 335.414 942.721 335.365 942.916 335.26C943.112 335.155 943.27 334.999 943.37 334.811C943.47 334.624 943.508 334.413 943.479 334.206C943.45 333.998 943.356 333.803 943.208 333.645C942.791 333.237 942.278 332.924 941.709 332.729L930.851 328.968L919.971 332.736C919.402 332.93 918.889 333.244 918.472 333.652C918.324 333.81 918.23 334.005 918.201 334.213C918.172 334.42 918.21 334.631 918.31 334.818C918.41 335.006 918.568 335.162 918.763 335.267C918.959 335.372 919.183 335.421 919.409 335.408L942.271 335.401Z" fill="white" stroke="#263238" stroke-miterlimit="10"/>
<path d="M930.844 330.411C932.491 330.411 933.826 329.174 933.826 327.649C933.826 326.124 932.491 324.887 930.844 324.887C929.196 324.887 927.861 326.124 927.861 327.649C927.861 329.174 929.196 330.411 930.844 330.411Z" fill="white" stroke="#263238" stroke-miterlimit="10"/>
<path d="M918.472 334.818C918.593 334.933 918.737 335.025 918.897 335.087C919.056 335.149 919.228 335.18 919.401 335.179H942.263C942.475 335.182 942.684 335.134 942.87 335.04C942.874 335.001 942.874 334.961 942.87 334.922C942.805 334.473 942.553 334.065 942.168 333.786C941.783 333.506 941.296 333.376 940.81 333.423C940.36 333.836 939.753 334.068 939.12 334.068C938.487 334.068 937.879 333.836 937.43 333.423C936.981 333.836 936.374 334.068 935.74 334.068C935.107 334.068 934.5 333.836 934.051 333.423C933.735 333.415 933.422 333.468 933.13 333.579C932.838 333.69 932.575 333.857 932.357 334.068C931.908 333.655 931.301 333.423 930.667 333.423C930.034 333.423 929.427 333.655 928.978 334.068C928.527 333.655 927.919 333.423 927.284 333.423C926.65 333.423 926.041 333.655 925.591 334.068C925.141 333.655 924.534 333.423 923.901 333.423C923.268 333.423 922.66 333.655 922.211 334.068C921.994 333.857 921.73 333.69 921.439 333.579C921.147 333.468 920.833 333.415 920.518 333.423C920.052 333.386 919.588 333.507 919.211 333.764C918.835 334.02 918.572 334.395 918.472 334.818V334.818Z" fill="#90CAF9"/>
<path d="M927.666 338.364C927.666 338.364 925.98 334.131 923.612 336.976C922.683 338.087 925.111 339.489 926.318 340.446C927.139 341.199 927.773 342.108 928.176 343.111C928.662 341.526 928.48 339.83 927.666 338.364V338.364Z" fill="#90CAF9"/>
<path d="M925.965 341.182C925.965 341.182 924.272 336.949 921.904 339.794C920.975 340.897 923.403 342.299 924.609 343.264C925.429 344.018 926.063 344.927 926.467 345.929C926.954 344.345 926.774 342.649 925.965 341.182V341.182Z" fill="#90CAF9"/>
<path d="M924.467 345.096C924.467 345.096 921.866 341.286 920.18 344.499C919.521 345.755 922.226 346.658 923.597 347.352C924.569 347.93 925.392 348.697 926.01 349.6C926.123 347.973 925.572 346.365 924.467 345.096V345.096Z" fill="#90CAF9"/>
<path d="M923.612 348.809C923.612 348.809 919.791 346.033 919.349 349.565C919.176 350.954 922.061 350.953 923.597 351.203C924.723 351.454 925.776 351.927 926.685 352.591C926.207 351.019 925.111 349.67 923.612 348.809V348.809Z" fill="#90CAF9"/>
<path d="M928.303 347.22C928.303 347.22 929.75 349.739 931.54 347.955C932.245 347.261 930.274 346.484 929.292 345.943C928.652 345.543 928.123 345.008 927.749 344.381C927.588 344.861 927.555 345.369 927.651 345.863C927.748 346.358 927.971 346.823 928.303 347.22V347.22Z" fill="#90CAF9"/>
<path d="M937.505 339.364C937.505 339.364 935.782 337.004 934.2 338.947C933.586 339.711 935.632 340.294 936.643 340.731C937.322 341.064 937.907 341.539 938.352 342.119C938.456 341.63 938.434 341.126 938.287 340.647C938.14 340.168 937.872 339.728 937.505 339.364V339.364Z" fill="#90CAF9"/>
<path d="M941.214 340.807C941.214 340.807 941.859 338.031 939.251 338.309C938.224 338.427 939.191 340.197 939.551 341.182C939.761 341.859 939.795 342.573 939.648 343.264C940.102 343 940.48 342.639 940.753 342.211C941.025 341.784 941.183 341.303 941.214 340.807Z" fill="#90CAF9"/>
<path d="M927.959 350.822C927.959 350.822 929.405 353.341 931.203 351.564C931.9 350.87 929.937 350.086 928.955 349.545C928.336 349.145 927.826 348.618 927.464 348.004C927.299 348.476 927.258 348.978 927.344 349.468C927.43 349.958 927.641 350.422 927.959 350.822V350.822Z" fill="#90CAF9"/>
<path d="M928.963 355.083C928.963 355.083 931.158 357.082 932.29 354.882C932.732 354.021 930.604 353.827 929.51 353.584C928.771 353.381 928.095 353.017 927.539 352.522C927.538 353.023 927.667 353.517 927.915 353.963C928.162 354.408 928.522 354.792 928.963 355.083V355.083Z" fill="#90CAF9"/>
<path d="M931.323 358.296C931.323 358.296 934.515 359.497 935.984 356.644C936.561 355.527 933.556 356.242 932.013 356.45C931.057 356.569 930.084 356.469 929.18 356.158C929.2 356.694 929.428 357.205 929.821 357.597C930.215 357.99 930.748 358.238 931.323 358.296V358.296Z" fill="#90CAF9"/>
<path d="M923.995 352.8C923.995 352.8 919.678 350.718 919.971 354.285C920.083 355.673 922.915 355.194 924.467 355.152C925.619 355.198 926.746 355.475 927.771 355.964C926.983 354.51 925.636 353.381 923.995 352.8V352.8Z" fill="#90CAF9"/>
<path d="M925.965 356.54C925.965 356.54 921.852 355.152 923.283 357.824C923.845 358.872 925.913 358.386 927.134 358.296C928.118 358.294 929.095 358.454 930.019 358.768C928.904 357.707 927.505 356.938 925.965 356.54V356.54Z" fill="#90CAF9"/>
<path d="M928.468 358.726C928.468 358.726 924.234 357.88 926.22 360.08C927.014 360.94 928.858 360.336 929.967 360.149C930.922 360.062 931.885 360.116 932.822 360.309C931.516 359.487 930.029 358.946 928.468 358.726V358.726Z" fill="#90CAF9"/>
<path d="M941.626 350.419C941.626 350.419 943.575 348.386 942.278 347.289C940.982 346.193 938.876 347.289 938.876 347.289C938.876 347.289 940.008 344.937 938.554 343.215C937.1 341.494 934.5 341.182 932.395 340.085C930.289 338.989 928.835 335.075 928.506 336.171C928.176 337.268 928.506 338.205 929.967 339.641C931.428 341.078 933.526 342.771 933.526 342.771C933.526 342.771 931.098 341.522 931.75 342.771C932.402 344.02 934.822 344.34 934.822 344.34C934.822 344.34 931.75 345.124 933.204 345.728C933.857 346.057 934.571 346.268 935.309 346.352C935.309 346.352 933.526 346.824 934.343 347.74C935.16 348.656 936.928 348.677 936.928 348.677C936.928 348.677 934.013 350.065 932.882 348.205C931.75 346.345 930.634 342.41 929.48 341.626C929.48 341.626 930.132 343.507 930.941 345.388C931.75 347.268 932.559 349.933 933.526 350.246C934.042 350.435 934.605 350.488 935.152 350.398C935.152 350.398 935.309 350.87 933.691 351.183C932.072 351.495 930.611 349.482 930.461 348.698C930.311 347.914 931.758 352.772 933.054 352.772C934.35 352.772 938.232 351.203 938.232 351.203C938.232 351.203 939.371 352.46 940.015 352.591C940.838 352.611 941.658 352.506 942.443 352.279C942.443 352.279 943.582 353.063 943.904 352.439C944.105 351.999 944.214 351.528 944.227 351.051H945.523L945.688 349.795L947.629 349.954C947.115 349.035 946.462 348.189 945.688 347.442C944.391 346.193 944.069 349.17 943.252 349.482C942.67 349.729 942.123 350.044 941.626 350.419V350.419Z" fill="#90CAF9"/>
<path d="M944.069 342.452C944.069 342.452 941.874 341.987 941.199 343.236C940.789 343.992 940.448 344.779 940.18 345.589C940.18 345.589 941.364 344.02 942.885 344.02C943.752 344.001 944.596 344.281 945.253 344.805L944.069 342.452Z" fill="#90CAF9"/>
<path d="M946.609 352.612C946.609 352.612 946.609 353.709 943.904 354C941.85 354.119 939.789 353.908 937.812 353.376C938.142 354.165 938.665 354.872 939.34 355.443C940.015 356.014 940.823 356.432 941.701 356.665C944.579 357.311 947.539 355.43 946.609 352.612Z" fill="#90CAF9"/>
<path d="M937.475 355.589C937.475 355.589 937.812 357.47 936.966 358.407C936.135 359.144 935.161 359.728 934.096 360.128C934.096 360.128 936.801 358.254 937.475 355.589Z" fill="#90CAF9"/>
<path d="M859.807 338.51C859.807 338.51 859.867 337.587 857.214 337.31C854.561 337.032 845.667 335.498 845.539 334.603C845.412 333.708 845.322 332.812 845.322 332.812C845.322 332.812 842.535 331.64 844.056 330.848C845.032 330.366 846.127 330.127 847.233 330.154C847.233 330.154 845.367 328.565 847.488 327.378C849.608 326.192 850.702 326.983 850.702 326.983C850.702 326.983 849.316 324.124 851.886 323.811C854.456 323.499 855.506 323.978 855.506 323.978C855.506 323.978 854.569 321.972 857.139 321.66C859.709 321.347 860.204 322.493 860.204 322.493C860.204 322.493 860.676 321.23 862.692 321.583C863.247 321.661 863.772 321.868 864.218 322.185C864.663 322.502 865.015 322.918 865.239 323.395C865.239 323.395 865.989 321.792 868.731 322.666C871.474 323.541 869.75 325.269 869.75 325.269C869.75 325.269 872.8 323.686 874.336 325.31C875.872 326.934 874.291 327.482 874.291 327.482C874.291 327.482 878.038 328.496 878.27 329.981C878.336 330.402 878.279 330.832 878.105 331.226C877.931 331.621 877.647 331.964 877.281 332.222C877.015 333.057 876.482 333.797 875.754 334.346C875.025 334.894 874.133 335.226 873.197 335.297L866.611 335.783L854.254 337.865" fill="#90CAF9"/>
<path d="M859.807 338.51C859.807 338.51 859.867 337.587 857.214 337.31C854.561 337.032 845.667 335.498 845.539 334.603C845.412 333.708 845.322 332.812 845.322 332.812C845.322 332.812 842.535 331.64 844.056 330.848C845.032 330.366 846.127 330.127 847.233 330.154C847.233 330.154 845.367 328.565 847.488 327.378C849.608 326.192 850.702 326.983 850.702 326.983C850.702 326.983 849.316 324.124 851.886 323.811C854.456 323.499 855.506 323.978 855.506 323.978C855.506 323.978 854.569 321.972 857.139 321.66C859.709 321.347 860.204 322.493 860.204 322.493C860.204 322.493 860.676 321.23 862.692 321.583C863.247 321.661 863.772 321.868 864.218 322.185C864.663 322.502 865.015 322.918 865.239 323.395C865.239 323.395 865.989 321.792 868.731 322.666C871.474 323.541 869.75 325.269 869.75 325.269C869.75 325.269 872.8 323.686 874.336 325.31C875.872 326.934 874.291 327.482 874.291 327.482C874.291 327.482 878.038 328.496 878.27 329.981C878.336 330.402 878.279 330.832 878.105 331.226C877.931 331.621 877.647 331.964 877.281 332.222C877.015 333.057 876.482 333.797 875.754 334.346C875.025 334.894 874.133 335.226 873.197 335.297L866.611 335.783L854.254 337.865" stroke="#263238" stroke-miterlimit="10"/>
<path d="M857.214 337.309C857.214 337.309 850.073 336.053 850.725 333.374C851.377 330.696 854.943 333.104 854.943 333.104C854.943 333.104 852.021 327.996 854.292 327.996C856.562 327.996 858.181 331.299 858.181 331.299C858.181 331.299 855.588 325.9 858.51 326.497C861.433 327.094 863.696 330.404 863.696 330.404C863.696 330.404 864.018 327.101 865.636 327.698C867.255 328.294 866.611 331.001 866.611 331.001C866.611 331.001 868.109 328.683 869.975 330.744C871.841 332.805 865.966 337.608 865.966 337.608" fill="#90CAF9"/>
<path d="M857.214 337.309C857.214 337.309 850.073 336.053 850.725 333.374C851.377 330.696 854.943 333.104 854.943 333.104C854.943 333.104 852.021 327.996 854.292 327.996C856.562 327.996 858.181 331.299 858.181 331.299C858.181 331.299 855.588 325.9 858.51 326.497C861.433 327.094 863.696 330.404 863.696 330.404C863.696 330.404 864.018 327.101 865.636 327.698C867.255 328.294 866.611 331.001 866.611 331.001C866.611 331.001 868.109 328.683 869.975 330.744C871.841 332.805 865.966 337.608 865.966 337.608" stroke="#263238" stroke-miterlimit="10"/>
<path d="M871.406 348.649C871.408 350.177 871.293 351.703 871.062 353.216C870.447 357.248 869.023 360.711 867.128 363.043H855.663C853.767 360.711 852.351 357.248 851.736 353.216C851.505 351.703 851.39 350.177 851.392 348.649C851.392 348.129 851.392 347.608 851.392 347.102C851.392 346.838 851.392 346.574 851.444 346.311C851.504 345.492 851.601 344.687 851.721 343.909L851.834 343.257C851.886 342.973 851.939 342.688 851.999 342.41L852.111 341.932C852.111 341.932 852.111 341.897 852.111 341.883C852.201 341.508 852.298 341.14 852.403 340.78C852.561 340.238 852.725 339.718 852.913 339.211C853.283 338.176 853.744 337.171 854.292 336.206H868.416C868.964 337.171 869.426 338.176 869.795 339.211C869.983 339.718 870.147 340.238 870.305 340.78C870.41 341.14 870.507 341.508 870.597 341.883C870.597 341.883 870.597 341.918 870.597 341.932L870.709 342.41C870.762 342.688 870.822 342.973 870.874 343.257L870.987 343.909C871.107 344.687 871.204 345.492 871.264 346.311C871.264 346.574 871.301 346.838 871.316 347.102C871.391 347.608 871.406 348.129 871.406 348.649Z" fill="#263238" stroke="#263238" stroke-miterlimit="10"/>
<path d="M871.406 348.649C871.408 350.177 871.293 351.703 871.062 353.216H851.736C851.505 351.703 851.39 350.177 851.392 348.649C851.392 348.129 851.392 347.608 851.392 347.102C851.392 346.838 851.392 346.574 851.444 346.311H871.279C871.279 346.574 871.316 346.838 871.331 347.102C871.391 347.608 871.406 348.129 871.406 348.649Z" fill="white" stroke="#263238" stroke-miterlimit="10"/>
<path d="M870.649 341.932H852.148C852.148 341.932 852.148 341.897 852.148 341.883C852.238 341.508 852.336 341.14 852.441 340.779C852.598 340.238 852.763 339.718 852.95 339.211H869.84C870.028 339.718 870.192 340.238 870.35 340.779C870.455 341.14 870.552 341.508 870.642 341.883C870.642 341.883 870.649 341.918 870.649 341.932Z" fill="white" stroke="#263238" stroke-miterlimit="10"/>
<path d="M825.802 367.207L823.809 410.693H826.806L834.794 366.742L825.802 367.207Z" fill="white" stroke="#263238" stroke-miterlimit="10"/>
<path d="M965.425 367.207L967.418 410.693H964.421L956.433 366.742L965.425 367.207Z" fill="white" stroke="#263238" stroke-miterlimit="10"/>
<path d="M967.681 360.975H821.808V368.595H967.681V360.975Z" fill="#263238" stroke="#263238" stroke-miterlimit="10"/>
<path d="M676 650C687.3 672.5 699 691.8 693.6 710.4C688.2 728.9 665.6 746.7 646.3 744.8C627.1 742.8 611.2 721.2 599.5 699C587.8 676.8 580.2 654.1 588.2 633.6C596.1 613 619.6 594.6 636.7 598.3C653.9 601.9 664.7 627.5 676 650Z" fill="#F2F4F8"/>
<path d="M707.525 489.419C721.776 497.856 737.348 507.943 740.745 521.057C744.237 534.17 735.555 550.218 726.4 566.266C717.152 582.223 707.431 598.271 693.086 604.506C678.741 610.742 659.677 607.166 641.935 600.747C624.287 594.236 607.866 584.79 598.712 570.576C589.463 556.454 587.575 537.655 594.37 523.808C601.071 509.961 616.643 501.065 630.233 492.537C643.917 484.009 655.525 475.755 667.888 475.022C680.251 474.196 693.18 480.982 707.525 489.419Z" fill="#F2F4F8"/>
<path d="M637.279 513.703C637.279 545.025 593.534 571.681 555.356 571.681C517.377 571.681 485.364 545.025 485.364 513.703C485.364 482.381 517.377 446.661 555.356 446.661C593.534 446.661 637.279 482.381 637.279 513.703Z" fill="#F2F4F8"/>
<path d="M403.76 509.387C423.004 527 439.701 547.703 437.579 567.17C435.456 586.637 414.514 604.868 400.081 623.099C385.648 641.176 378.007 659.098 365.697 664.505C353.386 669.913 336.548 662.96 312.776 660.488C289.004 658.016 258.44 660.179 238.913 644.729C219.527 629.434 211.179 596.68 219.386 570.569C227.451 544.459 251.789 524.992 274.995 508.151C298.06 491.311 319.709 477.097 341.359 477.251C363.008 477.406 384.658 491.929 403.76 509.387Z" fill="#F2F4F8"/>
<path d="M489.516 509.525C500.416 523.825 504.616 541.325 505.116 559.325C505.516 577.225 502.316 595.725 491.416 607.825C480.616 619.925 462.116 625.825 447.716 621.825C433.216 617.825 422.816 604.025 415.416 591.825C407.916 579.725 403.516 569.325 402.316 557.625C401.116 546.025 403.216 533.225 410.616 518.825C418.116 504.525 430.916 488.625 446.016 486.325C461.216 483.925 478.716 495.125 489.516 509.525Z" fill="#F2F4F8"/>
<path d="M288.22 518.154C308.027 535.306 330.257 548.304 326.125 560.632C322.135 572.96 291.782 584.618 275.68 597.348C259.577 610.078 257.44 623.88 246.467 637.682C235.495 651.484 215.545 665.286 196.307 664.348C177.07 663.276 158.403 647.598 156.123 629.776C153.843 611.954 167.95 592.256 172.083 571.084C176.358 549.912 170.943 527.266 179.492 508.104C188.042 488.942 210.842 473.398 230.792 476.346C250.885 479.294 268.412 500.868 288.22 518.154Z" fill="#F2F4F8"/>
<path d="M180.53 517.161C187.171 552.41 138.165 583.369 88.4719 612.463C38.7789 641.557 -11.3721 668.786 -37.478 656.29C-63.584 643.795 -65.416 591.575 -46.867 542.898C-28.318 494.222 10.8409 448.902 61.4499 445.732C112.059 442.748 174.118 482.099 180.53 517.161Z" fill="#F2F4F8"/>
</g>
<defs>
<clipPath id="clip0_10:2">
<rect width="1124" height="630" fill="white"/>
</clipPath>
</defs>
</svg>
