<svg xmlns="http://www.w3.org/2000/svg" viewBox="0 0 500 500"><g id="freepik--background-complete--inject-5"><path d="M72.59,295.92l-13.12.28-6.66.11c-2.23,0-4.47,0-6.7.05h-.44v-.45l-.06-11.19v-.5h.5l13.24.06c4.42,0,8.83.11,13.24.16h.28v.27c0,1.9-.09,3.78-.13,5.65Zm0,0-.14-5.66c0-1.86-.11-3.7-.13-5.53l.27.27c-4.41.05-8.82.16-13.24.16l-13.24.07.5-.5,0,11.19-.45-.45c2.18,0,4.36,0,6.55.06l6.58.11Z" style="fill:#ebebeb"></path><path d="M57.82,310l-13.12.28-6.66.11c-2.23,0-4.47,0-6.7.05H30.9V310l-.06-11.19v-.51h.5l13.24.06c4.41,0,8.83.11,13.24.16h.28v.27c0,1.9-.08,3.78-.13,5.65Zm0,0-.14-5.66c0-1.86-.11-3.7-.13-5.53l.27.27c-4.41.05-8.83.16-13.24.16l-13.24.07.5-.5L31.79,310l-.45-.45c2.18,0,4.36,0,6.55.06l6.58.11Z" style="fill:#ebebeb"></path><path d="M293.17,199.57l-13.12.28-6.66.11c-2.23,0-4.47,0-6.7.06h-.44v-.45l-.06-11.19v-.5h.5l13.24.06c4.42,0,8.83.12,13.24.17h.28v.27c0,1.9-.09,3.79-.14,5.66Zm0,0-.14-5.65c0-1.87-.11-3.71-.13-5.54l.27.27c-4.41.06-8.82.16-13.24.17l-13.24.06.5-.5-.05,11.19-.45-.44c2.18,0,4.36,0,6.55.05l6.58.11Z" style="fill:#ebebeb"></path><path d="M278.4,213.68l-13.12.28-6.66.11c-2.23.05-4.47,0-6.7.06h-.44v-.45l-.06-11.19V202h.5l13.24.06c4.41,0,8.83.12,13.24.17h.28v.27c0,1.9-.08,3.79-.13,5.65Zm0,0-.14-5.65c-.05-1.87-.11-3.71-.13-5.54l.27.27c-4.41.06-8.83.16-13.24.17l-13.24.06.5-.5,0,11.19-.45-.44c2.18,0,4.36,0,6.55,0l6.58.11Z" style="fill:#ebebeb"></path><path d="M263.69,199.57l-13.13.28-6.66.11c-2.22,0-4.46,0-6.69.06h-.45v-.45l0-11.19v-.5h.5l13.24.06c4.41,0,8.82.12,13.24.17H264v.27c0,1.9-.09,3.79-.13,5.66Zm0,0-.14-5.65c-.05-1.87-.12-3.71-.14-5.54l.28.27c-4.42.06-8.83.16-13.24.17l-13.24.06.5-.5-.06,11.19-.44-.44c2.18,0,4.35,0,6.54.05l6.58.11Z" style="fill:#ebebeb"></path><path d="M468.66,310l-13.13.28-6.66.11c-2.22,0-4.46,0-6.69.05h-.45V310l-.05-11.19v-.51h.5l13.24.06c4.41,0,8.83.11,13.24.16h.27v.27c0,1.9-.08,3.78-.13,5.65Zm0,0-.14-5.66c0-1.86-.12-3.7-.13-5.53l.27.27c-4.41.05-8.83.16-13.24.16l-13.24.07.5-.5L442.62,310l-.44-.45c2.18,0,4.36,0,6.54.06l6.58.11Z" style="fill:#ebebeb"></path><path d="M453.89,56.92l-13.13.27-6.66.12c-2.22,0-4.46,0-6.69,0H427v-.44l0-11.19v-.51h.51l13.24.06c4.41,0,8.82.11,13.24.16h.27v.27c0,1.89-.09,3.78-.13,5.65Zm0,0-.14-5.66c-.05-1.86-.12-3.7-.14-5.53l.28.27c-4.42,0-8.83.16-13.24.16l-13.24.07.5-.5-.06,11.19-.44-.45c2.18,0,4.35,0,6.54.05l6.58.12Z" style="fill:#ebebeb"></path><path d="M468.66,71l-13.13.27-6.66.12c-2.22,0-4.46,0-6.69,0h-.45V71l-.05-11.19v-.51h.5l13.24.06c4.41,0,8.83.11,13.24.16h.27v.27c0,1.89-.08,3.78-.13,5.65Zm0,0-.14-5.66c0-1.86-.12-3.7-.13-5.53l.27.27c-4.41,0-8.83.16-13.24.16l-13.24.06.5-.49L442.62,71l-.44-.45c2.18,0,4.36,0,6.54,0l6.58.12Z" style="fill:#ebebeb"></path><path d="M72.59,56.92l-13.12.27-6.66.12c-2.23,0-4.47,0-6.7,0h-.44v-.44l-.06-11.19v-.51h.5l13.24.06c4.42,0,8.83.11,13.24.16h.28v.27c0,1.89-.09,3.78-.13,5.65Zm0,0-.14-5.66c0-1.86-.11-3.7-.13-5.53l.27.27c-4.41,0-8.82.16-13.24.16l-13.24.07.5-.5,0,11.19-.45-.45c2.18,0,4.36,0,6.55.05l6.58.12Z" style="fill:#ebebeb"></path><rect x="173.63" y="85.57" width="59.81" height="72.55" style="fill:#dbdbdb"></rect><rect x="180.47" y="92.19" width="46.14" height="59.31" style="fill:#fff"></rect><rect x="180.47" y="92.19" width="1.8" height="59.31" style="fill:#c7c7c7"></rect><rect x="233.44" y="85.57" width="1.8" height="72.55" style="fill:#c7c7c7"></rect><rect x="195.93" y="105.91" width="10.88" height="32.41" style="fill:#dbdbdb"></rect><path d="M220.7,116.75h-30V99.87h30Zm-29-1h28V100.87h-28Z" style="fill:#ebebeb"></path><rect x="85.22" y="65.69" width="59.81" height="72.55" style="fill:#dbdbdb"></rect><rect x="92.06" y="72.31" width="46.14" height="59.31" style="fill:#fff"></rect><rect x="92.06" y="72.31" width="1.8" height="59.31" style="fill:#c7c7c7"></rect><rect x="145.03" y="65.69" width="1.8" height="72.55" style="fill:#c7c7c7"></rect><rect x="110.66" y="87.64" width="9.32" height="23.57" style="fill:#ebebeb"></rect><path d="M130.29,118.71h-26V101.46h26Zm-25-1h24V102.46h-24Z" style="fill:#dbdbdb"></path><rect x="285.28" y="47.94" width="174.76" height="233.06" style="fill:#dbdbdb"></rect><rect x="293.56" y="57.27" width="75.56" height="103.66" style="fill:#a6a6a6"></rect><rect x="376.19" y="57.27" width="75.56" height="103.66" style="fill:#a6a6a6"></rect><rect x="293.56" y="168" width="75.56" height="103.66" style="fill:#a6a6a6"></rect><rect x="376.19" y="168" width="75.56" height="103.66" style="fill:#a6a6a6"></rect><polygon points="413.97 96.38 415.21 98.89 417.99 99.3 415.98 101.25 416.45 104.02 413.97 102.71 411.49 104.02 411.96 101.25 409.95 99.3 412.73 98.89 413.97 96.38" style="fill:#fff"></polygon><polygon points="355.02 134.38 356.26 136.9 359.04 137.3 357.03 139.26 357.5 142.02 355.02 140.72 352.53 142.02 353.01 139.26 351 137.3 353.78 136.9 355.02 134.38" style="fill:#fff"></polygon><polygon points="331.35 204.56 332.59 207.08 335.37 207.49 333.36 209.44 333.83 212.21 331.35 210.9 328.86 212.21 329.34 209.44 327.33 207.49 330.1 207.08 331.35 204.56" style="fill:#fff"></polygon><polygon points="400.77 142.78 401.54 144.34 403.25 144.59 402.01 145.8 402.31 147.51 400.77 146.7 399.23 147.51 399.53 145.8 398.29 144.59 400 144.34 400.77 142.78" style="fill:#fff"></polygon><polygon points="329 141.9 329.77 143.46 331.49 143.71 330.25 144.92 330.54 146.63 329 145.82 327.47 146.63 327.76 144.92 326.52 143.71 328.24 143.46 329 141.9" style="fill:#fff"></polygon><polygon points="388.26 258.68 389.03 260.24 390.75 260.49 389.51 261.7 389.8 263.4 388.26 262.6 386.73 263.4 387.02 261.7 385.78 260.49 387.5 260.24 388.26 258.68" style="fill:#fff"></polygon><polygon points="412.24 193.96 413.01 195.51 414.73 195.76 413.48 196.97 413.78 198.68 412.24 197.87 410.71 198.68 411 196.97 409.76 195.76 411.47 195.51 412.24 193.96" style="fill:#fff"></polygon><polygon points="361.52 79.53 362.29 81.09 364 81.34 362.76 82.55 363.06 84.26 361.52 83.45 359.99 84.26 360.28 82.55 359.04 81.34 360.75 81.09 361.52 79.53" style="fill:#fff"></polygon><path d="M359.7,105.32a18.48,18.48,0,1,1-20.14-27.21,17.29,17.29,0,1,0,20.14,27.21Z" style="fill:#fff"></path><rect x="285.28" y="47.94" width="36" height="293.9" style="fill:#ebebeb"></rect><polygon points="314.45 63.79 314.73 99.84 314.83 135.89 315.02 207.99 314.83 280.09 314.74 292.43 314.45 312.67 314.18 292.43 314.07 280.09 313.88 207.99 314.08 135.89 314.18 99.84 314.45 63.79" style="fill:#fff"></polygon><polygon points="297.93 72.15 298.2 104.34 298.36 136.53 298.5 200.91 298.36 265.29 298.2 281.67 297.93 305.95 297.64 281.67 297.49 265.29 297.35 200.91 297.49 136.53 297.65 104.34 297.93 72.15" style="fill:#fff"></polygon><polygon points="306.19 79.75 306.47 117.44 306.57 155.13 306.76 230.52 306.57 290.09 306.47 304.07 306.19 341.76 305.91 304.07 305.81 290.09 305.62 230.52 305.81 155.13 305.91 117.44 306.19 79.75" style="fill:#fff"></polygon><polygon points="291.78 65.69 292.06 105.14 292.16 144.59 292.35 223.49 292.16 286.58 292.06 318.12 291.78 341.76 291.5 318.12 291.4 286.58 291.21 223.49 291.4 144.59 291.5 105.14 291.78 65.69" style="fill:#fff"></polygon><rect x="424.04" y="47.94" width="36" height="293.9" transform="translate(884.07 389.77) rotate(180)" style="fill:#ebebeb"></rect><polygon points="430.86 63.79 431.14 99.84 431.24 135.89 431.43 207.99 431.24 280.09 431.14 292.43 430.86 312.67 430.58 292.43 430.48 280.09 430.29 207.99 430.48 135.89 430.58 99.84 430.86 63.79" style="fill:#fff"></polygon><polygon points="447.39 72.15 447.67 104.34 447.83 136.53 447.96 200.91 447.83 265.29 447.67 281.67 447.39 305.95 447.11 281.67 446.95 265.29 446.82 200.91 446.95 136.53 447.12 104.34 447.39 72.15" style="fill:#fff"></polygon><polygon points="439.13 79.75 439.4 117.44 439.51 155.13 439.7 230.52 439.51 290.09 439.41 304.07 439.13 341.76 438.85 304.07 438.75 290.09 438.56 230.52 438.75 155.13 438.85 117.44 439.13 79.75" style="fill:#fff"></polygon><polygon points="453.54 65.69 453.82 105.14 453.92 144.59 454.11 223.49 453.92 286.58 453.82 318.12 453.54 341.76 453.26 318.12 453.16 286.58 452.97 223.49 453.16 144.59 453.26 105.14 453.54 65.69" style="fill:#fff"></polygon></g><g id="freepik--Lamp--inject-5"><rect x="57.81" y="446.57" width="58.19" height="6.61" style="fill:#c7c7c7"></rect><rect x="83.46" y="127.19" width="6.9" height="319.38" style="fill:#c7c7c7"></rect><rect x="83.46" y="127.19" width="6.9" height="34.93" style="fill:#a6a6a6"></rect><polygon points="123.4 147.42 50.4 147.42 55.71 129.99 55.9 129.37 71.33 78.64 102.47 78.64 117.92 129.38 117.92 129.39 118.09 129.97 123.4 147.42" style="fill:#407BFF"></polygon><path d="M73.92,90.37a.49.49,0,1,1-.49-.49A.49.49,0,0,1,73.92,90.37Zm8.5-.49a.49.49,0,1,0,.49.49A.49.49,0,0,0,82.42,89.88Zm9,0a.49.49,0,1,0,.49.49A.49.49,0,0,0,91.41,89.88Zm9,0a.49.49,0,1,0,.5.49A.49.49,0,0,0,100.39,89.88Zm-22.47-6.3a.49.49,0,1,0,.49.49A.49.49,0,0,0,77.92,83.58Zm9,0a.49.49,0,1,0,.49.49A.49.49,0,0,0,86.91,83.58Zm9,0a.49.49,0,1,0,.49.49A.49.49,0,0,0,95.9,83.58ZM64.44,103a.49.49,0,1,0,.49.49A.49.49,0,0,0,64.44,103Zm9,0a.49.49,0,1,0,.49.49A.49.49,0,0,0,73.43,103Zm9,0a.49.49,0,1,0,.49.49A.49.49,0,0,0,82.42,103Zm9,0a.49.49,0,1,0,.49.49A.49.49,0,0,0,91.41,103Zm9,0a.49.49,0,1,0,.5.49A.49.49,0,0,0,100.39,103Zm9,0a.49.49,0,1,0,.49.49A.49.49,0,0,0,109.38,103Zm-40.45-6.3a.49.49,0,1,0,.49.49A.49.49,0,0,0,68.93,96.65Zm9,0a.49.49,0,1,0,.49.49A.49.49,0,0,0,77.92,96.65Zm9,0a.49.49,0,1,0,.49.49A.49.49,0,0,0,86.91,96.65Zm9,0a.49.49,0,1,0,.49.49A.49.49,0,0,0,95.9,96.65Zm9,0a.49.49,0,1,0,.49.49A.49.49,0,0,0,104.89,96.65ZM64.44,116a.49.49,0,1,0,.49.49A.49.49,0,0,0,64.44,116Zm9,0a.49.49,0,1,0,.49.49A.49.49,0,0,0,73.43,116Zm9,0a.49.49,0,1,0,.49.49A.49.49,0,0,0,82.42,116Zm9,0a.49.49,0,1,0,.49.49A.49.49,0,0,0,91.41,116Zm9,0a.49.49,0,1,0,.5.49A.49.49,0,0,0,100.39,116Zm9,0a.49.49,0,1,0,.49.49A.49.49,0,0,0,109.38,116Zm-40.45-6.3a.49.49,0,0,0-.49.49.49.49,0,1,0,1,0A.49.49,0,0,0,68.93,109.72Zm9,0a.49.49,0,0,0-.49.49.49.49,0,1,0,1,0A.49.49,0,0,0,77.92,109.72Zm9,0a.49.49,0,0,0-.49.49.49.49,0,0,0,1,0A.49.49,0,0,0,86.91,109.72Zm9,0a.49.49,0,0,0-.49.49.49.49,0,1,0,1,0A.49.49,0,0,0,95.9,109.72Zm9,0a.49.49,0,0,0-.49.49.49.49,0,0,0,1,0A.49.49,0,0,0,104.89,109.72Zm-49,19.65-.19.62a.47.47,0,0,0,.23-.42A.51.51,0,0,0,55.9,129.37Zm8.54-.28a.49.49,0,1,0,.49.49A.49.49,0,0,0,64.44,129.09Zm9,0a.49.49,0,1,0,.49.49A.49.49,0,0,0,73.43,129.09Zm9,0a.49.49,0,1,0,.49.49A.49.49,0,0,0,82.42,129.09Zm9,0a.49.49,0,1,0,.49.49A.49.49,0,0,0,91.41,129.09Zm9,0a.49.49,0,1,0,.5.49A.49.49,0,0,0,100.39,129.09Zm9,0a.49.49,0,1,0,.49.49A.49.49,0,0,0,109.38,129.09Zm8.54.3a.57.57,0,0,0,0,.18.45.45,0,0,0,.2.4Zm-58-6.6a.5.5,0,1,0,.5.5A.49.49,0,0,0,59.94,122.79Zm9,0a.5.5,0,1,0,.49.5A.49.49,0,0,0,68.93,122.79Zm9,0a.5.5,0,1,0,.49.5A.49.49,0,0,0,77.92,122.79Zm9,0a.5.5,0,1,0,.49.5A.49.49,0,0,0,86.91,122.79Zm9,0a.5.5,0,1,0,.49.5A.49.49,0,0,0,95.9,122.79Zm9,0a.5.5,0,1,0,.49.5A.49.49,0,0,0,104.89,122.79Zm9,0a.5.5,0,1,0,.49.5A.49.49,0,0,0,113.88,122.79ZM55.45,142.16a.49.49,0,1,0,.49.49A.49.49,0,0,0,55.45,142.16Zm9,0a.49.49,0,1,0,.49.49A.49.49,0,0,0,64.44,142.16Zm9,0a.49.49,0,1,0,.49.49A.49.49,0,0,0,73.43,142.16Zm9,0a.49.49,0,1,0,.49.49A.49.49,0,0,0,82.42,142.16Zm9,0a.49.49,0,1,0,.49.49A.49.49,0,0,0,91.41,142.16Zm9,0a.49.49,0,1,0,.5.49A.49.49,0,0,0,100.39,142.16Zm9,0a.49.49,0,1,0,.49.49A.49.49,0,0,0,109.38,142.16Zm9,0a.49.49,0,1,0,.49.49A.49.49,0,0,0,118.37,142.16Zm-58.43-6.29a.48.48,0,0,0-.49.49.5.5,0,1,0,.49-.49Zm9,0a.48.48,0,0,0-.49.49.49.49,0,0,0,1,0A.48.48,0,0,0,68.93,135.87Zm9,0a.48.48,0,0,0-.49.49.49.49,0,1,0,1,0A.48.48,0,0,0,77.92,135.87Zm9,0a.48.48,0,0,0-.49.49.49.49,0,0,0,1,0A.48.48,0,0,0,86.91,135.87Zm9,0a.48.48,0,0,0-.49.49.49.49,0,0,0,1,0A.48.48,0,0,0,95.9,135.87Zm9,0a.48.48,0,0,0-.49.49.49.49,0,0,0,1,0A.48.48,0,0,0,104.89,135.87Zm9,0a.48.48,0,0,0-.49.49.49.49,0,0,0,1,0A.48.48,0,0,0,113.88,135.87Z" style="fill:#fff"></path><path d="M123.42,57.27l-21,21.38H71.33L50.4,57.27s7.05-13.74,36.51-13.74S123.42,57.27,123.42,57.27Z" style="fill:#407BFF;opacity:0.1"></path><path d="M32.51,163.7,50.4,147.23h73l17.91,16.47s-10.5,15.61-54.4,15.61S32.51,163.7,32.51,163.7Z" style="fill:#407BFF;opacity:0.1"></path></g><g id="freepik--Character--inject-5"><polygon points="146.76 349.68 104.58 349.68 80.43 229.31 119.06 211.57 146.76 349.68" style="fill:#37474f"></polygon><polygon points="260.62 349.68 146.76 349.68 119.06 211.57 232.92 211.57 260.62 349.68" style="fill:#455a64"></polygon><rect x="60.45" y="285.1" width="64.65" height="132.65" style="fill:#37474f"></rect><polygon points="291.65 417.75 273.99 417.75 247.67 285.1 291.65 285.1 291.65 417.75" style="fill:#37474f"></polygon><rect x="125.1" y="285.1" width="35.52" height="132.65" style="fill:#455a64"></rect><rect x="291.65" y="285.1" width="35.52" height="132.65" style="fill:#455a64"></rect><rect x="160.62" y="349.68" width="131.03" height="68.07" style="fill:#455a64"></rect><rect x="160.62" y="320.25" width="131.03" height="29.7" style="fill:#455a64"></rect><path d="M133.81,285.1l13.4-.24,13.41-.17H161v.41l.15,15.52.06,15.53c0,10.35.07,20.7,0,31s-.05,20.7-.18,31.05-.23,20.7-.45,31.05q-.33-15.53-.45-31.05c-.12-10.35-.14-20.7-.17-31.05s0-20.69,0-31l.06-15.53.15-15.52.4.41-13.41-.17Z" style="fill:#263238"></path><path d="M291.65,285.1c.28,10.39.41,20.77.52,31.16l.15,31.16-.15,31.17L292,394.17l-.33,15.58-.33-15.58-.18-15.58L291,347.42l.16-31.16C291.25,305.87,291.38,295.49,291.65,285.1Z" style="fill:#263238"></path><path d="M291.65,349.68c-11.49.27-23,.4-34.47.51l-34.48.16-27.6-.16L177.86,350l-17.24-.33,17.24-.33,17.24-.19,27.6-.15,34.48.16C268.67,349.27,280.16,349.4,291.65,349.68Z" style="fill:#263238"></path><path d="M291.65,320.25c-11.49.28-23,.41-34.47.51l-34.48.16-27.6-.15-17.24-.19-17.24-.33,17.24-.33,17.24-.18,27.6-.16,34.48.16C268.67,319.84,280.16,320,291.65,320.25Z" style="fill:#263238"></path><polygon points="85.02 417.75 84.14 428.5 82.1 453.33 72.74 453.33 70.7 428.5 69.83 417.75 85.02 417.75" style="fill:#c7c7c7"></polygon><polygon points="69.83 417.75 85.02 417.75 84.14 428.5 70.7 428.5 69.83 417.75" style="fill:#a6a6a6"></polygon><polygon points="150.46 417.75 149.59 428.5 147.54 453.33 138.18 453.33 136.14 428.5 135.27 417.75 150.46 417.75" style="fill:#c7c7c7"></polygon><polygon points="135.27 417.75 150.46 417.75 149.59 428.5 136.14 428.5 135.27 417.75" style="fill:#a6a6a6"></polygon><polygon points="252.13 417.75 251.25 428.5 249.21 453.33 239.85 453.33 237.81 428.5 236.93 417.75 252.13 417.75" style="fill:#c7c7c7"></polygon><polygon points="236.93 417.75 252.13 417.75 251.25 428.5 237.81 428.5 236.93 417.75" style="fill:#a6a6a6"></polygon><polygon points="317.58 417.75 316.71 428.5 314.66 453.33 305.3 453.33 303.26 428.5 302.39 417.75 317.58 417.75" style="fill:#c7c7c7"></polygon><polygon points="317.58 417.75 316.71 428.5 303.26 428.5 302.39 417.75 317.58 417.75" style="fill:#a6a6a6"></polygon><path d="M442.38,252c-1.55,2.24-60.69,46.42-64,46.67-1.26.12-8.2-8.12-16.29-18.32,0,0-52.56-16.69-52.56-16.69l40.64-30.54,50,18.64s30.2-6.79,33.88-6.68S443.93,249.77,442.38,252Z" style="fill:#d3766a"></path><path d="M442.88,252.06c-1,1.45-25.63,21.15-44.35,34.41-4.33,3.06-8.32,5.83-11.57,8-4.48,3-7.57,4.93-8.26,5-1.21.08-8.43-8.1-15.7-17.89-.38-.51-6.38-2.7-9.38-3.75l37.11-30.09,9.58,3.75s30.48-6.6,34.18-6.47S444.44,249.82,442.88,252.06Z" style="fill:#407BFF"></path><g style="opacity:0.2"><path d="M442.88,252.06c-1,1.45-25.63,21.15-44.35,34.41-4.33,3.06-8.32,5.83-11.57,8-4.48,3-7.57,4.93-8.26,5-1.21.08-8.43-8.1-15.7-17.89-.38-.51-6.38-2.7-9.38-3.75l37.11-30.09,9.58,3.75s30.48-6.6,34.18-6.47S444.44,249.82,442.88,252.06Z"></path></g><g style="opacity:0.1"><path d="M387.91,288.34a12,12,0,0,0-7-4.37,11.16,11.16,0,0,0-5.56.32,13.23,13.23,0,0,0-4.76,2.88c-.08.07,0,.19.11.12A11.48,11.48,0,0,1,380.87,285a11.27,11.27,0,0,1,4.51,2.31,12.21,12.21,0,0,1,1.72,1.8,10.36,10.36,0,0,1,.7,1c.22.36.33.68.76.81a.41.41,0,0,0,.49-.28C389.31,290,388.32,288.88,387.91,288.34Z"></path><path d="M428.28,246.91a8.55,8.55,0,0,0-3.82,3.47,22.45,22.45,0,0,0-2.37,5,21.91,21.91,0,0,0-1.09,5.3,21.31,21.31,0,0,0-.05,2.65,8.8,8.8,0,0,0,.35,2.66.16.16,0,0,0,.3,0,23.37,23.37,0,0,0,0-2.37,23.11,23.11,0,0,1,.23-2.64,27.05,27.05,0,0,1,1.15-5,16.7,16.7,0,0,1,5.58-8.35A.36.36,0,0,0,428.28,246.91Z"></path><path d="M393.88,253c-8.23,6.89-16.42,13.84-24.72,20.64-2.36,1.93-4.69,3.89-7.08,5.78-.08.06,0,.17.11.11a300.23,300.23,0,0,0,25.33-19.93c2.27-2,4.48-4.15,6.66-6.28C394.39,253.1,394.1,252.79,393.88,253Z"></path><path d="M362.8,277.94a.54.54,0,0,0-.14-.16l-.21-.12-.39-.23c-.28-.15-.56-.3-.85-.44-.56-.27-1.13-.51-1.71-.74a.08.08,0,0,0-.06.14c.54.28,1.08.59,1.61.9l.78.45.41.25a.91.91,0,0,0,.42.17A.15.15,0,0,0,362.8,277.94Z"></path><path d="M366.63,274.66a.43.43,0,0,0-.14-.16l-.2-.12-.39-.23c-.28-.15-.56-.3-.85-.44-.56-.27-1.13-.51-1.71-.74-.08,0-.14.1-.07.14q.83.43,1.62.9c.25.16.52.31.78.46l.41.24a1.07,1.07,0,0,0,.41.18A.15.15,0,0,0,366.63,274.66Z"></path><path d="M370.47,271.39a.58.58,0,0,0-.14-.17l-.2-.12-.4-.22q-.41-.24-.84-.45c-.56-.26-1.14-.51-1.71-.74-.08,0-.15.1-.07.14.55.29,1.08.59,1.61.91l.78.45.41.24a1.12,1.12,0,0,0,.42.18C370.44,271.62,370.54,271.48,370.47,271.39Z"></path><path d="M374.31,268.11a.54.54,0,0,0-.14-.16l-.21-.13-.39-.22c-.28-.16-.56-.31-.85-.45-.56-.26-1.13-.5-1.71-.73-.08,0-.14.09-.06.13.55.29,1.08.6,1.61.91l.78.45.41.24a.93.93,0,0,0,.42.18A.15.15,0,0,0,374.31,268.11Z"></path><path d="M378.15,264.83a.54.54,0,0,0-.14-.16l-.21-.12-.39-.23c-.28-.16-.56-.31-.85-.44-.56-.27-1.13-.51-1.71-.74a.08.08,0,0,0-.06.14c.54.28,1.08.59,1.61.9l.78.45.41.25a.91.91,0,0,0,.42.17A.15.15,0,0,0,378.15,264.83Z"></path><path d="M382,261.55a.43.43,0,0,0-.14-.16l-.2-.12-.39-.23c-.28-.15-.56-.3-.85-.44-.56-.27-1.13-.51-1.71-.74-.08,0-.15.1-.07.14.55.28,1.09.59,1.62.9.25.16.52.3.78.46l.41.24a.92.92,0,0,0,.41.17A.15.15,0,0,0,382,261.55Z"></path><path d="M385.82,258.28a.58.58,0,0,0-.14-.17l-.2-.12-.4-.22q-.4-.24-.84-.45c-.56-.27-1.14-.51-1.71-.74-.08,0-.15.1-.07.14.55.29,1.08.59,1.61.91l.78.45.41.24a1.12,1.12,0,0,0,.42.18A.15.15,0,0,0,385.82,258.28Z"></path><path d="M389.66,255a.75.75,0,0,0-.14-.17l-.21-.12-.39-.22c-.28-.16-.56-.31-.85-.45-.56-.26-1.13-.5-1.71-.73-.08,0-.14.09-.06.13.54.29,1.08.59,1.61.91l.78.45.41.24a.93.93,0,0,0,.42.18A.16.16,0,0,0,389.66,255Z"></path><path d="M393.5,251.72a.73.73,0,0,0-.14-.16,2.25,2.25,0,0,0-.21-.12l-.39-.23c-.28-.16-.56-.31-.85-.44-.56-.27-1.13-.51-1.71-.74a.08.08,0,0,0-.06.14c.54.28,1.08.59,1.61.9l.78.45.41.24a.94.94,0,0,0,.41.18A.15.15,0,0,0,393.5,251.72Z"></path></g><path d="M381.82,241.46l-4.14,7.62-20.65,38a52.33,52.33,0,0,1-17.59-4.2c-14.16-6.19-32.19-17.6-40.29-21.65-.43-.21-37.59,41-68.55,54.36-23.74,10.22-42.71,4.67-57.63-16.25L209.84,272C240.36,247.34,273,211.68,297,209.24c17.15-1.74,49.39,10.79,68.79,20.92A68.84,68.84,0,0,1,381.82,241.46Z" style="fill:#263238"></path><path d="M372.55,241.12c-4.31,7.46-3.17,5.26-7.41,12.78-2.07,3.67-12.53,22.13-13.9,25.88a.09.09,0,0,0,.15.08c2.45-3.16,12.51-21.83,14.51-25.54,4.1-7.59,2.85-5.46,6.86-13.09A.12.12,0,1,0,372.55,241.12Z" style="fill:#37474f"></path><path d="M424.65,346.72c-2.46,1.17-75.76,9.9-78.76,8.45-1.15-.53-3-11.13-5-24,0,0-37.19-40.71-37.19-40.71l50.46-6.15,34,41.1s29.56,9.2,32.69,11.14S427.11,345.56,424.65,346.72Z" style="fill:#d3766a"></path><path d="M425.06,347c-1.61.74-32.77,5.52-55.61,7.65-5.28.5-10.12.9-14,1.18-5.39.36-9,.48-9.65.18-1.08-.54-3.25-11.23-4.65-23.34-.08-.64-4.18-5.53-6.26-7.93L382,317.22l6.42,8s29.71,9.51,32.85,11.47S427.53,345.86,425.06,347Z" style="fill:#407BFF"></path><g style="opacity:0.2"><path d="M425.06,347c-1.61.74-32.77,5.52-55.61,7.65-5.28.5-10.12.9-14,1.18-5.39.36-9,.48-9.65.18-1.08-.54-3.25-11.23-4.65-23.34-.08-.64-4.18-5.53-6.26-7.93L382,317.22l6.42,8s29.71,9.51,32.85,11.47S427.53,345.86,425.06,347Z"></path></g><g style="opacity:0.1"><path d="M359.31,351a11.42,11.42,0,0,0-.7-2.7,11.93,11.93,0,0,0-3.14-4.56,11.16,11.16,0,0,0-5-2.51,13.36,13.36,0,0,0-5.56.12c-.1,0-.06.18,0,.16a11.47,11.47,0,0,1,9.89,3.11,11.33,11.33,0,0,1,2.76,4.25,12.75,12.75,0,0,1,.59,2.42,10.36,10.36,0,0,1,.1,1.25c0,.42-.06.75.25,1.08a.4.4,0,0,0,.56,0C359.71,353.11,359.4,351.66,359.31,351Z"></path><path d="M415,335.27a8.44,8.44,0,0,0-5,1.1,22,22,0,0,0-4.53,3.12,21.67,21.67,0,0,0-3.6,4.05,23.33,23.33,0,0,0-1.36,2.26,8.8,8.8,0,0,0-1,2.48.16.16,0,0,0,.28.13,22,22,0,0,0,1.22-2c.47-.75,1-1.47,1.52-2.17a28.38,28.38,0,0,1,3.5-3.77,16.66,16.66,0,0,1,9-4.44A.36.36,0,0,0,415,335.27Z"></path><path d="M382.16,323.33c-10.58,1.86-21.14,3.79-31.73,5.53-3,.5-6,1-9,1.47-.1,0-.06.16,0,.16a298.13,298.13,0,0,0,31.9-4.62c3-.63,5.95-1.36,8.91-2.11A.22.22,0,0,0,382.16,323.33Z"></path><path d="M342.76,329.44a.78.78,0,0,0,0-.22l-.12-.2-.23-.39q-.24-.42-.51-.81c-.35-.51-.73-1-1.11-1.5-.06-.07-.18,0-.13.09.33.52.64,1,.95,1.59.14.26.3.52.45.78l.23.42a1.07,1.07,0,0,0,.27.36A.16.16,0,0,0,342.76,329.44Z"></path><path d="M347.72,328.51a.78.78,0,0,0,0-.21l-.12-.21c-.07-.13-.15-.26-.23-.39s-.33-.54-.51-.8c-.35-.52-.73-1-1.11-1.5,0-.07-.17,0-.13.09.33.52.65,1.05.95,1.59l.45.78c.08.14.16.27.23.41a.84.84,0,0,0,.28.36A.15.15,0,0,0,347.72,328.51Z"></path><path d="M352.68,327.59a.78.78,0,0,0,0-.21l-.12-.21-.22-.39c-.17-.27-.34-.54-.52-.81-.35-.51-.72-1-1.11-1.49-.05-.07-.17,0-.13.09.34.52.65,1.05.95,1.58l.45.79c.08.13.16.27.23.41a.9.9,0,0,0,.28.36A.15.15,0,0,0,352.68,327.59Z"></path><path d="M357.64,326.67a.49.49,0,0,0,0-.21,2.25,2.25,0,0,0-.12-.21l-.22-.39c-.17-.28-.33-.55-.51-.81-.36-.51-.73-1-1.12-1.49-.05-.07-.17,0-.12.08.33.52.64,1.06.94,1.59l.45.78.24.42a1,1,0,0,0,.27.36A.15.15,0,0,0,357.64,326.67Z"></path><path d="M362.6,325.75a.41.41,0,0,0,0-.22c0-.07-.08-.13-.11-.2l-.23-.39q-.24-.42-.51-.81c-.36-.51-.73-1-1.12-1.5,0-.06-.17,0-.12.09.33.52.64,1,.94,1.59l.45.78.24.42a1.07,1.07,0,0,0,.27.36A.15.15,0,0,0,362.6,325.75Z"></path><path d="M367.56,324.82a.39.39,0,0,0,0-.21,2.12,2.12,0,0,0-.11-.21l-.23-.39c-.16-.27-.33-.54-.51-.8-.35-.52-.73-1-1.11-1.5-.06-.07-.18,0-.13.09.33.52.64,1.05.94,1.59l.45.78.24.41a.9.9,0,0,0,.27.36A.14.14,0,0,0,367.56,324.82Z"></path><path d="M372.53,323.9a.78.78,0,0,0,0-.21l-.12-.21-.23-.39q-.24-.4-.51-.81c-.35-.51-.73-1-1.11-1.49-.06-.07-.18,0-.13.09.33.52.64,1.05.95,1.59.14.26.3.52.45.78s.15.27.23.41a1,1,0,0,0,.27.36A.15.15,0,0,0,372.53,323.9Z"></path><path d="M377.49,323a.71.71,0,0,0,0-.21l-.12-.21c-.07-.13-.15-.26-.23-.39q-.24-.42-.51-.81c-.35-.51-.73-1-1.11-1.49-.06-.07-.17,0-.13.08.33.52.64,1.06.95,1.59l.45.78c.08.14.16.28.23.42a1.07,1.07,0,0,0,.27.36A.16.16,0,0,0,377.49,323Z"></path><path d="M382.45,322.06a.65.65,0,0,0,0-.21l-.12-.21-.22-.39c-.17-.28-.34-.55-.52-.81q-.53-.76-1.11-1.5c-.05-.06-.17,0-.13.09.34.52.65,1.05.95,1.59l.45.78c.08.14.16.28.23.42a1,1,0,0,0,.28.36A.15.15,0,0,0,382.45,322.06Z"></path></g><path d="M164.71,267.82s-9.3,28.86,4.5,43.53c9.93,10.57,24.43,13.39,37.32,13.26,35.62-.37,70.81-38.69,82.73-39.42,4.2-.25,20.92,26.32,33.38,41.83a39,39,0,0,0,13.54,10.37l39.16-30.26s-1.81-7.31-6.21-12.64c-17.4-21.08-53.61-60.74-75.89-63.68-19.09-2.51-72.73,30.78-73.84,30.16-1.8-1-9.74-6.19-9.74-6.19Z" style="fill:#263238"></path><path d="M370.38,302.21c-5.07,3.24-9.89,6.86-14.73,10.38s-9.63,7-14.39,10.64c-2.69,2-5.38,4.1-8,6.23-.07.05,0,.15.08.1,5-3.31,9.88-6.84,14.74-10.37s9.63-7,14.4-10.63c2.69-2,5.42-4.06,8-6.22A.08.08,0,1,0,370.38,302.21Z" style="fill:#37474f"></path><path d="M194.29,267.08c0-.17-.3-.09-.29.07a19.51,19.51,0,0,1-3.28,13c-2.95,4.21-7.67,6.87-11.92,9.59-.4.26,0,.9.42.72a39.37,39.37,0,0,0,7.56-4.2,19.31,19.31,0,0,0,5.44-5.55A17.08,17.08,0,0,0,194.29,267.08Z" style="fill:#37474f"></path><path d="M219.68,264c-1-.94-2-1.82-3-2.72-2.37-2.14-4.75-4.29-7.2-6.33-.24-.19-.59.18-.37.39,1.7,1.68,3.47,3.29,5.21,4.91l2.7,2.49a17.64,17.64,0,0,1,2.53,2.43,1.39,1.39,0,0,1-1,2.22,3.75,3.75,0,0,1-2.73-.6,34.16,34.16,0,0,1-5-4.1c-1-.84-2-1.69-3-2.52s-2.18-1.7-3.24-2.59c-.07-.05-.17.05-.11.12,1,1,1.86,2,2.82,3s1.93,2,2.91,3,1.89,1.81,2.86,2.68a10.15,10.15,0,0,0,2.79,1.88c1.67.69,4.37.52,4.92-1.59A2.82,2.82,0,0,0,219.68,264Z" style="fill:#37474f"></path><path d="M335.88,325c-9.82-12.17-36.65-43.39-42.94-48.85a6.09,6.09,0,0,0-4.65-1.4c-1.83.2-3.43,1.33-5,2.25l-5.52,3.3-11.34,6.79c-7.09,4.24-14.15,8.55-21.29,12.71a146.49,146.49,0,0,1-19.74,9.95c-13.1,5.18-29.09,7.48-41.77-.15a27.79,27.79,0,0,1-12-15.49c-2.11-6.44-2.44-13.33-2.31-20.06,0-1.62.09-3.25.18-4.88a.07.07,0,0,0-.13,0c-1,12.58-1,27.34,8.55,37,10.09,10.22,26.12,10.78,39.21,7.31,14.68-3.88,27.68-12.34,40.57-20.07l22.52-13.52c1.82-1.09,3.61-2.24,5.47-3.27s4-1.7,5.77-.32c6,4.6,42.79,47.49,44.1,49C335.75,325.44,336,325.21,335.88,325Z" style="fill:#37474f"></path><path d="M230.82,254.93C241.1,249.45,259,239,280.56,232a48.48,48.48,0,0,1,8.64-1.75,18.16,18.16,0,0,1,4.48.07,25.58,25.58,0,0,1,4.33,1.06,63.82,63.82,0,0,1,15.42,8.44,168.46,168.46,0,0,1,14.15,10.87c4.34,3.91,8.44,7.49,12.49,11.69,8.12,8.38,17,17.19,24.23,26.35-3.8-4.42-20.74-21.62-24.86-25.73a211.56,211.56,0,0,0-26.67-22.25,62.63,62.63,0,0,0-15.1-8.38,18.76,18.76,0,0,0-8.38-1.13,51.76,51.76,0,0,0-8.5,1.61,137,137,0,0,0-16.45,5.74C259,240.79,236.06,252.37,230.82,254.93Z" style="fill:#37474f"></path><path d="M182.56,195.09c14.3.6,60.05,7.64,63.57,19.33,3.39,11.22-7.63,18.52-22.79,14.73-10.85-2.71-28.57-12.93-40.29-20.82C173.54,201.92,169.34,194.54,182.56,195.09Z" style="fill:#d3766a"></path><path d="M182.56,195.09c14.3.6,60.05,7.64,63.57,19.33,3.39,11.22-7.63,18.52-22.79,14.73-10.85-2.71-28.57-12.93-40.29-20.82C173.54,201.92,169.34,194.54,182.56,195.09Z" style="fill:#407BFF"></path><path d="M224.77,229.48c-.47-.09-1-.2-1.43-.32-10.85-2.72-28.57-12.94-40.29-20.83-8.07-5.43-12.32-11.57-5.34-13C190.73,204.72,212.55,220.43,224.77,229.48Z" style="opacity:0.1"></path><path d="M233,226.84c9.33,3.67,15.22-7.65,12.67-13.62-6-14-20.4-28.9-31.16-37.5-3.46-2.77-22.46,17-19.27,20.47C199.07,200.39,214.7,219.64,233,226.84Z" style="fill:#d3766a"></path><path d="M215.54,177.25c-1.35-2.95-8.69-15.93-11.54-19.09s-11.71-11.64-14.35-9.7-.24,4.63-.24,4.63-4.31-3-6.79-.8,1.39,6.26,1.39,6.26-4.65-2.75-7-.39,2.26,5.8,2.26,5.8-4.14-2.71-5.22,0c-1.31,3.31,6.87,7.45,9.76,11.17.66.84,12.07,18.06,12.07,18.06Z" style="fill:#d3766a"></path><path d="M178.91,163.66c6,3.06,8.12,5.44,11.52,11.14a.11.11,0,0,0,.19-.09c-2.82-5.88-5-9.25-11.57-11.35C178.73,163.26,178.63,163.52,178.91,163.66Z" style="fill:#263238"></path><path d="M183.53,158.31c6,3.72,8.27,6.28,12.27,12,0,.09.2,0,.15-.09-3.46-5.93-5.74-9.23-12.19-12.17C183.47,157.91,183.25,158.14,183.53,158.31Z" style="fill:#263238"></path><path d="M189.6,153.38c5.52,4,8.17,6.72,11.34,12.76a.13.13,0,0,0,.23-.1c-2.64-6.48-5.91-9.87-11.43-12.81C189.37,153,189.26,153.13,189.6,153.38Z" style="fill:#263238"></path><path d="M193.23,149.38l12.37,29.75a2,2,0,0,1-.71,2.33l-13,8.3a1.3,1.3,0,0,1-1.94-.65l-12.36-29.76a2,2,0,0,1,.7-2.33l13-8.29A1.28,1.28,0,0,1,193.23,149.38Z" style="fill:#37474f"></path><path d="M190.51,149.23l-13,8.3a2,2,0,0,0-.69,2.33l12.36,29.75a1.29,1.29,0,0,0,1.93.65l13-8.29a2,2,0,0,0,.7-2.33l-12.36-29.76A1.3,1.3,0,0,0,190.51,149.23Zm13.1,30a1.83,1.83,0,0,1-.59,2.17l-11.63,7.42a1.18,1.18,0,0,1-1.76-.66l-11.52-27.71c-.66-1.6-.16-2,.49-2.43l2.33-1.48c.13-.09.31,0,.4.22l0,.09c.21.5.45.35.75.15l5.39-3.43c.3-.2.54-.35.33-.85l0-.09a.46.46,0,0,1,.09-.54l2.33-1.49c.65-.41,1.27-.54,1.87.92Z" style="fill:#263238"></path><path d="M185.29,154.21l-1.47.93a.08.08,0,0,1-.13,0h0a.14.14,0,0,1,.05-.16l1.47-.94a.09.09,0,0,1,.13.05h0A.15.15,0,0,1,185.29,154.21Z" style="fill:#fff"></path><line x1="188.9" y1="186.41" x2="188.85" y2="186.44" style="fill:none"></line><path d="M192.09,151.53l11.52,27.71a1.83,1.83,0,0,1-.59,2.17l-11.63,7.42a1.18,1.18,0,0,1-1.76-.66l-11.52-27.71c-.66-1.6-.16-2,.49-2.43l2.33-1.48c.13-.09.31,0,.4.22l0,.09c.21.5.45.35.75.15l5.39-3.43c.3-.2.54-.35.33-.85l0-.09a.46.46,0,0,1,.09-.54l2.33-1.49C190.87,150.2,191.49,150.07,192.09,151.53Z" style="fill:#fff"></path><g id="freepik--u5Zjqx--inject-5"><path d="M180.78,157.43v.06a.28.28,0,0,0-.25,0,.43.43,0,0,0-.18.24h-.05s0,0,0,0a.36.36,0,0,1,0-.09l.08-.09,0,0s0,0,0,0l0,0,.08,0h.17Z" style="fill:#a6a6a6"></path><path d="M180.43,157.8l-.05,0a.34.34,0,0,1,.11-.17.24.24,0,0,1,.25-.06v.06a.2.2,0,0,0-.18,0A.34.34,0,0,0,180.43,157.8Z" style="fill:#a6a6a6"></path><path d="M180.71,157.67l0,.06a.15.15,0,0,0-.09,0,.12.12,0,0,0-.06.08l0,0A.18.18,0,0,1,180.71,157.67Z" style="fill:#a6a6a6"></path><path d="M180.66,157.8a0,0,0,0,1,0,0s0,0,0,0a.06.06,0,0,1,0-.06A0,0,0,0,1,180.66,157.8Z" style="fill:#a6a6a6"></path></g><path d="M178.62,158.9a.14.14,0,0,1,0-.16.1.1,0,0,1,.14,0,.16.16,0,0,1-.05.17A.1.1,0,0,1,178.62,158.9Z" style="fill:#a6a6a6"></path><path d="M178.91,158.72a.16.16,0,0,1,.05-.17.1.1,0,0,1,.14,0,.14.14,0,0,1,0,.16A.1.1,0,0,1,178.91,158.72Z" style="fill:#a6a6a6"></path><path d="M179.2,158.53a.14.14,0,0,1,.05-.16.09.09,0,0,1,.14,0,.14.14,0,0,1,0,.16A.09.09,0,0,1,179.2,158.53Z" style="fill:#a6a6a6"></path><path d="M179.5,158.34a.12.12,0,0,1,.05-.16.09.09,0,0,1,.13,0,.14.14,0,0,1-.05.17A.09.09,0,0,1,179.5,158.34Z" style="fill:#a6a6a6"></path><path d="M179.79,158.16a.14.14,0,0,1,.05-.17.09.09,0,0,1,.13,0,.13.13,0,0,1-.05.16A.09.09,0,0,1,179.79,158.16Z" style="fill:#a6a6a6"></path><polygon points="190.56 151.1 189.84 151.55 189.99 151.9 190.71 151.44 190.56 151.1" style="fill:#a6a6a6"></polygon><polygon points="189.87 152.27 189.53 151.46 190.68 150.73 191.02 151.54 189.87 152.27" style="fill:#fff"></polygon><polygon points="190.39 151.26 189.91 151.57 190.01 151.83 190.5 151.52 190.39 151.26" style="fill:#a6a6a6"></polygon><polygon points="190.76 151.32 190.7 151.36 190.61 151.15 190.68 151.11 190.76 151.32" style="fill:#a6a6a6"></polygon><path d="M199.77,182.4l-5.85,3.73a.2.2,0,0,0-.07.23.14.14,0,0,0,.2.07l5.85-3.74a.2.2,0,0,0,.07-.23A.13.13,0,0,0,199.77,182.4Z" style="fill:#a6a6a6"></path><path d="M191.41,167.17a1.94,1.94,0,0,1-.71,2.3,1.28,1.28,0,0,1-1.92-.62,1.94,1.94,0,0,1,.71-2.3A1.27,1.27,0,0,1,191.41,167.17Z" style="fill:#455a64"></path><path d="M189.43,167.51a.19.19,0,0,0-.07.22.12.12,0,0,0,.18.06.19.19,0,0,0,.07-.22A.11.11,0,0,0,189.43,167.51Z" style="fill:#fff"></path><path d="M189.79,167.28a.19.19,0,0,0-.07.22.13.13,0,0,0,.19.06.19.19,0,0,0,.07-.22A.12.12,0,0,0,189.79,167.28Z" style="fill:#fff"></path><path d="M190.27,167.32a.19.19,0,0,0,.07-.22.12.12,0,0,0-.18-.06.19.19,0,0,0-.07.22A.11.11,0,0,0,190.27,167.32Z" style="fill:#fff"></path><path d="M189.59,167.9a.19.19,0,0,0-.07.22.12.12,0,0,0,.19.06.17.17,0,0,0,.06-.22A.12.12,0,0,0,189.59,167.9Z" style="fill:#fff"></path><path d="M190,167.67a.17.17,0,0,0-.06.22.11.11,0,0,0,.18.06.19.19,0,0,0,.07-.22A.13.13,0,0,0,190,167.67Z" style="fill:#fff"></path><path d="M190.32,167.44a.19.19,0,0,0-.07.22.13.13,0,0,0,.19.06.18.18,0,0,0,.06-.22A.11.11,0,0,0,190.32,167.44Z" style="fill:#fff"></path><path d="M189.75,168.3a.17.17,0,0,0-.06.22.12.12,0,0,0,.18.06.19.19,0,0,0,.07-.22A.12.12,0,0,0,189.75,168.3Z" style="fill:#fff"></path><path d="M190.12,168.06a.19.19,0,0,0-.07.22.11.11,0,0,0,.18.06.17.17,0,0,0,.07-.22A.12.12,0,0,0,190.12,168.06Z" style="fill:#fff"></path><path d="M190.48,167.83a.19.19,0,0,0-.07.22.12.12,0,0,0,.19.06.19.19,0,0,0,.07-.22A.13.13,0,0,0,190.48,167.83Z" style="fill:#fff"></path><path d="M190.28,168.46a.19.19,0,0,0-.07.22.13.13,0,0,0,.19.06.19.19,0,0,0,.07-.22A.12.12,0,0,0,190.28,168.46Z" style="fill:#fff"></path><path d="M196.9,169.05a2,2,0,0,1-.71,2.3,1.27,1.27,0,0,1-1.92-.62,1.94,1.94,0,0,1,.7-2.3A1.27,1.27,0,0,1,196.9,169.05Z" style="fill:#455a64"></path><path d="M195.69,169.29a.42.42,0,0,1-.15.49.27.27,0,0,1-.41-.13.4.4,0,0,1,.15-.49A.27.27,0,0,1,195.69,169.29Z" style="fill:#fff"></path><path d="M196.26,170l.05.13a1.29,1.29,0,0,1-.22.3,1,1,0,0,1-.76.33l-.05-.13a.74.74,0,0,1,.26-.86A.49.49,0,0,1,196.26,170Z" style="fill:#fff"></path><path d="M187.69,169.54a1.94,1.94,0,0,1-.71,2.3,1.27,1.27,0,0,1-1.92-.62,1.94,1.94,0,0,1,.71-2.3A1.28,1.28,0,0,1,187.69,169.54Z" style="fill:#455a64"></path><path d="M186.72,171.2a0,0,0,0,1-.05,0l-.16-.39s0,0,0,0,0,0,0,0l.16.39S186.73,171.19,186.72,171.2Z" style="fill:#fff"></path><path d="M186.91,171.08l-.39.24a0,0,0,0,1,0,0s0,0,0-.06l.38-.24s0,0,0,0A.06.06,0,0,1,186.91,171.08Z" style="fill:#fff"></path><path d="M186.4,169.68l.23.57a.36.36,0,0,1-.13.43.24.24,0,0,1-.28,0,.23.23,0,0,1-.08-.11l-.24-.56a.36.36,0,0,1,.14-.43.21.21,0,0,1,.2,0,.23.23,0,0,1,.15.14Z" style="fill:#fff"></path><path d="M186.55,170.81a.34.34,0,0,1-.29.05.38.38,0,0,1-.23-.22l-.1-.24a0,0,0,0,1,0-.05,0,0,0,0,1,0,0l.1.24a.31.31,0,0,0,.19.18.28.28,0,0,0,.26-.05.44.44,0,0,0,.14-.52l-.09-.23a0,0,0,1,1,.06,0l.09.23a.54.54,0,0,1-.17.63Z" style="fill:#fff"></path><path d="M193.18,171.42a1.94,1.94,0,0,1-.71,2.3,1.26,1.26,0,0,1-1.92-.62,1.93,1.93,0,0,1,.71-2.3A1.28,1.28,0,0,1,193.18,171.42Z" style="fill:#455a64"></path><path d="M192.55,171.59l.16.37a.13.13,0,0,1-.08.17l-.16.06-.09,0-.18-.44.17-.18,0,0A.09.09,0,0,1,192.55,171.59Z" style="fill:#fff"></path><path d="M192.1,171.77l.22.54a.23.23,0,0,1-.09.29l-.58.37a.15.15,0,0,1-.24-.08l-.23-.53a.25.25,0,0,1,.1-.3l.57-.37A.17.17,0,0,1,192.1,171.77Z" style="fill:#fff"></path><path d="M189.46,173.8a1.94,1.94,0,0,1-.71,2.3,1.28,1.28,0,0,1-1.92-.62,1.93,1.93,0,0,1,.71-2.3A1.27,1.27,0,0,1,189.46,173.8Z" style="fill:#455a64"></path><path d="M188.61,174.23l-.42.27L188,174a.07.07,0,0,0-.11,0,.11.11,0,0,0,0,.14l.2.47-.42.27a.11.11,0,0,0-.05.14.09.09,0,0,0,.12,0l.42-.27.2.47a.07.07,0,0,0,.11,0,.11.11,0,0,0,.05-.14l-.2-.46.42-.27a.1.1,0,0,0,0-.14A.07.07,0,0,0,188.61,174.23Z" style="fill:#fff"></path><path d="M195.13,164.79a1.94,1.94,0,0,1-.71,2.3,1.27,1.27,0,0,1-1.92-.62,1.93,1.93,0,0,1,.71-2.3A1.28,1.28,0,0,1,195.13,164.79Z" style="fill:#455a64"></path><path d="M194.44,165.15l-.06-.09a.73.73,0,0,0-.14-.16.65.65,0,0,0-.15-.1l-.08,0h0l0,.08v.05a.63.63,0,0,1,.4.38.94.94,0,0,1,0,.62l0,0,.07,0h0s0-.06,0-.09l0-.16v-.16a1.43,1.43,0,0,0,0-.22.14.14,0,0,1,0-.07S194.44,165.17,194.44,165.15Z" style="fill:#fff"></path><path d="M194.21,165.27a.49.49,0,0,0-.29-.24l0,.13a.44.44,0,0,1,.27.25.61.61,0,0,1,0,.42l.11,0A.73.73,0,0,0,194.21,165.27Z" style="fill:#fff"></path><path d="M193.84,165.29l0,.13a.22.22,0,0,1,.14.13.3.3,0,0,1,0,.21l.1,0A.38.38,0,0,0,193.84,165.29Z" style="fill:#fff"></path><polygon points="193.48 166.14 193.26 166.28 193.06 165.81 193.28 165.67 193.48 166.14" style="fill:#fff"></polygon><polygon points="193.28 165.67 193.6 165.23 193.96 166.07 193.48 166.14 193.28 165.67" style="fill:#fff"></polygon><path d="M196.34,178.32a2.28,2.28,0,0,1-.83,2.72,1.5,1.5,0,0,1-2.27-.74,2.29,2.29,0,0,1,.84-2.71A1.49,1.49,0,0,1,196.34,178.32Z" style="fill:#407BFF"></path><path d="M195.68,178.76l-.06-.06-.07,0-.09,0h-.09a.91.91,0,0,0-.36.06,2.45,2.45,0,0,0-.77.49,1.37,1.37,0,0,0-.25.33.42.42,0,0,0,0,.1l0,.1v.06a.22.22,0,0,0,0,.14h0l.49-.31v0a.26.26,0,0,1,.1-.2c.14-.1.29-.19.44-.28a.17.17,0,0,1,.18,0h0l.48-.31Z" style="fill:#fff"></path><path d="M194,180h0c0,.07.05.13.08.19s0,.06.09,0l.37-.23a.08.08,0,0,0,0-.11l-.06-.16,0,0Z" style="fill:#fff"></path><path d="M195.72,178.88l-.49.31.08.21a.06.06,0,0,0,.09,0l.37-.24a.09.09,0,0,0,0-.11l-.09-.19Z" style="fill:#fff"></path><path d="M186.68,165.07a.54.54,0,0,1,.2-.63.36.36,0,0,1,.26-.06.06.06,0,0,1,.05.08.08.08,0,0,1-.07.07.22.22,0,0,0-.19,0,.36.36,0,0,0-.15.19.39.39,0,0,0,0,.24.25.25,0,0,0,.15.15.25.25,0,0,0,.22,0,.34.34,0,0,0,.13-.16.09.09,0,0,1,.09,0,.08.08,0,0,1,0,.1.53.53,0,0,1-.19.23A.34.34,0,0,1,186.68,165.07Z" style="fill:#263238"></path><path d="M187.72,164.84a.1.1,0,0,1,0,.1.06.06,0,0,1-.07,0h0l-.28-.66a.08.08,0,0,1,0-.09.06.06,0,0,1,.09,0l.08.2a.22.22,0,0,1,.09-.1.21.21,0,0,1,.32.1l.1.25a.08.08,0,0,1,0,.1s-.06,0-.08,0l-.1-.25a.1.1,0,0,0-.16,0,.17.17,0,0,0-.06.19Z" style="fill:#263238"></path><path d="M188.59,164l.09.22a.07.07,0,0,1,0,.09.05.05,0,0,1-.07,0,.3.3,0,0,1-.11.14.21.21,0,0,1-.2,0,.22.22,0,0,1-.15-.15.33.33,0,0,1,0-.24.34.34,0,0,1,.14-.19.28.28,0,0,1,.15,0,.11.11,0,0,1,0-.08.06.06,0,0,1,.08,0Zm-.1.07a.13.13,0,0,0-.09-.09.11.11,0,0,0-.11,0,.16.16,0,0,0-.08.1.22.22,0,0,0,0,.14.13.13,0,0,0,.09.09.11.11,0,0,0,.11,0,.21.21,0,0,0,.07-.11A.15.15,0,0,0,188.49,164.08Z" style="fill:#263238"></path><path d="M189,163.47a.07.07,0,0,1,0,.09s0,0-.06.06a.19.19,0,0,0,0,.08.47.47,0,0,0,0,.12l.09.21a.1.1,0,0,1,0,.1.06.06,0,0,1-.08,0l-.18-.44a.07.07,0,0,1,0-.09,0,0,0,0,1,.07,0h0a0,0,0,0,1,0,0,.28.28,0,0,1,.11-.13S189,163.43,189,163.47Z" style="fill:#263238"></path><path d="M189.08,163.06a.05.05,0,0,1,.08,0l.27.65a.08.08,0,0,1,0,.1s-.06,0-.08,0l-.27-.65A.09.09,0,0,1,189.08,163.06Z" style="fill:#263238"></path><path d="M189.41,163a.08.08,0,0,1,0,.09.05.05,0,0,1-.08,0v0a.08.08,0,0,1,0-.09.05.05,0,0,1,.08,0Zm.08.2.18.43a.07.07,0,0,1,0,.1.05.05,0,0,1-.07,0l-.18-.43a.08.08,0,0,1,0-.1S189.48,163.12,189.49,163.16Z" style="fill:#263238"></path><path d="M189.72,163.29a.37.37,0,0,1,.13-.44.23.23,0,0,1,.35.11h0a.07.07,0,0,1,0,.08l-.32.2s0,.05.06.05a.13.13,0,0,0,.12,0,.16.16,0,0,0,.09-.09.07.07,0,0,1,.08,0,.06.06,0,0,1,0,.07.4.4,0,0,1-.15.19A.24.24,0,0,1,189.72,163.29Zm.09-.13.28-.18a.16.16,0,0,0-.2,0A.21.21,0,0,0,189.81,163.16Z" style="fill:#263238"></path><path d="M184.77,159a.33.33,0,0,1,.12-.39.22.22,0,0,1,.17,0s0,0,0,0a.05.05,0,0,1-.05,0,.14.14,0,0,0-.12,0,.23.23,0,0,0-.09.12.26.26,0,0,0,0,.15.16.16,0,0,0,.09.09.2.2,0,0,0,.13,0,.24.24,0,0,0,.09-.11,0,0,0,0,1,0,0,0,0,0,0,1,0,.06.33.33,0,0,1-.12.14A.21.21,0,0,1,184.77,159Z" style="fill:#c7c7c7"></path><path d="M185.55,158.58l.06.13a0,0,0,0,1,0,.06s0,0,0,0a.27.27,0,0,1-.07.08.14.14,0,0,1-.22-.07.2.2,0,0,1,0-.15.2.2,0,0,1,.08-.12.12.12,0,0,1,.1,0,0,0,0,0,1,0,0,0,0,0,0,1,0,0Zm-.06,0-.06-.06a.09.09,0,0,0-.07,0,.1.1,0,0,0,0,.07.11.11,0,0,0,0,.08.09.09,0,0,0,.06.06.07.07,0,0,0,.06,0s0,0,.05-.06A.14.14,0,0,0,185.49,158.62Z" style="fill:#c7c7c7"></path><path d="M185.59,158.16s0,0,0,0l.17.41a0,0,0,0,1,0,.06s0,0,0,0l-.17-.41A0,0,0,0,1,185.59,158.16Z" style="fill:#c7c7c7"></path><path d="M185.75,158.06a0,0,0,0,1,.05,0l.17.4s0,.05,0,.06,0,0,0,0l-.17-.41A0,0,0,0,1,185.75,158.06Z" style="fill:#c7c7c7"></path><path d="M186,158a0,0,0,0,1,0,.06s0,0-.05,0v0s0,0,0-.06a0,0,0,0,1,0,0Zm.05.13.11.27a0,0,0,0,1,0,.06,0,0,0,0,1,0,0l-.11-.27s0,0,0-.06A0,0,0,0,1,186,158.12Z" style="fill:#c7c7c7"></path><path d="M186.41,158l.07.17a0,0,0,0,1,0,.05,0,0,0,0,1-.05,0l-.06-.17a.07.07,0,0,0-.1,0,.09.09,0,0,0,0,.11l.07.17h0s0,0,0,.05a0,0,0,0,1-.05,0l-.07-.16,0-.11a0,0,0,0,1,0-.06s0,0,0,0l.05-.06A.12.12,0,0,1,186.41,158Z" style="fill:#c7c7c7"></path><path d="M186.82,157.77l.06.13a.24.24,0,0,1-.08.26l-.08,0s0,0,0,0a.07.07,0,0,1,0,0h0a.11.11,0,0,0,0-.12.27.27,0,0,1-.07.08.15.15,0,0,1-.13,0,.16.16,0,0,1-.09-.09.2.2,0,0,1,0-.15.17.17,0,0,1,.08-.12.19.19,0,0,1,.1,0,0,0,0,0,1,.07,0l0,.14Zm-.06,0a.12.12,0,0,0-.06-.06s0,0-.07,0a.08.08,0,0,0,0,.07.11.11,0,0,0,0,.08.12.12,0,0,0,.06.06s0,0,.07,0,0,0,0-.07A.11.11,0,0,0,186.76,157.81Z" style="fill:#c7c7c7"></path><path d="M187,157.73a0,0,0,0,1,.07,0,.07.07,0,0,1,0,.08,0,0,0,0,1-.07,0A.08.08,0,0,1,187,157.73Z" style="fill:#c7c7c7"></path><path d="M187.17,157.64s.05,0,.07,0a.06.06,0,0,1,0,.08,0,0,0,0,1-.07,0A.06.06,0,0,1,187.17,157.64Z" style="fill:#c7c7c7"></path><path d="M187.31,157.55a0,0,0,0,1,.07,0,.07.07,0,0,1,0,.08s0,0-.06,0A.05.05,0,0,1,187.31,157.55Z" style="fill:#c7c7c7"></path><path d="M188.84,162.08a3,3,0,0,1-.43.58,1.94,1.94,0,0,1-1.48.63,1.7,1.7,0,0,1-1.32-.71,2.66,2.66,0,0,1,.32-3.29,1.78,1.78,0,0,1,2.8.09A2.59,2.59,0,0,1,188.84,162.08Z" style="fill:#c7c7c7"></path><path d="M187.63,160.39a.82.82,0,0,1-.3,1,.53.53,0,0,1-.8-.26.83.83,0,0,1,.29-1A.54.54,0,0,1,187.63,160.39Z" style="fill:#fff"></path><path d="M188.73,161.83l.11.25a3,3,0,0,1-.43.58,1.94,1.94,0,0,1-1.48.63l-.1-.25a1.39,1.39,0,0,1,.51-1.66A.91.91,0,0,1,188.73,161.83Z" style="fill:#fff"></path><path d="M197.08,197.11s-7.74-3.4-10.81-5.64-11.43-14.82-8.81-16.78c3.37-2.53,9.63,3.78,12.29,7.27a17.06,17.06,0,0,1,13.79,2C209,187.53,197.08,197.11,197.08,197.11Z" style="fill:#d3766a"></path><path d="M194,201.17l26.86-27.64s23.8,29.62,25.66,42.58c1.76,12.24-9.76,13.06-16.77,10.91C220.09,224.05,194,201.17,194,201.17Z" style="fill:#407BFF"></path><path d="M226.8,225.4c-.62-.4-1.25-.8-1.89-1.19-1.3-.79-2.57-1.63-3.85-2.46-2.57-1.69-5.12-3.4-7.61-5.2-5-3.6-17.81-14.49-19.14-15.56-.08-.06-.42.12-.14.45s8.21,7.53,10.56,9.47a140.11,140.11,0,0,0,15,10.86l.26.15c.14.17.28.35.42.51a11.35,11.35,0,0,0,1.15,1.15,15.73,15.73,0,0,0,2.63,1.88.06.06,0,1,0,.06-.1,20.88,20.88,0,0,1-2.49-2.11l-.83-.77c1.08.65,2.17,1.28,3.26,1.9.75.44,1.51.85,2.28,1.24s1.48.81,2.26,1.12a.06.06,0,0,0,.05-.11C228.15,226.18,227.45,225.82,226.8,225.4Z" style="fill:#263238"></path><path d="M211.49,195.36c2.88-3,5.77-6,8.53-9.15,1.57-1.78,3.15-3.55,4.7-5.35.06-.07,0-.19-.11-.13-3,2.91-6,5.82-8.87,8.88s-5.74,6-8.55,9.13q-2.4,2.63-4.64,5.41s0,.1.06.07C205.71,201.42,208.6,198.4,211.49,195.36Z" style="fill:#263238"></path><path d="M159.78,299c.22.13,71.37-38.18,71.36-39.2,0-6.09-.71-7.45-3.71-12.66-3.52-6.1-11.64-7.23-13.38-9.13,0,0-19.17-33.91-26.82-40.7-7.17-6.38-19.94-4.93-26,8.14-10.66,23-12,71-11.22,77.88C150.67,289.27,159.4,298.75,159.78,299Z" style="fill:#407BFF"></path><path d="M201.39,268.72c7.19-4,14.34-7.9,21.52-11.76l-.13.67-8.15-9.91.42.17a10.09,10.09,0,0,1-4.86-.87,15.78,15.78,0,0,1-4.06-2.67,26.64,26.64,0,0,1-3.32-3.48,34.28,34.28,0,0,1-2.76-3.94l.62.18-17.07,9.1.19-.49.91,2.93c.28,1,.46,2,.69,3s.27,2,.4,3v1.55c0,.25,0,.51,0,.77l-.09.77a12,12,0,0,1-1.94,5.84,9.45,9.45,0,0,1-4.88,3.71l.14-.2.61,13.56Zm-22.73-1.56V267l.16-.06a9.19,9.19,0,0,0,4.54-3.62,11.55,11.55,0,0,0,1.76-5.61l.07-.74c0-.25,0-.5,0-.75l0-1.49c-.14-1-.24-2-.44-3s-.43-2-.72-2.92L183,246l-.1-.33.29-.16,17-9.2.39-.21.23.39a33.06,33.06,0,0,0,2.7,3.79,25.53,25.53,0,0,0,3.22,3.35,15.21,15.21,0,0,0,3.82,2.51A9.15,9.15,0,0,0,215,247l.26,0,.16.19,8.09,9.95.34.41-.47.26c-7.3,3.91-14.65,7.76-22,11.58L179.65,280.7Z" style="opacity:0.1"></path><path d="M207.27,242.22c-10.35,2.47-20.69,13.08-19.22,13.54s8.67-6.41,10.44-7.2S212.13,241.06,207.27,242.22Z" style="opacity:0.1"></path><path d="M190.91,249c-.51-.17,1.75-2.56,4-4a7.37,7.37,0,0,1,3.15-1.07c.54,0-2.27,1.68-4,2.92C192.16,248.23,191.3,249.13,190.91,249Z" style="opacity:0.1"></path><path d="M151.26,208.8c-20.08,21-45,63.93-40.11,72.68,5.5,9.74,37.9-19.59,37-21-.77-1.22,9.49-24.15,15.62-48.26C168.86,192.17,156.23,203.6,151.26,208.8Z" style="fill:#d3766a"></path><path d="M151.26,208.8c-20.08,21-45,63.93-40.11,72.68,5.5,9.74,37.9-19.59,37-21-.77-1.22,9.49-24.15,15.62-48.26C168.86,192.17,156.23,203.6,151.26,208.8Z" style="fill:#407BFF"></path><path d="M149.17,256.45c.8-2.83,1.7-5.62,2.61-8.41s1.86-5.56,2.82-8.33,2-5.53,3-8.28l3-8.25c-.6,2.88-1.46,5.7-2.32,8.5s-1.8,5.58-2.76,8.36-2,5.52-3,8.25S150.36,253.76,149.17,256.45Z" style="fill:#263238"></path><path d="M158.42,230.94a17.44,17.44,0,0,1,1.4-2.84l.8-1.32c.27-.45.56-.87.8-1.36a3.7,3.7,0,0,1-.27,1.61,9.15,9.15,0,0,1-.68,1.45A9.27,9.27,0,0,1,158.42,230.94Z" style="fill:#263238"></path><path d="M111.8,282.38c5.45,5.89,18,5.44,49.78,7.27,4.4.25,14.53-30.29,9.85-30.8-5.9-.64-28.91-1.87-30.6-1.74C126.54,258.14,108.11,278.38,111.8,282.38Z" style="fill:#d3766a"></path><path d="M165.05,258.29s13.37.19,20.37,2.46c9.37,3.05,16.2,9.53,18.9,12.42,5.64,6,15.09,24.53,10.24,28.18-4.39,3.31-13.1-16.08-13.1-16.08s12.15,18.3,6.13,21.31-14.85-20.07-14.85-20.07,12,19.08,5.36,21.2c-5.06,1.6-14.24-18.85-14.24-18.85s10.25,16.47,5.11,18.35c-5.67,2.07-15.32-16.28-15.32-16.28-13.85,2.56-21.5-1.88-26.56-5.69C145.87,284.31,165.05,258.29,165.05,258.29Z" style="fill:#d3766a"></path><path d="M197.67,278.67c1.5,2.1,3,4.21,4.35,6.44s2.55,4.49,3.65,6.83a43.37,43.37,0,0,1,3.41,9.5c-1.79-5.73-6.37-13.77-7.68-16s-2.51-4.5-3.82-6.72C197.55,278.66,197.63,278.62,197.67,278.67Z" style="fill:#263238"></path><path d="M189.55,283.26c1.81,2.76,3.7,5.44,5.38,8.28s3,5.66,4.49,8.6c.12.23,0,.21-.16,0-1.6-2.88-3.29-5.41-4.92-8.27s-3.14-5.77-4.86-8.56A0,0,0,0,1,189.55,283.26Z" style="fill:#263238"></path><path d="M181.87,286a73.2,73.2,0,0,1,7.26,13.29c.11.23-.1.19-.22,0-2.33-4.46-4.12-8-7.18-13.15C181.68,286,181.81,285.87,181.87,286Z" style="fill:#263238"></path><path d="M167.08,257.47l-15.92,35.69s-36.49-3.83-39.36-10.78,14.41-22.54,27.64-25.28C149,255.13,167.08,257.47,167.08,257.47Z" style="fill:#407BFF"></path><path d="M127.17,261.92c3.56-2.1,13.66-7.05,23.59-5.68.11,0,.11.17,0,.17-8.18,0-19.88,3.87-23.51,5.65C127.15,262.1,127.08,262,127.17,261.92Z" style="fill:#263238"></path><path d="M144.1,288.18a37.39,37.39,0,0,1,1.64-3.87c.5-1.15,1-2.31,1.49-3.46,1.11-2.5,2.21-5,3.34-7.5s2.23-5,3.38-7.45,2.2-5,3.48-7.38c0-.09.19,0,.16.08-.78,2.6-1.84,5.12-2.84,7.65s-2.07,4.94-3.16,7.39-2.3,4.95-3.51,7.39c-.58,1.18-1.21,2.34-1.82,3.5a31.75,31.75,0,0,1-2,3.71A.07.07,0,0,1,144.1,288.18Z" style="fill:#263238"></path><path d="M166.67,258.39l.34-1,.06.11q-4.11-.46-8.24-.66c-2.74-.14-5.49-.19-8.23-.13a80.3,80.3,0,0,0-8.2.58,51.18,51.18,0,0,0-8.06,1.71,33.82,33.82,0,0,1,3.89-1.48c1.33-.39,2.69-.7,4.06-1a52.35,52.35,0,0,1,8.29-.84,69.8,69.8,0,0,1,8.31.31,66.86,66.86,0,0,1,8.21,1.33l.1,0,0,.09Z" style="fill:#263238"></path><path d="M179.78,208.27s-12.65-8.38-19.56-6.9l-6.67,5.16a1.82,1.82,0,0,1-2.25-.38c-2-2.77-2.28-8.92,3.19-14.81,5-5.4,17-6.62,25.33-5.94,7.94.65,12.92,4.37,11.47,9.74S179.78,208.27,179.78,208.27Z" style="fill:#407BFF"></path><path d="M180.13,205.8s7.6-7.76,7.84-11.62-7.76-6.05-12.78-6.59c-7.75-.82-12.69.55-16.13,5.22S180.13,205.8,180.13,205.8Z" style="opacity:0.1"></path><path d="M180.13,205.8c-3.46.91-10.81-3-13.41-7.93-.17-.34.39-3.86.87-8.16.28-2.61.53-5.53.57-8.21,0-.55,16.74,4.32,16.74,4.32a42.79,42.79,0,0,0-1.77,10.26,5.56,5.56,0,0,0,.1,1.1s0,.11,0,.18C183.56,199.46,183.83,204.83,180.13,205.8Z" style="fill:#d3766a"></path><path d="M183.23,197.18a1,1,0,0,1,0,.18,10.56,10.56,0,0,1-1.72.07c-9.88-.36-12.31-12.77-12.77-15.91,3,.47,16.14,4.3,16.14,4.3a42.92,42.92,0,0,0-1.77,10.27A6.31,6.31,0,0,0,183.23,197.18Z" style="fill:#263238"></path><path d="M163.46,162.66c-.88,6.17,4.87,22.69,9.64,25.83C180,193,190,192,193.57,184c3.43-7.78-4.44-29.17-9.65-31.89C176.25,148.11,164.76,153.56,163.46,162.66Z" style="fill:#d3766a"></path><path d="M182.34,170.5s-.07.09-.05.13c.42,1.1.71,2.44-.17,3.15,0,0,0,.08,0,.06C183.32,173.25,182.91,171.48,182.34,170.5Z" style="fill:#263238"></path><path d="M181,169.68c-1.84.48-.75,4.12,1,3.68S182.49,169.28,181,169.68Z" style="fill:#263238"></path><path d="M188.55,168.84c0-.05.11,0,.12.07.3,1.14.84,2.39,2,2.46a0,0,0,0,1,0,.07C189.35,171.64,188.66,170,188.55,168.84Z" style="fill:#263238"></path><path d="M189.21,167.36c1.77-.68,3,2.91,1.36,3.54S187.72,167.93,189.21,167.36Z" style="fill:#263238"></path><path d="M179,168.45c.46-.28.84-.61,1.26-.92s.9-.6,1.11-1.19a.8.8,0,0,0-.4-.89,2,2,0,0,0-2,.38,2.94,2.94,0,0,0-1.25,1.7A.86.86,0,0,0,179,168.45Z" style="fill:#263238"></path><path d="M190.1,165a13.56,13.56,0,0,1-1.56.06,2.5,2.5,0,0,1-1.6-.24.8.8,0,0,1-.24-1,2,2,0,0,1,1.79-.92,2.86,2.86,0,0,1,2,.56A.85.85,0,0,1,190.1,165Z" style="fill:#263238"></path><path d="M183.78,181.44c.35.18.73.47,1.15.38a3.21,3.21,0,0,0,1.13-.65s.08,0,.06,0a1.57,1.57,0,0,1-1.25,1,1.24,1.24,0,0,1-1.18-.73C183.65,181.46,183.73,181.41,183.78,181.44Z" style="fill:#263238"></path><path d="M184,177.7a4,4,0,0,0,3.07,1,5.23,5.23,0,0,0,1.4-.35l.26-.11.23-.12a.29.29,0,0,0,.16-.32h0a.56.56,0,0,0,0-.12h0l0-.1c-.23-.88-.71-2.18-.71-2.18.36.07,2.2.31,2-.13a60.07,60.07,0,0,0-5-11.19.11.11,0,0,0-.19.09c1.15,3.6,2.94,7,4.15,10.57a7.23,7.23,0,0,0-2,0c-.12.07,1,2.49,1,2.89a.12.12,0,0,1,0,.05,5.57,5.57,0,0,1-4.35-.05C183.93,177.53,183.86,177.64,184,177.7Z" style="fill:#263238"></path><path d="M187.79,178a4.77,4.77,0,0,1-1.4,2,2.1,2.1,0,0,1-1.23.45c-1,0-1.24-.79-1.28-1.54a5.14,5.14,0,0,1,.08-1.21A6.14,6.14,0,0,0,187.79,178Z" style="fill:#263238"></path><path d="M186.39,180a2.1,2.1,0,0,1-1.23.45c-1,0-1.24-.79-1.28-1.54A2.22,2.22,0,0,1,186.39,180Z" style="fill:#ff9bbc"></path><path d="M189.71,188.83a12.08,12.08,0,0,0,2.88-3.38,16,16,0,0,0,1-2c.28-.69.49-1.41.72-2.14,0,.38-.05.76-.1,1.14s-.14.76-.26,1.12a9.24,9.24,0,0,1-.89,2.13,9.06,9.06,0,0,1-1.42,1.83A6.26,6.26,0,0,1,189.71,188.83Z" style="fill:#263238"></path><path d="M168.13,178.31c2.92-1.13,1.14-8.8,1.14-8.8s3.43-2.32,2.95-9.56c0,0,4.22,6.23,16.4,1.69a11.05,11.05,0,0,0-2.49-6.32,47.45,47.45,0,0,1,4.8,6s.48-11.15-9.31-12.69c-3.89-.61-9.21,1-16.42,7,0,0-2.75-4.53-3.54-3.66s2.13,5,2.13,5-3.86-.24-4.28.65,3.31.85,3.31.85a7.32,7.32,0,0,0-2.63,9.2C162.43,173.31,166.68,178.88,168.13,178.31Z" style="fill:#263238"></path><path d="M163.8,158.17a6.67,6.67,0,0,0-5.32,7.09,12.45,12.45,0,0,0,2.06,5.24,23.7,23.7,0,0,0,3.89,4.47c.09.08.19-.06.11-.13a17.77,17.77,0,0,1-3.3-4.31,16.56,16.56,0,0,1-2-4.8,6.41,6.41,0,0,1,4.61-7.38C164,158.32,163.9,158.14,163.8,158.17Z" style="fill:#263238"></path><path d="M174,148.62a26.56,26.56,0,0,0-5.6,3.74,18.91,18.91,0,0,0-4.23,4.78.08.08,0,1,0,.13.1,33.88,33.88,0,0,1,9.58-7.57c3.29-1.86,7.48-2.87,10.86-.64a.06.06,0,0,0,.07-.09C181.71,146.51,177.42,147,174,148.62Z" style="fill:#263238"></path><path d="M169.94,176.05s-4.79-4.81-7-3,2,9.24,5.14,9.82a3,3,0,0,0,3.7-2.3Z" style="fill:#d3766a"></path><path d="M164.18,175.14a0,0,0,0,0,0,.09c2.19.46,3.6,2.17,4.7,4a1.66,1.66,0,0,0-2.53,0c0,.05,0,.12.08.1a1.85,1.85,0,0,1,2.12.28,9.73,9.73,0,0,1,1.25,1.46c.12.17.44,0,.33-.19l0,0C169.7,178.21,167,174.91,164.18,175.14Z" style="fill:#263238"></path><path d="M180.13,205.8s-11.2-13-22.21-12.57l2.34,7.92s6.42-1.13,19.52,7.12Z" style="fill:#407BFF"></path><path d="M157.39,201.81a14,14,0,0,1,5.9-.25,25.77,25.77,0,0,1,5.73,1.52,46.92,46.92,0,0,1,5.4,2.47L177,207l2.52,1.6.28.18.25-.18a51.89,51.89,0,0,0,5.17-4.53,28,28,0,0,0,2.31-2.55,17.37,17.37,0,0,0,1.9-2.84,30.54,30.54,0,0,1-4.62,4.95c-.85.76-1.72,1.47-2.61,2.17s-1.78,1.41-2.69,2H180l-2.53-1.67c-.87-.53-1.75-1-2.63-1.53s-1.81-.91-2.73-1.33-1.87-.8-2.84-1.09a23.82,23.82,0,0,0-6-1.27c-.5-.05-1,0-1.52-.05s-1,0-1.52.1A8.81,8.81,0,0,0,157.39,201.81Z" style="fill:#263238"></path><path d="M153.63,206.38a30.06,30.06,0,0,0,3.45-2.31,28.84,28.84,0,0,0,3.14-2.7,30.18,30.18,0,0,0-3.46,2.31A32.24,32.24,0,0,0,153.63,206.38Z" style="fill:#263238"></path><path d="M175,203.15a60.86,60.86,0,0,0-.15,10.39c.16,2.41,1.83,11,4.48,10.44s-2.19-5.75-3.35-10.24-.22-7.94-.29-10.69Z" style="fill:#407BFF"></path><g style="opacity:0.1"><path d="M175,203.15a60.86,60.86,0,0,0-.15,10.39c.16,2.41,1.83,11,4.48,10.44s-2.19-5.75-3.35-10.24-.22-7.94-.29-10.69Z"></path></g><path d="M184.73,201.75a54.26,54.26,0,0,1,2.78,9c.48,2.15,1.21,10-1.23,10.23s.44-5.56.3-9.77-1.83-7-2.47-9.37Z" style="fill:#407BFF"></path><g style="opacity:0.1"><path d="M184.73,201.75a54.26,54.26,0,0,1,2.78,9c.48,2.15,1.21,10-1.23,10.23s.44-5.56.3-9.77-1.83-7-2.47-9.37Z"></path></g></g><g id="freepik--speech-bubble--inject-5"><path d="M205,148.19a13.54,13.54,0,0,1-2.32-7.5c0-9.51,10.44-17.22,23.31-17.22s23.31,7.71,23.31,17.22S238.86,157.91,226,157.91a28,28,0,0,1-16.08-4.77l-8,2Z" style="fill:#fffefd"></path><path d="M205,148.19a13.3,13.3,0,0,1-.61-14.42,18.41,18.41,0,0,1,5.14-5.62,24.83,24.83,0,0,1,6.79-3.49,30.62,30.62,0,0,1,15.12-1.14,26.86,26.86,0,0,1,7.31,2.27,22.92,22.92,0,0,1,6.33,4.36,16.37,16.37,0,0,1,4.09,6.54,13.26,13.26,0,0,1,.07,7.74,16,16,0,0,1-4,6.6,22.61,22.61,0,0,1-6.27,4.44,30,30,0,0,1-14.92,2.73,27.67,27.67,0,0,1-14.28-4.87l.19,0-8.06,1.94-.24.06.1-.22Zm0,0-3,7-.14-.16,8-2.15.1,0,.09.06a27.36,27.36,0,0,0,14.07,4.54,31.34,31.34,0,0,0,7.43-.52,26.91,26.91,0,0,0,7.06-2.3,21.77,21.77,0,0,0,6-4.28,15.07,15.07,0,0,0,3.72-6.23,12.33,12.33,0,0,0-.09-7.17,15.2,15.2,0,0,0-3.82-6.16,21.57,21.57,0,0,0-6-4.21,26.13,26.13,0,0,0-7.07-2.24,31.11,31.11,0,0,0-14.75,1A21.08,21.08,0,0,0,204.77,134a13.32,13.32,0,0,0-2,7.1A13.85,13.85,0,0,0,205,148.19Z" style="fill:#263238"></path><path d="M234.37,140.69a2.42,2.42,0,1,0,2.42-2.42A2.42,2.42,0,0,0,234.37,140.69Z" style="fill:#263238"></path><path d="M223.57,140.69a2.42,2.42,0,1,0,2.42-2.42A2.41,2.41,0,0,0,223.57,140.69Z" style="fill:#263238"></path><path d="M212.77,140.69a2.42,2.42,0,1,0,2.42-2.42A2.41,2.41,0,0,0,212.77,140.69Z" style="fill:#263238"></path></g><g id="freepik--Plant--inject-5"><path d="M429.65,401.93s7.63-27.37,13.72-36.67,17.45-19.51,17.45-19.51S460.55,388,429.65,401.93Z" style="fill:#407BFF"></path><path d="M430.2,401.47a131.65,131.65,0,0,0,6.95-13.27,92.34,92.34,0,0,1,3.79-14.39c0-.09.16,0,.14,0-1,4.33-2.19,8.62-3.26,12.93,3.08-6.66,6-13.41,9.67-19.71a42.16,42.16,0,0,1,3.53-8.76c0-.08.18,0,.14.05a56.08,56.08,0,0,0-2.38,6.57,65.11,65.11,0,0,1,5.79-8c.14-.15.41,0,.27.19-4.9,6.26-8.28,13.37-11.51,20.58a108.76,108.76,0,0,0,9.57-12,0,0,0,0,1,.07,0,97.68,97.68,0,0,1-10.25,13.28c-2.35,5.28-4.65,10.59-7.45,15.61,5.59-4.73,9.89-10.84,14.15-16.75a.13.13,0,0,1,.21.15c-4.26,6.47-8.67,12.57-14.8,17.37a68.57,68.57,0,0,1-4.09,6.4A.33.33,0,0,1,430.2,401.47Z" style="fill:#263238"></path><path d="M427.29,404.4S441,379.16,437,354.68s-8.25-33.19-8.25-33.19S407.22,359.56,427.29,404.4Z" style="fill:#407BFF"></path><path d="M421.66,364.72A120.12,120.12,0,0,0,427,385.1c0-9,.21-18,.45-27a69.09,69.09,0,0,1-2.58-16.72c0-.17.24-.16.25,0a95.74,95.74,0,0,0,2.4,14.4q.31-11.11.73-22.23a.1.1,0,0,1,.19,0c0,11.57,0,23.14-.08,34.72a92.45,92.45,0,0,0,3.95-13.75c0-.05.09,0,.08,0a53.82,53.82,0,0,1-4,15.65c-.06,7.4-.14,14.79-.3,22.19,2.32-7.86,4.8-15.48,5.47-23.79a.09.09,0,0,1,.17,0c-.18,9.17-2.54,18.47-5.57,27.09a.51.51,0,0,1-.15.22q-.1,4.05-.24,8.11a.3.3,0,0,1-.6,0c-.11-5.54-.14-11.07-.13-16.6a74.46,74.46,0,0,1-5.41-22.72A.06.06,0,0,1,421.66,364.72Z" style="fill:#263238"></path><path d="M422.6,360.81a47,47,0,0,1,1,6.67.07.07,0,0,1-.13,0,46.89,46.89,0,0,1-1.13-6.65C422.28,360.68,422.57,360.64,422.6,360.81Z" style="fill:#263238"></path><path d="M430.62,342.36c0-.08.13-.05.13,0a17.08,17.08,0,0,1-.69,4.6c0,.12-.21.06-.19-.06C430.17,345.41,430.36,343.88,430.62,342.36Z" style="fill:#263238"></path><path d="M422.29,406.33s.56-26.35-7-39.45a56.87,56.87,0,0,0-20.1-19.77S400.25,393.56,422.29,406.33Z" style="fill:#407BFF"></path><path d="M408.51,383.8a98.64,98.64,0,0,0,10.23,13q-2.26-8.07-5.23-15.89c-4.24-3.71-8.44-7.56-11-12.65,0-.08.08-.15.12-.07,2.8,4.5,6.54,8.11,10.47,11.57a203.88,203.88,0,0,0-10.52-22.91.17.17,0,0,1,.29-.17,127.38,127.38,0,0,1,6.6,12c-.71-2.81-1.28-5.69-2-8.49,0-.08.1-.1.12,0a47.8,47.8,0,0,1,3.11,11.17,134.46,134.46,0,0,1,6.65,18c-.19-4-.44-7.89-.85-11.83,0-.07.12-.09.13,0a64.21,64.21,0,0,1,1.15,13.27q1.63,5.89,2.74,11.9c0,.11-.14.16-.16.05-.41-1.68-.86-3.34-1.31-5,0,0-.06,0-.09,0a53.34,53.34,0,0,1-10.44-13.87S408.5,383.77,408.51,383.8Z" style="fill:#263238"></path><path d="M399.76,362.36c.84.91,1.61,1.86,2.42,2.8a21.83,21.83,0,0,1,2.18,2.54,0,0,0,0,1-.06.06,12.82,12.82,0,0,1-2.51-2.48,20.29,20.29,0,0,1-2.15-2.83A.08.08,0,0,1,399.76,362.36Z" style="fill:#263238"></path><path d="M444.75,403.11l-1,12.49-2.87,37.73h-25L413,415.6l-.95-12.49h32.69Z" style="fill:#455a64"></path><path d="M444.75,403.11l-1,12.49H413l-.95-12.49h32.69Z" style="fill:#37474f"></path><rect x="409.83" y="396.99" width="37.14" height="9.57" transform="translate(856.8 803.55) rotate(180)" style="fill:#455a64"></rect></g></svg>