<svg width="1040" height="511" viewBox="0 0 1040 511" fill="none" xmlns="http://www.w3.org/2000/svg">
<g clip-path="url(#clip0_63:2)">
<rect width="1040" height="511" fill="#365BA3"/>
<path d="M91.5578 315.875C100.588 378.35 78.0129 456.313 47.6979 497.788C17.2539 539.263 -20.9301 544.512 -47.1171 507.762C-73.3041 471.012 -87.4941 392.263 -77.4321 327.163C-67.4991 261.8 -33.1851 210.088 4.22488 207.988C41.7639 205.888 82.3988 253.4 91.5578 315.875Z" fill="white"/>
<path d="M675.025 342.318C695.1 364.789 718.75 393.274 727.137 437.584C735.525 481.894 728.65 542.346 715.587 593.619C702.387 645.208 683 688.252 660.037 707.559C636.937 726.549 610.125 722.434 590.6 695.848C571.075 669.262 558.837 620.205 543.025 569.881C527.212 519.874 507.962 467.968 509.612 421.126C511.262 373.968 533.95 331.873 556.225 310.035C578.637 288.513 600.5 286.93 619.612 294.843C638.862 302.439 655.087 319.53 675.025 342.318Z" fill="white"/>
<path d="M321.864 357.805C344.607 424.495 351.96 507.858 332.637 560.215C313.314 612.865 267.657 634.803 229.524 627.49C191.391 619.885 160.782 583.03 139.236 528.04C117.519 473.343 104.865 400.218 120.255 341.133C135.474 281.755 178.737 236.418 219.606 238.758C260.475 241.098 298.95 291.115 321.864 357.805Z" fill="white"/>
<path d="M803.595 324.776C834.277 348.25 865.585 377.098 878.943 417.259C892.301 457.703 887.5 509.459 875.812 558.67C864.124 607.598 845.548 653.699 817.371 672.648C789.194 691.597 750.998 683.395 711.968 685.375C672.938 687.072 632.864 699.233 601.764 681.415C570.874 663.597 548.75 616.083 546.245 568.852C543.741 521.62 560.856 474.389 577.553 434.228C594.251 393.785 610.739 360.412 633.281 333.261C655.823 306.11 684.417 285.464 713.638 284.05C742.858 282.918 772.705 301.302 803.595 324.776Z" fill="white"/>
<path d="M387.458 364.818C400.598 398.387 406.292 431.472 410.526 465.765C414.76 500.058 417.534 535.317 410.088 565.263C402.642 595.209 384.976 619.601 363.66 636.747C342.198 654.135 316.94 664.52 298.252 650.754C279.564 637.23 267.3 599.556 260.292 564.297C253.138 529.038 251.386 496.194 248.904 453.207C246.422 410.22 243.356 357.573 257.226 324.246C271.096 290.919 302.048 277.153 327.89 287.296C353.586 297.439 374.318 331.491 387.458 364.818Z" fill="white"/>
<g clip-path="url(#clip1_63:2)">
<path d="M445.484 291.25C461.326 307.385 476.278 321.445 485.356 340.116C494.256 359.017 497.46 382.758 498.884 407.652C500.486 432.546 500.308 458.363 495.858 487.636C491.408 516.679 482.686 549.179 465.42 571.538C447.976 594.127 421.988 606.804 395.288 608.418C368.766 609.801 341.354 599.889 321.062 579.605C300.77 559.321 287.242 528.665 286.886 498.008C286.352 467.352 298.812 436.926 305.932 411.801C313.23 386.907 315.188 367.084 319.994 346.339C324.8 325.594 332.632 303.697 345.804 285.718C358.976 267.739 377.488 253.448 395.11 255.292C412.732 257.366 429.642 275.345 445.484 291.25Z" fill="white"/>
</g>
<path d="M584.007 300.646C601.848 332.455 607.603 370.287 611.824 404.265C616.236 438.483 619.305 469.086 609.522 490.774C599.93 512.703 577.676 525.474 558.109 548.607C538.733 571.5 522.043 604.754 496.721 619.695C471.206 634.876 437.251 631.743 418.451 608.369C399.651 584.994 396.389 541.378 394.279 504.268C392.361 467.159 391.785 436.314 398.5 407.638C405.022 378.962 418.643 352.214 437.635 320.888C456.627 289.32 480.99 252.933 508.423 247.632C535.664 242.572 565.974 268.597 584.007 300.646Z" fill="white"/>
<path d="M198.608 330.261C223.539 369.014 242.179 411.29 238.218 454.108C234.024 496.926 207.695 540.286 168.551 567.657C129.64 595.028 78.147 606.41 43.663 584.188C9.41197 561.966 -7.83004 506.14 -12.257 454.921C-16.917 403.702 -8.76204 357.09 13.839 318.608C36.673 280.397 73.72 250.316 108.204 253.026C142.455 255.736 173.677 291.237 198.608 330.261Z" fill="white"/>
<path d="M918.161 494.335C881.345 559.711 757.474 571.629 732.547 512.382C707.619 453.475 780.868 323.064 842.995 316.935C904.738 311.146 954.977 429.3 918.161 494.335Z" fill="white"/>
<path d="M1015.59 382.587C1029.72 433.464 1011.04 497.014 975.939 525.044C941.004 553.075 889.494 545.395 864.47 518.517C839.446 491.446 841.071 444.984 852.771 397.946C864.47 350.716 886.406 302.91 920.53 298.303C954.816 293.503 1001.61 331.709 1015.59 382.587Z" fill="white"/>
<path d="M1112.92 329.744C1130.15 363.832 1144.01 394.889 1141.04 424.432C1138.07 454.227 1118.27 483.012 1090.35 506.494C1062.43 529.724 1026.39 548.157 1000.85 534.017C975.508 519.877 960.658 473.669 948.976 422.412C937.096 371.154 928.582 314.847 946.798 280.507C964.816 246.167 1009.76 233.794 1042.43 246.167C1075.3 258.539 1095.69 295.909 1112.92 329.744Z" fill="white"/>
</g>
<defs>
<clipPath id="clip0_63:2">
<rect width="1040" height="511" fill="white"/>
</clipPath>
<clipPath id="clip1_63:2">
<rect width="356" height="461" fill="white" transform="translate(218 176)"/>
</clipPath>
</defs>
</svg>
