<svg xmlns="http://www.w3.org/2000/svg" viewBox="0 0 500 500"><g id="freepik--background-complete--inject-2"><path d="M417,366.55a34.58,34.58,0,0,1,9.19-22.84C429,355.17,417,366.55,417,366.55Z" style="fill:#ebebeb"></path><path d="M430.36,360.09a34.53,34.53,0,0,1,24.61-.68C445.57,366.52,430.36,360.09,430.36,360.09Z" style="fill:#ebebeb"></path><path d="M431.88,352.66a27.23,27.23,0,0,1,3.34-19.13C439.25,341.93,431.88,352.66,431.88,352.66Z" style="fill:#ebebeb"></path><path d="M380.27,325.87c19.51,5.2,30,22.16,30,22.16C393.57,348,380.27,325.87,380.27,325.87Z" style="fill:#ebebeb"></path><path d="M411.43,333.87C410.41,312.84,431,289,431,289c-3.11,26.11-19.54,44.83-19.54,44.83" style="fill:#ebebeb"></path><path d="M411.33,274a56.37,56.37,0,0,1-7.39,30.12C401,290.57,411.33,274,411.33,274Z" style="fill:#ebebeb"></path><path d="M403.4,316.7c-15.37-1.65-23.74-16.94-23.74-16.94C398.26,305,403.4,316.7,403.4,316.7Z" style="fill:#ebebeb"></path><path d="M370.24,381a34.57,34.57,0,0,1,24.17-4.65C386.29,384.88,370.24,381,370.24,381Z" style="fill:#ebebeb"></path><path d="M410.08,387.89a22.64,22.64,0,0,1-10.33,11.64C400.41,392.44,410.08,387.89,410.08,387.89Z" style="fill:#ebebeb"></path><path d="M408.1,385.63c-8.74,5.38-18.39,3.28-18.39,3.28C395.63,382.74,408.1,385.63,408.1,385.63Z" style="fill:#ebebeb"></path><path d="M416,413.94a1.3,1.3,0,0,1,0-.31c0-.25,0-.55,0-.92v-3.53c0-1.52,0-3.4,0-5.57s0-4.64-.16-7.38c-.13-5.46-.52-12-1.08-19.17s-1.5-15.11-2.7-23.36c-2.43-16.52-5.75-31.28-8.42-41.88-1.35-5.3-2.48-9.58-3.31-12.53-.38-1.43-.69-2.57-.92-3.4-.08-.36-.16-.65-.22-.89a1.43,1.43,0,0,1-.05-.31,1.18,1.18,0,0,1,.12.29c.08.23.17.52.29.87l1,3.37c.91,2.92,2.12,7.18,3.52,12.48a390.55,390.55,0,0,1,8.63,41.9c1.21,8.27,2.06,16.19,2.65,23.41s.87,13.73.94,19.21c.08,2.74.05,5.22.05,7.39s0,4.05-.08,5.58-.1,2.66-.13,3.52c0,.37,0,.67-.05.92S416,413.94,416,413.94Z" style="fill:#e0e0e0"></path><path d="M387.74,369.43c.11-.16,6.33,3.91,13.88,9.09s13.6,9.51,13.49,9.67-6.32-3.92-13.88-9.1S387.64,369.58,387.74,369.43Z" style="fill:#e0e0e0"></path><path d="M415.11,371.67a5.41,5.41,0,0,1,1-1.05l2.77-2.66c2.49-2.34,5.69-5.35,9.24-8.67l9.24-8.66,2.8-2.63a6,6,0,0,1,1.08-.91s-.28.42-.89,1.1-1.52,1.62-2.65,2.78c-2.28,2.32-5.49,5.44-9.11,8.82s-6.95,6.39-9.39,8.53c-1.21,1.07-2.21,1.92-2.91,2.5A5.57,5.57,0,0,1,415.11,371.67Z" style="fill:#e0e0e0"></path><path d="M368,359.46s15.88-.3,22.61,12.21A28.63,28.63,0,0,1,368,359.46Z" style="fill:#ebebeb"></path><path d="M389.71,353.08s12.93,9.23,10.87,23.28A28.62,28.62,0,0,1,389.71,353.08Z" style="fill:#ebebeb"></path><path d="M457.85,330.34s-5.1,17.79-21.33,21A33.35,33.35,0,0,1,457.85,330.34Z" style="fill:#ebebeb"></path><path d="M382.65,264.22s20.27,13.22,18,34.73A43.56,43.56,0,0,1,382.65,264.22Z" style="fill:#ebebeb"></path><path d="M450.12,381.84a9.07,9.07,0,0,1-1.32,1.06c-.88.63-2.12,1.57-3.64,2.78A89,89,0,0,0,425.11,408c-1,1.63-1.84,3-2.38,3.91a6.61,6.61,0,0,1-.91,1.42,7.93,7.93,0,0,1,.68-1.54c.46-1,1.21-2.37,2.19-4.05a77.36,77.36,0,0,1,20.18-22.46c1.56-1.16,2.85-2.05,3.78-2.62A7.86,7.86,0,0,1,450.12,381.84Z" style="fill:#e0e0e0"></path><path d="M432.48,395.05a34.57,34.57,0,0,1,4.65-24.18C439.31,386,432.48,395.05,432.48,395.05Z" style="fill:#ebebeb"></path><path d="M446.12,387.61a25.11,25.11,0,0,1,17.69-2.74C454,390.06,446.12,387.61,446.12,387.61Z" style="fill:#ebebeb"></path><polygon points="386.41 415.59 394.01 465.57 438.2 465.57 448.45 416.32 386.41 415.59" style="fill:#ebebeb"></polygon><path d="M442.28,447.63c0,.14-11.33.26-25.29.26s-25.29-.12-25.29-.26,11.32-.26,25.29-.26S442.28,447.48,442.28,447.63Z" style="fill:#fafafa"></path><path d="M442.45,445.17c0,.14-11.4.26-25.46.26s-25.46-.12-25.46-.26,11.4-.26,25.46-.26S442.45,445,442.45,445.17Z" style="fill:#fafafa"></path><path d="M442.36,442.39c0,.15-11.4.26-25.46.26s-25.46-.11-25.46-.26,11.4-.26,25.46-.26S442.36,442.25,442.36,442.39Z" style="fill:#fafafa"></path><path d="M399.09,462.72a78.47,78.47,0,0,1-2.2-12.67,39.37,39.37,0,0,1,1.35,6.29A40.41,40.41,0,0,1,399.09,462.72Z" style="fill:#fafafa"></path><path d="M402.09,462.19a50.5,50.5,0,0,1-.54-6.14,47.68,47.68,0,0,1-.29-6.16,30,30,0,0,1,.8,6.13A29,29,0,0,1,402.09,462.19Z" style="fill:#fafafa"></path><path d="M407.57,462.19a49.67,49.67,0,0,1-1.48-12.69,60,60,0,0,1,.85,6.33A55.35,55.35,0,0,1,407.57,462.19Z" style="fill:#fafafa"></path><path d="M411.42,462.45a30.9,30.9,0,0,1-.61-6.39,31.47,31.47,0,0,1,.19-6.43,53,53,0,0,1,.32,6.41A55.51,55.51,0,0,1,411.42,462.45Z" style="fill:#fafafa"></path><path d="M418.23,462.19a34.22,34.22,0,0,1-.47-6.07,37.05,37.05,0,0,1,.05-6.09,34.48,34.48,0,0,1,.47,6.07A37,37,0,0,1,418.23,462.19Z" style="fill:#fafafa"></path><path d="M423.2,462.46a38.51,38.51,0,0,1-.21-6.29,38.92,38.92,0,0,1,.31-6.27,38.25,38.25,0,0,1,.21,6.28A39,39,0,0,1,423.2,462.46Z" style="fill:#fafafa"></path><path d="M427.86,461.79a84.22,84.22,0,0,1,1.27-13.08,84.54,84.54,0,0,1-1.27,13.08Z" style="fill:#fafafa"></path><path d="M433.87,461.13a34.86,34.86,0,0,1,2.39-11,48.5,48.5,0,0,1-1.14,5.5A48.47,48.47,0,0,1,433.87,461.13Z" style="fill:#fafafa"></path><path d="M381.34,405.7v9.35a3.68,3.68,0,0,0,3.68,3.68h64a3.69,3.69,0,0,0,3.69-3.68V405.7Z" style="fill:#ebebeb"></path><polygon points="386.88 418.73 387.42 421.71 446.46 425.92 447.95 418.73 386.88 418.73" style="fill:#e0e0e0"></polygon><rect x="26.26" y="57.36" width="81.01" height="117.42" style="fill:#e0e0e0"></rect><rect x="22.2" y="57.36" width="81.01" height="117.42" style="fill:#f5f5f5"></rect><rect x="32.26" y="70.07" width="60.88" height="91.98" style="fill:#fff"></rect><path d="M93.14,162.06s0-.16,0-.45,0-.74,0-1.31c0-1.15,0-2.85,0-5,0-4.41,0-10.84-.06-18.95,0-16.22-.06-39.19-.1-66.24l.2.2-60.87,0h0l.22-.22c0,34.7,0,66.7,0,92l-.18-.18,44.32.09,12.24.05L92,162c.73,0,1.11,0,1.11,0H92.07l-3.18,0-12.2,0-44.43.09h-.17v-.17c0-25.29,0-57.29-.05-92v-.22h.23l60.87,0h.21v.2c0,27.1-.08,50.12-.1,66.37,0,8.1,0,14.51-.06,18.9,0,2.18,0,3.86,0,5,0,.56,0,1,0,1.28S93.14,162.06,93.14,162.06Z" style="fill:#e0e0e0"></path><path d="M103.44,57.36A16.32,16.32,0,0,1,102,59.45c-.94,1.26-2.28,3-3.8,4.82s-3,3.49-4,4.66a14.16,14.16,0,0,1-1.79,1.82,16.31,16.31,0,0,1,1.55-2L97.85,64l3.9-4.73A14.06,14.06,0,0,1,103.44,57.36Z" style="fill:#e0e0e0"></path><path d="M93.45,161.76A76,76,0,0,0,104.07,175" style="fill:#fff"></path><path d="M104.07,175a12.58,12.58,0,0,1-1.85-1.68,60.31,60.31,0,0,1-7.53-9.42,13.41,13.41,0,0,1-1.24-2.18,17.17,17.17,0,0,1,1.5,2c.89,1.25,2.14,3,3.61,4.8s2.86,3.43,3.89,4.58A16.33,16.33,0,0,1,104.07,175Z" style="fill:#e0e0e0"></path><path d="M22.19,174.68,32.8,161.59" style="fill:#fff"></path><path d="M32.8,161.59a82.78,82.78,0,0,1-5.13,6.68,82.51,82.51,0,0,1-5.48,6.41A77.52,77.52,0,0,1,27.32,168,77.66,77.66,0,0,1,32.8,161.59Z" style="fill:#e0e0e0"></path><path d="M22.2,57.36a71.92,71.92,0,0,1,5.15,6.15,72.9,72.9,0,0,1,4.8,6.43A74.17,74.17,0,0,1,27,63.79,75.42,75.42,0,0,1,22.2,57.36Z" style="fill:#e0e0e0"></path><rect x="53.79" y="88.75" width="20.38" height="57.88" style="fill:#e0e0e0"></rect><rect x="383.35" y="62.24" width="81.01" height="117.42" style="fill:#e0e0e0"></rect><rect x="379.29" y="62.24" width="81.01" height="117.42" style="fill:#f5f5f5"></rect><rect x="389.36" y="74.96" width="60.88" height="91.98" style="fill:#fff"></rect><path d="M450.24,166.94s0-.15,0-.45,0-.73,0-1.3c0-1.16,0-2.85,0-5.05,0-4.4,0-10.83-.06-18.94,0-16.22-.05-39.19-.09-66.24l.2.2-60.87,0h0l.22-.22c0,34.7,0,66.69-.05,92l-.17-.17,44.31.09,12.24,0h3.22l1.11,0s-.36,0-1.08,0L446,167l-12.2.05-44.42.09h-.18v-.18c0-25.29,0-57.28,0-92v-.22h.23l60.87,0h.2V75c0,27.1-.08,50.12-.1,66.37,0,8.09,0,14.5,0,18.9,0,2.18,0,3.86,0,5,0,.55,0,1,0,1.28S450.24,166.94,450.24,166.94Z" style="fill:#e0e0e0"></path><path d="M460.53,62.24a13.48,13.48,0,0,1-1.44,2.1c-.95,1.26-2.28,3-3.81,4.82s-2.94,3.49-4,4.66a14.58,14.58,0,0,1-1.78,1.82,14.79,14.79,0,0,1,1.54-2c1.09-1.31,2.43-2.94,3.9-4.73s2.82-3.41,3.9-4.73A14.65,14.65,0,0,1,460.53,62.24Z" style="fill:#e0e0e0"></path><path d="M450.55,166.65a75,75,0,0,0,10.62,13.28" style="fill:#fff"></path><path d="M461.17,179.93a12.09,12.09,0,0,1-1.86-1.69,58.26,58.26,0,0,1-4-4.51,59.06,59.06,0,0,1-3.53-4.91,11.74,11.74,0,0,1-1.23-2.17,16.83,16.83,0,0,1,1.49,2c.89,1.25,2.15,3,3.61,4.8s2.87,3.43,3.89,4.58A17.23,17.23,0,0,1,461.17,179.93Z" style="fill:#e0e0e0"></path><path d="M379.28,179.57l10.61-13.09" style="fill:#fff"></path><path d="M389.89,166.48a79.37,79.37,0,0,1-5.13,6.68,79.75,79.75,0,0,1-5.48,6.41,82.72,82.72,0,0,1,5.14-6.69A82.11,82.11,0,0,1,389.89,166.48Z" style="fill:#e0e0e0"></path><path d="M379.29,62.24a70.94,70.94,0,0,1,5.15,6.16,75.11,75.11,0,0,1,4.81,6.43,71.2,71.2,0,0,1-5.15-6.16A73.32,73.32,0,0,1,379.29,62.24Z" style="fill:#e0e0e0"></path><rect x="410.89" y="93.64" width="20.38" height="57.88" style="fill:#e0e0e0"></rect></g><g id="freepik--Floor--inject-2"><path d="M467.1,466.42c0,.15-96.76.26-216.09.26s-216.11-.11-216.11-.26,96.74-.26,216.11-.26S467.1,466.28,467.1,466.42Z" style="fill:#263238"></path></g><g id="freepik--Window--inject-2"><rect x="140.84" y="25.1" width="218.31" height="441.32" style="fill:#f5f5f5"></rect><path d="M359.16,466.42c0-2.27-.11-183.82-.25-441.32l.25.24-218.28,0h0l.26-.26c0,170.46,0,325.79-.06,441.32l-.2-.19,218.32.19-218.32.2h-.19v-.2c0-115.53,0-270.86-.07-441.32v-.26H359.4v.25C359.26,282.6,359.16,464.16,359.16,466.42Z" style="fill:#263238"></path><rect x="156.33" y="40.53" width="187.35" height="410.52" style="fill:#455a64"></rect><g style="opacity:0.1"><path d="M319.57,125.4c-4.4-10.48-14.64-18.82-26-19.05-7.8-.16-17.05,2.85-22.48-2.76-5-5.17-2.5-14,2-19.61,2.82-3.49,6.29-6.45,8.73-10.21s3.69-8.76,1.59-12.72C281,56.43,275.15,55,270,54.25c-13.29-1.9-29.11-2.11-42,2.77-24.64,7.23-43.51,34.69-46.08,60.25-1,9.84-1.06,16.74,6.3,23.36,8.11,7.3,20.26,7.18,31.17,6.63L245,146c3.73-.19,7.67-.33,11,1.43,6.76,3.61,7.35,13.59,3.68,20.33S249.46,179,244,184.38s-10.36,12.6-9,20.15c1.07,6,6.13,10.9,11.95,12.86s12.25,1.37,18.12-.44c15.19-4.66,26.88-16.72,36.77-29.15,7.07-8.89,13.69-18.37,17.52-29.07S324,135.89,319.57,125.4Z" style="fill:#fff"></path></g><path d="M208.3,100.6A18.72,18.72,0,0,1,193.05,71a18.72,18.72,0,1,0,26.11,26.11A18.6,18.6,0,0,1,208.3,100.6Z" style="fill:#fff"></path><path d="M215,106.07a4.12,4.12,0,0,1-.87.62,16.86,16.86,0,0,1-2.59,1.31,20.1,20.1,0,0,1-9.45,1.35,19.88,19.88,0,0,1-9-3.23,16.94,16.94,0,0,1-2.29-1.8,3.5,3.5,0,0,1-.71-.78c.06-.08,1.13,1,3.2,2.27a20.66,20.66,0,0,0,18.1,1.84C213.65,106.82,214.92,106,215,106.07Z" style="fill:#fff"></path><path d="M208.23,111.33a12.74,12.74,0,0,1-8.54-.78c.05-.15,1.9.4,4.25.61S208.21,111.17,208.23,111.33Z" style="fill:#fff"></path><polygon points="262.62 450.73 196.96 451.01 196.96 243.19 262.62 243.19 262.62 450.73" style="fill:#263238"></polygon><polygon points="262.62 451 229.79 451.13 229.79 243.19 262.62 243.19 262.62 451" style="fill:#263238"></polygon><rect x="204.46" y="222.76" width="23.19" height="20.43" style="fill:#263238"></rect><rect x="222.12" y="222.76" width="5.53" height="20.43" style="fill:#263238"></rect><polyline points="191.48 243.19 191.48 242 264.55 242 264.55 243.19" style="fill:#263238"></polyline><rect x="209.92" y="252.1" width="5.56" height="11.72" style="fill:#455a64"></rect><path d="M229.79,268.42c0,.13-7.35.23-16.42.23s-16.41-.1-16.41-.23,7.35-.22,16.41-.22S229.79,268.3,229.79,268.42Z" style="fill:#455a64"></path><rect x="243.04" y="252.1" width="5.56" height="11.72" style="fill:#455a64"></rect><path d="M262.91,268.42c0,.13-7.35.23-16.42.23s-16.41-.1-16.41-.23,7.34-.22,16.41-.22S262.91,268.3,262.91,268.42Z" style="fill:#455a64"></path><rect x="243.04" y="275.37" width="5.56" height="11.72" style="fill:#455a64"></rect><path d="M262.91,291.69c0,.13-7.35.23-16.42.23s-16.41-.1-16.41-.23,7.34-.22,16.41-.22S262.91,291.57,262.91,291.69Z" style="fill:#455a64"></path><rect x="243.04" y="299.34" width="5.56" height="11.72" style="fill:#f5f5f5"></rect><path d="M262.91,315.66c0,.13-7.35.23-16.42.23s-16.41-.1-16.41-.23,7.34-.22,16.41-.22S262.91,315.54,262.91,315.66Z" style="fill:#455a64"></path><rect x="243.04" y="323.32" width="5.56" height="11.72" style="fill:#455a64"></rect><path d="M262.91,339.64c0,.12-7.35.22-16.42.22s-16.41-.1-16.41-.22,7.34-.23,16.41-.23S262.91,339.51,262.91,339.64Z" style="fill:#455a64"></path><rect x="243.04" y="346.6" width="5.56" height="11.72" style="fill:#455a64"></rect><path d="M262.91,362.92c0,.13-7.35.23-16.42.23s-16.41-.1-16.41-.23,7.34-.22,16.41-.22S262.91,362.8,262.91,362.92Z" style="fill:#455a64"></path><rect x="243.04" y="369.98" width="5.56" height="11.72" style="fill:#455a64"></rect><rect x="243.04" y="393.67" width="5.56" height="11.72" style="fill:#455a64"></rect><path d="M262.91,386.3c0,.13-7.35.23-16.42.23s-16.41-.1-16.41-.23,7.34-.22,16.41-.22S262.91,386.18,262.91,386.3Z" style="fill:#455a64"></path><rect x="243.04" y="415.86" width="5.56" height="11.72" style="fill:#455a64"></rect><polygon points="248.61 451.07 243.05 451.07 243.04 439.54 248.6 439.54 248.61 451.07" style="fill:#455a64"></polygon><path d="M262.91,432.18c0,.12-7.35.22-16.42.22s-16.41-.1-16.41-.22,7.34-.23,16.41-.23S262.91,432.05,262.91,432.18Z" style="fill:#455a64"></path><path d="M262.91,411.59c0,.12-7.35.22-16.42.22s-16.41-.1-16.41-.22,7.34-.22,16.41-.22S262.91,411.47,262.91,411.59Z" style="fill:#455a64"></path><rect x="209.92" y="275.73" width="5.56" height="11.72" style="fill:#f5f5f5"></rect><path d="M229.79,292.05c0,.12-7.35.22-16.42.22s-16.41-.1-16.41-.22,7.35-.23,16.41-.23S229.79,291.92,229.79,292.05Z" style="fill:#455a64"></path><rect x="209.92" y="299.35" width="5.56" height="11.72" style="fill:#455a64"></rect><path d="M229.79,315.67c0,.13-7.35.23-16.42.23s-16.41-.1-16.41-.23,7.35-.22,16.41-.22S229.79,315.55,229.79,315.67Z" style="fill:#455a64"></path><rect x="209.92" y="322.98" width="5.56" height="11.72" style="fill:#455a64"></rect><path d="M229.79,339.3c0,.12-7.35.22-16.42.22s-16.41-.1-16.41-.22,7.35-.23,16.41-.23S229.79,339.17,229.79,339.3Z" style="fill:#455a64"></path><rect x="209.92" y="346.6" width="5.56" height="11.72" style="fill:#455a64"></rect><path d="M229.79,362.92c0,.13-7.35.23-16.42.23s-16.41-.1-16.41-.23,7.35-.22,16.41-.22S229.79,362.8,229.79,362.92Z" style="fill:#455a64"></path><rect x="209.92" y="370.23" width="5.56" height="11.72" style="fill:#455a64"></rect><path d="M229.79,386.55c0,.12-7.35.22-16.42.22s-16.41-.1-16.41-.22,7.35-.23,16.41-.23S229.79,386.42,229.79,386.55Z" style="fill:#455a64"></path><rect x="209.92" y="393.85" width="5.56" height="11.72" style="fill:#455a64"></rect><polygon points="228.33 451.01 156.62 451.01 156.31 337.68 228.01 337.68 228.33 451.01" style="fill:#263238"></polygon><rect x="192.16" y="337.68" width="35.85" height="113.33" style="fill:#263238"></rect><rect x="164.49" y="315.37" width="25.32" height="22.31" style="fill:#263238"></rect><rect x="156.59" y="336.38" width="73.52" height="1.3" style="fill:#263238"></rect><rect x="170.46" y="347.41" width="6.07" height="12.8" style="fill:#455a64"></rect><path d="M192.16,365.24c0,.13-8,.24-17.93.24s-17.92-.11-17.92-.24,8-.25,17.92-.25S192.16,365.1,192.16,365.24Z" style="fill:#455a64"></path><rect x="206.63" y="347.41" width="6.07" height="12.8" style="fill:#455a64"></rect><path d="M228.33,365.24c0,.13-8,.24-17.93.24s-17.93-.11-17.93-.24,8-.25,17.93-.25S228.33,365.1,228.33,365.24Z" style="fill:#455a64"></path><rect x="206.63" y="372.82" width="6.07" height="12.8" style="fill:#455a64"></rect><path d="M228.33,390.65c0,.13-8,.24-17.93.24s-17.93-.11-17.93-.24,8-.25,17.93-.25S228.33,390.51,228.33,390.65Z" style="fill:#455a64"></path><rect x="206.63" y="399" width="6.07" height="12.8" style="fill:#455a64"></rect><path d="M228.33,416.82c0,.14-8,.25-17.93.25s-17.93-.11-17.93-.25,8-.24,17.93-.24S228.33,416.69,228.33,416.82Z" style="fill:#455a64"></path><rect x="206.63" y="425.18" width="6.07" height="12.8" style="fill:#f5f5f5"></rect><path d="M228.33,443c0,.13-8,.24-17.93.24s-17.93-.11-17.93-.24,8-.24,17.93-.24S228.33,442.86,228.33,443Z" style="fill:#455a64"></path><rect x="170.46" y="373.21" width="6.07" height="12.8" style="fill:#f5f5f5"></rect><path d="M192.16,391c0,.14-8,.25-17.93.25s-17.92-.11-17.92-.25,8-.24,17.92-.24S192.16,390.9,192.16,391Z" style="fill:#455a64"></path><rect x="170.46" y="399.01" width="6.07" height="12.8" style="fill:#455a64"></rect><path d="M192.16,416.83c0,.14-8,.25-17.93.25s-17.92-.11-17.92-.25,8-.24,17.92-.24S192.16,416.7,192.16,416.83Z" style="fill:#455a64"></path><rect x="170.46" y="424.81" width="6.07" height="12.8" style="fill:#455a64"></rect><path d="M192.16,442.63c0,.13-8,.24-17.93.24s-17.92-.11-17.92-.24,8-.24,17.92-.24S192.16,442.5,192.16,442.63Z" style="fill:#455a64"></path><path d="M182.83,336.44a96.94,96.94,0,0,1-.26-10.14,96.94,96.94,0,0,1,.26-10.14,100.35,100.35,0,0,1,.26,10.14A100.35,100.35,0,0,1,182.83,336.44Z" style="fill:#455a64"></path><path d="M222.34,240.94a72.83,72.83,0,0,1-.26-8.63,72.69,72.69,0,0,1,.26-8.63,72.69,72.69,0,0,1,.26,8.63A72.83,72.83,0,0,1,222.34,240.94Z" style="fill:#455a64"></path><path d="M232,241.65c0,.14-6.14.26-13.71.26s-13.71-.12-13.71-.26,6.14-.26,13.71-.26S232,241.5,232,241.65Z" style="fill:#455a64"></path><path d="M262.62,243.77c0,.15-14.68.26-32.79.26s-32.79-.11-32.79-.26,14.68-.26,32.79-.26S262.62,243.63,262.62,243.77Z" style="fill:#455a64"></path><path d="M229.81,449.75c-.15,0-.26-46-.26-102.82s.11-102.83.26-102.83.26,46,.26,102.83S230,449.75,229.81,449.75Z" style="fill:#455a64"></path><path d="M156.59,336.38a1.53,1.53,0,0,1,.37,0l1.08,0,4.15-.05,15.28-.08,50.54-.08h.26v.26c0,.36,0,.75,0,1.14,0,.23,0,.47,0,.68v.26H228l-50.86-.08-15.39-.08-4.18-.05-1.09,0-.37,0,.37,0,1.09,0,4.18,0,15.39-.08,50.86-.08-.26.26v-1.82l.26.26-50.54-.08-15.28-.08-4.15-.05-1.08,0Z" style="fill:#455a64"></path><path d="M192.16,451c-.14,0-.2-25.13-.13-56.13s.25-56.13.4-56.13.2,25.13.12,56.14S192.3,451,192.16,451Z" style="fill:#455a64"></path><path d="M228.33,451c-.15,0-.27-25.4-.28-56.72s.1-56.73.24-56.73.27,25.4.28,56.73S228.47,451,228.33,451Z" style="fill:#455a64"></path><polygon points="337.77 450.78 256.58 451.01 256.58 343.69 337.77 343.69 337.77 450.78" style="fill:#263238"></polygon><polygon points="299.71 343.69 299.71 450.78 337.77 451.01 337.77 343.69 299.71 343.69" style="fill:#263238"></polygon><rect x="273.61" y="358.19" width="7.3" height="17.74" style="fill:#455a64"></rect><rect x="273.61" y="427.6" width="7.3" height="17.74" style="fill:#455a64"></rect><path d="M299.71,382.89c0,.19-9.66.36-21.56.36s-21.56-.17-21.56-.36,9.65-.37,21.56-.37S299.71,382.69,299.71,382.89Z" style="fill:#455a64"></path><rect x="273.61" y="393.16" width="7.3" height="17.74" style="fill:#f5f5f5"></rect><path d="M299.71,417.86c0,.19-9.66.36-21.56.36s-21.56-.17-21.56-.36,9.65-.37,21.56-.37S299.71,417.66,299.71,417.86Z" style="fill:#455a64"></path><rect x="307.79" y="358.19" width="7.3" height="17.74" style="fill:#f5f5f5"></rect><rect x="323.63" y="358.19" width="7.3" height="17.74" style="fill:#455a64"></rect><rect x="307.79" y="391.84" width="7.3" height="17.74" style="fill:#455a64"></rect><rect x="323.63" y="391.84" width="7.3" height="17.74" style="fill:#455a64"></rect><rect x="307.79" y="425.5" width="7.3" height="17.74" style="fill:#455a64"></rect><rect x="323.63" y="425.5" width="7.3" height="17.74" style="fill:#455a64"></rect><rect x="250.48" y="340.69" width="93.4" height="3.86" style="fill:#263238"></rect><path d="M343.88,344.55a1.1,1.1,0,0,1,0-.24c0-.18,0-.41,0-.72,0-.65,0-1.6,0-2.9l.07.07c-10.93.11-48.63.19-93.39.19h0l.26-.26h0v3.84l-.26-.26,66.09.11,20,.08,5.43,0,1.42,0,.5,0-.46,0-1.39,0-5.37,0-19.89.08-66.29.11h-.26v-4.1h0l.26-.26h0c44.76,0,82.46.08,93.39.19H344v.07c0,1.32,0,2.28,0,2.94,0,.3,0,.53,0,.7A1.76,1.76,0,0,1,343.88,344.55Z" style="fill:#455a64"></path><path d="M299.71,451c-.15,0-.26-23.73-.26-53s.11-53,.26-53,.26,23.72.26,53S299.85,451,299.71,451Z" style="fill:#455a64"></path><path d="M256.59,449.83c-.15,0-.27-23.3-.27-52s.12-52,.27-52,.26,23.29.26,52S256.73,449.83,256.59,449.83Z" style="fill:#455a64"></path><path d="M232.09,138.66l-.16,0a.53.53,0,0,0-.2.81.5.5,0,1,0,.36-.84Z" style="fill:#fff"></path><path d="M271.42,80.53l-.17,0a.5.5,0,1,0,.63.67A.53.53,0,0,0,271.42,80.53Z" style="fill:#fff"></path><path d="M325.64,118.58l-.17,0a.5.5,0,1,0,.63.67A.53.53,0,0,0,325.64,118.58Z" style="fill:#fff"></path><path d="M302.9,177.7l-.17,0a.5.5,0,1,0,.17,0Z" style="fill:#fff"></path><path d="M325.81,247.18l-.17,0a.5.5,0,1,0,.63.67A.53.53,0,0,0,325.81,247.18Z" style="fill:#fff"></path><path d="M174.59,118.23l-.16,0a.53.53,0,0,0-.2.81.52.52,0,0,0,.82-.14A.53.53,0,0,0,174.59,118.23Z" style="fill:#fff"></path><path d="M323.8,64.48l-.17,0a.49.49,0,1,0,.17,0Z" style="fill:#fff"></path><path d="M294.84,260.74l-.16,0a.49.49,0,1,0,.16,0Z" style="fill:#fff"></path><path d="M325.52,318.67l-.17,0a.5.5,0,1,0,.17,0Z" style="fill:#fff"></path><path d="M183.19,296.28l-.17,0a.5.5,0,1,0,.63.67A.53.53,0,0,0,183.19,296.28Z" style="fill:#fff"></path><path d="M221.66,181.74l-.17,0a.51.51,0,0,0-.19.8.5.5,0,1,0,.36-.83Z" style="fill:#fff"></path><path d="M315.45,154.85l-.17,0a.5.5,0,1,0,.63.67A.53.53,0,0,0,315.45,154.85Z" style="fill:#fff"></path><path d="M178.78,201.47l-.16,0a.53.53,0,0,0-.2.81.5.5,0,1,0,.36-.84Z" style="fill:#fff"></path><path d="M249.54,222.07l-.17,0a.53.53,0,0,0-.19.81.53.53,0,0,0,.82-.15A.52.52,0,0,0,249.54,222.07Z" style="fill:#fff"></path><path d="M173.47,252.35l.44.74A5.19,5.19,0,0,0,176,255l.77.38-.74.45a5.17,5.17,0,0,0-1.94,2.1l-.38.78-.45-.74a5,5,0,0,0-2.1-1.94l-.78-.38.75-.45a5.08,5.08,0,0,0,1.93-2.1Z" style="fill:#fff"></path><path d="M189.68,148.46l.45.75a5,5,0,0,0,2.11,1.93l.77.39-.74.44a5.19,5.19,0,0,0-1.94,2.11l-.38.77-.45-.74a5.08,5.08,0,0,0-2.1-1.93l-.78-.39.74-.45a5,5,0,0,0,1.94-2.1Z" style="fill:#fff"></path><path d="M233,67.81l.45.75a5.08,5.08,0,0,0,2.1,1.93l.78.39-.74.44a5.12,5.12,0,0,0-1.94,2.11l-.39.77-.44-.74a5.13,5.13,0,0,0-2.11-1.94l-.77-.38.74-.45a5.1,5.1,0,0,0,1.94-2.1Z" style="fill:#fff"></path><path d="M292.79,207.79l.44.74a5.13,5.13,0,0,0,2.11,1.94l.77.38-.74.45a5.1,5.1,0,0,0-1.94,2.1l-.38.78-.45-.75a5.08,5.08,0,0,0-2.1-1.93l-.78-.39.74-.44a5.12,5.12,0,0,0,1.94-2.11Z" style="fill:#fff"></path><g style="opacity:0.30000000000000004"><path d="M257.65,193.32l.19.32a2.21,2.21,0,0,0,.93.86l.34.17-.33.19a2.25,2.25,0,0,0-.85.93l-.17.34-.2-.33a2.28,2.28,0,0,0-.92-.85l-.34-.17.32-.19a2.33,2.33,0,0,0,.86-.93Z" style="fill:#fff"></path></g><path d="M321.46,190.08l.2.33a2.22,2.22,0,0,0,.92.85l.34.17-.32.2a2.24,2.24,0,0,0-.86.92l-.16.35-.2-.33a2.18,2.18,0,0,0-.93-.85l-.34-.17.33-.2a2.22,2.22,0,0,0,.85-.92Z" style="fill:#fff"></path><path d="M260.46,158.75l.19.33a2.38,2.38,0,0,0,.93.85l.34.17-.32.19a2.27,2.27,0,0,0-.86.93l-.17.34-.19-.33a2.25,2.25,0,0,0-.93-.85l-.34-.17.33-.19a2.31,2.31,0,0,0,.85-.93Z" style="fill:#fff"></path><path d="M294.93,92.51l.2.33a2.22,2.22,0,0,0,.92.85l.34.17-.32.2a2.24,2.24,0,0,0-.86.92l-.16.34-.2-.32a2.12,2.12,0,0,0-.93-.85l-.34-.17.33-.2a2.18,2.18,0,0,0,.85-.93Z" style="fill:#fff"></path><path d="M281.74,304l.2.33a2.22,2.22,0,0,0,.92.85l.35.17-.33.2a2.18,2.18,0,0,0-.85.93l-.17.34-.2-.33a2.22,2.22,0,0,0-.92-.85l-.35-.17.33-.2a2.22,2.22,0,0,0,.85-.92Z" style="fill:#fff"></path><path d="M193.07,208.51l.19.33a2.38,2.38,0,0,0,.93.85l.34.17-.32.2a2.24,2.24,0,0,0-.86.92l-.17.34L193,211a2.21,2.21,0,0,0-.93-.86l-.34-.17.33-.19a2.25,2.25,0,0,0,.85-.93Z" style="fill:#fff"></path><g style="opacity:0.30000000000000004"><path d="M283.1,124.29l.37.61a4.12,4.12,0,0,0,1.72,1.59l.64.32-.61.37a4.18,4.18,0,0,0-1.59,1.72l-.32.64-.36-.61a4.15,4.15,0,0,0-1.73-1.59l-.64-.32.61-.36a4.09,4.09,0,0,0,1.59-1.73Z" style="fill:#fff"></path></g><g style="opacity:0.30000000000000004"><path d="M313.32,284.4l.36.61a4.27,4.27,0,0,0,1.73,1.59l.64.32-.61.36a4.15,4.15,0,0,0-1.59,1.73l-.32.64-.36-.61a4.09,4.09,0,0,0-1.73-1.59l-.64-.32.61-.36A4.2,4.2,0,0,0,313,285Z" style="fill:#fff"></path></g><g style="opacity:0.1"><path d="M304.14,250.61c-7.09,2.07-12.54,4.55-17.73,9.79s-8.18,13.18-6,20.22c2.32,7.28,10,12.13,17.59,12.38,10.62.34,20.84-8,22.59-18.52S318.16,249.4,304.14,250.61Z" style="fill:#fff"></path></g><path d="M359.16,25.1c.1.1-3.29,3.64-7.56,7.9s-7.83,7.63-7.93,7.53,3.28-3.64,7.56-7.9S359.05,25,359.16,25.1Z" style="fill:#263238"></path><path d="M343.67,451c0-2.3-.1-171.6-.24-410.51l.24.24-187.31,0h0l.26-.26c0,159.4-.06,304.21-.07,410.51l-.19-.19,187.34.19-187.34.19h-.19V451c0-106.3,0-251.11-.07-410.51v-.27h.29l187.31,0h.25v.25C343.78,279.44,343.67,448.74,343.67,451Z" style="fill:#263238"></path><path d="M156.33,40.53c-.17.2-3.74-3.19-8-7.47-2.13-2.14-4-4.11-5.38-5.55a19.26,19.26,0,0,1-2.12-2.41,19.1,19.1,0,0,1,2.38,2.15c1.42,1.38,3.36,3.3,5.49,5.45l5.41,5.51,1.63,1.69Z" style="fill:#263238"></path><path d="M156.33,451c.1.11-3.29,3.63-7.56,7.88s-7.82,7.6-7.93,7.5,3.29-3.62,7.56-7.87S156.23,450.94,156.33,451Z" style="fill:#263238"></path><path d="M359.16,466.42a108.27,108.27,0,0,1-8-7.42c-4.29-4.21-7.69-7.7-7.59-7.8s3.66,3.22,8,7.43S359.26,466.32,359.16,466.42Z" style="fill:#263238"></path><path d="M351.32,270a5.41,5.41,0,0,0,1-.21,3.07,3.07,0,0,0,1.88-1.92,5.8,5.8,0,0,0,.15-2c0-.76,0-1.58,0-2.46,0-1.77,0-3.78,0-6,0-4.46,0-9.74-.05-15.6,0-2.94,0-6,0-9.22v-4.87a2.89,2.89,0,0,0-.8-2.09,2.85,2.85,0,0,0-4.14,0,2.92,2.92,0,0,0-.79,2.09c0,1.65,0,3.27,0,4.87,0,3.2,0,6.28,0,9.22,0,5.86,0,11.14-.06,15.6,0,2.21,0,4.22,0,6,0,.88,0,1.7,0,2.46a5.8,5.8,0,0,0,.15,2,3.08,3.08,0,0,0,1.89,1.92,5.64,5.64,0,0,0,1,.21,2.15,2.15,0,0,1-1-.11,3.13,3.13,0,0,1-2.05-1.95,6.06,6.06,0,0,1-.21-2.08c0-.76,0-1.58,0-2.46,0-1.77,0-3.78,0-6,0-4.46,0-9.74-.05-15.6,0-2.94,0-6,0-9.22v-4.87a3.42,3.42,0,0,1,.94-2.45,3.37,3.37,0,0,1,4.89,0,3.48,3.48,0,0,1,.94,2.45c0,1.65,0,3.28,0,4.87,0,3.2,0,6.28,0,9.22,0,5.86,0,11.14-.06,15.6,0,2.21,0,4.22,0,6,0,.88,0,1.7,0,2.46a6.07,6.07,0,0,1-.2,2.08,3.13,3.13,0,0,1-2.05,1.95A2.19,2.19,0,0,1,351.32,270Z" style="fill:#263238"></path><rect x="155.14" y="182.23" width="196.27" height="1.7" style="fill:#f5f5f5"></rect><rect x="155.14" y="367.06" width="196.27" height="1.7" style="fill:#f5f5f5"></rect><rect x="35.82" y="246.95" width="430.46" height="2.42" transform="translate(2.89 499.21) rotate(-90)" style="fill:#f5f5f5"></rect></g><g id="freepik--Character--inject-2"><path d="M87.48,454.21l1,19-.14,7.47c-.06,2.83,2.25,2.34,5.08,2.39l34.56.67s1.7-3.44-.83-4.57S105.5,467,105.5,467l.74-17.88Z" style="fill:#e0e0e0"></path><path d="M95.93,482.91c-.07,0-.13-.66-.44-1.67a9.27,9.27,0,0,0-5.33-5.9c-1-.42-1.62-.55-1.61-.61a3.88,3.88,0,0,1,1.72.33,8.48,8.48,0,0,1,3.53,2.35,8.63,8.63,0,0,1,2,3.75A4.35,4.35,0,0,1,95.93,482.91Z" style="fill:#263238"></path><path d="M117.78,483.53a2.59,2.59,0,0,1-.3-1.27,5.52,5.52,0,0,1,.69-3.08,7.57,7.57,0,0,1,2.11-2.34c.64-.48,1.09-.7,1.12-.65s-.35.36-.93.88a9.46,9.46,0,0,0-1.92,2.32,6.21,6.21,0,0,0-.77,2.87A7.17,7.17,0,0,1,117.78,483.53Z" style="fill:#263238"></path><path d="M123.06,434.39l-11.49,15.15-4.93,5.61c-1.87,2.13.21,3.24,2.34,5.11l26,22.82s3.52-1.53,2.32-4-8.68-23.27-8.68-23.27l12.1-13.17Z" style="fill:#e0e0e0"></path><path d="M111,461.76c-.06,0,.33-.59.74-1.56a9.72,9.72,0,0,0,.76-4,9.47,9.47,0,0,0-1-3.94c-.47-.95-.89-1.47-.83-1.51a4.09,4.09,0,0,1,1.1,1.36,8.57,8.57,0,0,1,.26,8.22A4.2,4.2,0,0,1,111,461.76Z" style="fill:#263238"></path><path d="M127.27,476.34a2.71,2.71,0,0,1,.6-1.16,5.55,5.55,0,0,1,2.51-1.91,7.82,7.82,0,0,1,3.12-.43,2.9,2.9,0,0,1,1.28.23,5.29,5.29,0,0,1-1.28.07,9.82,9.82,0,0,0-3,.53,6.28,6.28,0,0,0-2.43,1.7C127.59,476,127.34,476.38,127.27,476.34Z" style="fill:#263238"></path><path d="M92.68,107.6c-4.77,8.47-6.92,18.21-7.55,27.9s.17,19.42,1,29.11c.15,1.75.41,3.71,1.8,4.79s3.41.83,5.16.52c2.31-.42,4.76-.91,6.42-2.56,2.13-2.13,2.28-5.48,2.28-8.48q-.06-19.77-1.79-39.47" style="fill:#263238"></path><polygon points="142.54 113.07 136.56 138.16 124.53 131.78 132.78 104.01 142.54 113.07" style="fill:#ffbe9d"></polygon><path d="M154.89,84.43s-3.7-4-5.18-4.2-9.88,4.2-9.88,4.2l-6.67,8.89v16.79l9.39,3,3.6-4.23s8.48-4.5,8.74-5.58a76.4,76.4,0,0,0,0-7.76s-2.69-1.25-3.16,2l-.31,2.95L146.15,102l1.7-6.82S155,92.86,155,91.46s-2-2.79-2-2.79l2-3.57" style="fill:#ffbe9d"></path><path d="M73,276.47s-9.18,17.84-1.38,57.35c4.87,24.61,9.81,131.59,9.81,131.59l38.33-.63s0-77.13-.13-90.72c-.09-8.69,3.36-43.72,3.36-43.72l2.26-43.48Z" style="fill:#90CAF9"></path><path d="M140,284.05c-.58,1.3,40.53,69.27,40.52,83.64,0,13.85-46.57,83.63-46.57,83.63L104.35,431l32.79-57.24L108.2,324.55,99,289.73Z" style="fill:#90CAF9"></path><path d="M119.71,464.78a2.12,2.12,0,0,1,0-.4l0-1.17c0-1.06,0-2.57-.06-4.5,0-3.93-.06-9.57-.11-16.53,0-14-.12-33.26-.2-54.55,0-5.32,0-10.52,0-15.55,0-1.25.1-2.49.17-3.72s.15-2.45.23-3.66c.15-2.41.31-4.77.45-7.07.6-9.21,1.14-17.5,1.6-24.48s.85-12.57,1.11-16.49c.15-1.92.26-3.43.33-4.48,0-.49.08-.88.1-1.17a2,2,0,0,1,.06-.39v.4l0,1.16c-.06,1.06-.13,2.56-.23,4.49-.23,3.93-.56,9.56-1,16.5s-.92,15.27-1.48,24.48q-.21,3.45-.43,7.07c-.08,1.2-.15,2.42-.23,3.65s-.2,2.47-.16,3.73c0,5,0,10.22,0,15.55,0,21.28,0,40.55,0,54.53,0,7,0,12.6,0,16.53,0,1.93,0,3.44,0,4.5q0,.74,0,1.17A1.79,1.79,0,0,1,119.71,464.78Z" style="fill:#263238"></path><path d="M153.93,371.58a22.12,22.12,0,0,1-2.67-.09,37,37,0,0,0-6.39.33,38.4,38.4,0,0,0-6.24,1.44,20.5,20.5,0,0,1-2.54.82,10.12,10.12,0,0,1,2.42-1.16,28.85,28.85,0,0,1,6.29-1.62,29.23,29.23,0,0,1,6.48-.18A10.17,10.17,0,0,1,153.93,371.58Z" style="fill:#263238"></path><path d="M119.5,447.29a9.32,9.32,0,0,1-1.53.07l-4.14,0c-3.51,0-8.34.08-13.68.26s-10.18.42-13.67.62l-4.14.24a7.8,7.8,0,0,1-1.53,0,9.61,9.61,0,0,1,1.51-.22c1-.12,2.38-.26,4.13-.4,3.49-.3,8.33-.61,13.68-.79s10.19-.17,13.7-.1c1.75,0,3.17.09,4.15.14A8.14,8.14,0,0,1,119.5,447.29Z" style="fill:#263238"></path><path d="M144.45,434.42a4.78,4.78,0,0,1-.93-.72l-2.46-2.06c-2.08-1.73-5-4-8.41-6.38s-6.59-4.26-9-5.59l-2.79-1.57a5.2,5.2,0,0,1-1-.61,4.4,4.4,0,0,1,1.1.43c.69.31,1.68.8,2.88,1.42a88.85,88.85,0,0,1,17.42,12c1,.9,1.82,1.65,2.35,2.19A5.27,5.27,0,0,1,144.45,434.42Z" style="fill:#263238"></path><path d="M82.42,448.33a2.28,2.28,0,0,1,0-.38c0-.28,0-.66,0-1.14,0-1-.09-2.49-.16-4.36-.12-3.81-.3-9.29-.53-16-.46-13.54-1.19-32.24-2.24-52.89s-2.21-39.34-3.13-52.86c-.46-6.73-.83-12.2-1.09-16-.12-1.87-.22-3.33-.29-4.36,0-.48,0-.85-.06-1.13a1.91,1.91,0,0,1,0-.39,2.91,2.91,0,0,1,0,.38l.12,1.13c.09,1,.22,2.49.38,4.35.33,3.78.76,9.24,1.26,16,1,13.51,2.23,32.2,3.28,52.85S81.64,412.85,82,426.4c.19,6.78.31,12.26.37,16.05,0,1.87,0,3.33.05,4.36,0,.48,0,.85,0,1.14A2.79,2.79,0,0,1,82.42,448.33Z" style="fill:#fff"></path><path d="M98,304.48c.14,0-.27,31.91-.93,71.26S95.77,447,95.63,447s.27-31.9.92-71.26S97.85,304.48,98,304.48Z" style="fill:#fff"></path><path d="M108.14,446.14a1.65,1.65,0,0,1,0-.36c0-.27,0-.62,0-1.07,0-1,0-2.35-.09-4.1-.07-3.57-.12-8.73-.15-15.1-.06-12.75.07-30.37.63-49.81s1.45-37.05,2.25-49.77c.39-6.37.75-11.51,1-15.07.14-1.75.25-3.12.33-4.09,0-.45.07-.8.1-1.06a1.45,1.45,0,0,1,0-.36,1.63,1.63,0,0,1,0,.36c0,.27,0,.62,0,1.07,0,1-.13,2.34-.22,4.1-.21,3.59-.5,8.73-.87,15.07-.69,12.72-1.52,30.32-2.09,49.76s-.75,37.05-.78,49.8c0,6.35,0,11.5,0,15.09v4.11c0,.45,0,.8,0,1.07A2.45,2.45,0,0,1,108.14,446.14Z" style="fill:#fff"></path><path d="M144.86,371.76a4.4,4.4,0,0,1-.21-.64c-.14-.48-.31-1.1-.52-1.87-.47-1.69-1.11-4-1.9-6.88-1.64-5.8-4-13.77-7-22.45s-6-16.44-8.35-22c-1.14-2.74-2.08-5-2.75-6.58-.31-.74-.55-1.34-.75-1.8a3.21,3.21,0,0,1-.22-.63,4,4,0,0,1,.32.59l.83,1.75c.72,1.53,1.72,3.76,2.91,6.52,2.39,5.54,5.49,13.28,8.5,22s5.35,16.7,6.89,22.52c.77,2.92,1.37,5.28,1.74,6.93.18.78.32,1.41.43,1.89A3.11,3.11,0,0,1,144.86,371.76Z" style="fill:#fff"></path><path d="M149,372.21a2.55,2.55,0,0,1-.16.52c-.15.38-.33.86-.56,1.44-.48,1.24-1.24,3-2.22,5.21A172.88,172.88,0,0,1,137.45,396a176.65,176.65,0,0,1-10.32,15.6c-1.43,1.92-2.62,3.45-3.48,4.48l-1,1.19a2.82,2.82,0,0,1-.37.39s.08-.17.29-.46l.9-1.24c.81-1.07,2-2.63,3.34-4.58,2.78-3.88,6.47-9.36,10.17-15.64s6.67-12.18,8.71-16.5c1-2.16,1.82-3.92,2.37-5.14l.64-1.4A2,2,0,0,1,149,372.21Z" style="fill:#fff"></path><path d="M134,425.87a1.92,1.92,0,0,1,.2-.31l.64-.87c.59-.78,1.43-1.89,2.49-3.31,2.16-2.89,5.32-7,8.95-12.36a118.2,118.2,0,0,0,11.06-19.65c3.32-7.78,5.92-17,5.81-26.79a51.94,51.94,0,0,0-.6-7.21c-.19-1.17-.47-2.32-.69-3.47s-.62-2.26-.91-3.37a74,74,0,0,0-5.07-12.3c-3.92-7.54-8.18-14-11.52-19.46A134.62,134.62,0,0,1,137,303.42c-.8-1.62-1.29-2.93-1.66-3.81l-.41-1a1.55,1.55,0,0,1-.12-.34,1.15,1.15,0,0,1,.17.32c.11.25.26.57.45,1,.4.86.92,2.16,1.76,3.76a145.45,145.45,0,0,0,7.52,13.25c3.37,5.48,7.66,11.86,11.63,19.43a74.19,74.19,0,0,1,5.13,12.37c.3,1.12.7,2.23.92,3.4s.51,2.32.7,3.51a51.57,51.57,0,0,1,.61,7.29,66.74,66.74,0,0,1-5.89,27,116.27,116.27,0,0,1-11.2,19.67c-3.67,5.3-6.88,9.42-9.08,12.27L135,424.76l-.68.84A1.8,1.8,0,0,1,134,425.87Z" style="fill:#fff"></path><g style="opacity:0.30000000000000004"><path d="M68.8,295.1c1.21,4.46,5.8,7.45,10.06,9.22a75.56,75.56,0,0,0,37.37,5.19c6-.7,12.09-2.18,17.15-5.51,2.21-1.46,4.24-3.26,6.71-4.19s5.67-.69,7.26,1.42a4.25,4.25,0,0,0-1-4.76c-.58-.51-3.08-1.28-4.62-2.05-1.77-.88-4.38-2-4.38-2a37.46,37.46,0,0,1-3.17,4.38,25.5,25.5,0,0,1-10.1,5.93c-11.43,3.77-23.94,3.3-35.68.41-6.89-1.71-13.67-4.12-19.57-8"></path></g><g style="opacity:0.30000000000000004"><path d="M122.7,319c3.56,14.27,6.92,29.06,8.09,43.72-3.25-6-6.27-10.09-9.52-16.09Z"></path></g><path d="M142.13,123.64l-2.59,1.64c.8,6.84-3,13.33-6.87,19s-8.24,11.54-8.85,18.41c-1.12,12.62,10.61,23.21,11.27,35.86,1.7,0,10.9-.5,12.6-.5C149.39,172.15,145,150.37,142.13,123.64Z" style="fill:#263238"></path><path d="M90.17,126a34.45,34.45,0,0,0,11,26q2.44-7.11,4.91-14.23" style="fill:#263238"></path><path d="M127.21,97.65a20.91,20.91,0,0,0-14-1.69,44,44,0,0,0-13.27,5.48,21.77,21.77,0,0,0-6.34,5c-3.06,3.85-6.09,10.18-6.38,15.09-.24,4,1.28,13.92,3,17.53,1.54,3.31,8.75,5.83,12.31,6.64l32.66-38A16.52,16.52,0,0,0,127.21,97.65Z" style="fill:#263238"></path><path d="M132.84,102.77l-7.83-1.4c4.28,10.2,5.44,33.5,7.89,44.28,2.89-4.18,9.59-16.94,9.23-22S142.14,101.91,132.84,102.77Z" style="fill:#263238"></path><path d="M137.32,119.39c-.51-7.82-5.72-17.41-13.51-16.56l-18,4.6a13.36,13.36,0,0,0-10.06,12.31c0,.3,0-.07,0,.16l4,46.69,19.07,24.67L125.18,168c0-3.81,0-9.56,0-9.54s10-1.68,12-14.73C138.23,137.25,137.89,128.08,137.32,119.39Z" style="fill:#ffbe9d"></path><path d="M135.25,128.49a1.68,1.68,0,0,1-1.61,1.69,1.6,1.6,0,0,1-1.73-1.51,1.68,1.68,0,0,1,1.61-1.69A1.61,1.61,0,0,1,135.25,128.49Z" style="fill:#263238"></path><path d="M135.36,124.5c-.21.22-1.47-.72-3.27-.71s-3.12.91-3.32.69.12-.49.69-.91a4.6,4.6,0,0,1,2.65-.82,4.39,4.39,0,0,1,2.61.83C135.27,124,135.46,124.4,135.36,124.5Z" style="fill:#263238"></path><path d="M119.39,129.08a1.67,1.67,0,0,1-1.61,1.69,1.6,1.6,0,0,1-1.73-1.5,1.68,1.68,0,0,1,1.61-1.69A1.61,1.61,0,0,1,119.39,129.08Z" style="fill:#263238"></path><path d="M118.27,124.5c-.2.22-1.47-.72-3.27-.71s-3.12.91-3.31.69.11-.49.68-.91a4.6,4.6,0,0,1,2.65-.82,4.37,4.37,0,0,1,2.61.83C118.18,124,118.37,124.4,118.27,124.5Z" style="fill:#263238"></path><path d="M123.9,138.63a11.82,11.82,0,0,1,2.92-.53c.46,0,.89-.14,1-.46a2.34,2.34,0,0,0-.31-1.36c-.43-1.11-.89-2.27-1.37-3.5-1.89-5-3.27-9.06-3.07-9.14s1.91,3.9,3.8,8.88c.46,1.22.9,2.39,1.31,3.51a2.61,2.61,0,0,1,.24,1.81,1.13,1.13,0,0,1-.75.67,2.92,2.92,0,0,1-.78.11A12,12,0,0,1,123.9,138.63Z" style="fill:#263238"></path><path d="M107.9,153.82s4.24,9,17.28,7.7v-3.06A32.88,32.88,0,0,1,107.9,153.82Z" style="fill:#eb996e"></path><path d="M117.71,118c-.18.49-2,.26-4.08.52s-3.82.84-4.1.4c-.13-.21.17-.67.85-1.15a7,7,0,0,1,3-1.07,6.88,6.88,0,0,1,3.2.37C117.39,117.38,117.78,117.76,117.71,118Z" style="fill:#263238"></path><path d="M134.77,119c-.31.41-1.55,0-3,0s-2.75.28-3-.15c-.12-.21.07-.62.62-1a4.3,4.3,0,0,1,2.48-.67,4.2,4.2,0,0,1,2.43.82C134.74,118.37,134.91,118.79,134.77,119Z" style="fill:#263238"></path><path d="M133.78,107.48a5.72,5.72,0,0,0-5.07-3.24,11.09,11.09,0,0,0-6,1.75c-7.77,4.49-11.76,15.33-19.43,20-1.89,1.14-4.34.1-6,1.61s-2.64,3.93-1.76,6A18.28,18.28,0,0,1,92.9,129a6.14,6.14,0,0,1,.22-5.09c.66-1.15,1.83-2,2.15-3.31s-.16-2.32-.11-3.49a7.6,7.6,0,0,1,1.19-3.32c3-5.32,7.14-10.13,12.47-13.12a22.14,22.14,0,0,1,11.44-3,16.92,16.92,0,0,1,10.89,4.33c1.71,1.6,3.52,3.25,2.63,5.42" style="fill:#263238"></path><path d="M97.51,129.19c-.14-.38-6.94-2.83-7,4.4-.09,7,7,5.64,7,5.44S97.51,129.19,97.51,129.19Z" style="fill:#ffbe9d"></path><path d="M95.35,136.34s-.12.09-.33.18a1.22,1.22,0,0,1-.91,0,3,3,0,0,1-1.38-2.73,4.12,4.12,0,0,1,.36-1.75,1.42,1.42,0,0,1,.93-.93.63.63,0,0,1,.72.35c.09.19,0,.33.08.35s.15-.12.1-.41a.78.78,0,0,0-.27-.44,1,1,0,0,0-.68-.19,1.74,1.74,0,0,0-1.29,1.08,4.21,4.21,0,0,0-.44,1.95c0,1.42.74,2.75,1.76,3.05a1.34,1.34,0,0,0,1.12-.17C95.34,136.51,95.38,136.36,95.35,136.34Z" style="fill:#eb996e"></path><path d="M94.55,137.59a1.38,1.38,0,1,0,1,1.86,1.44,1.44,0,0,0-.71-1.76" style="fill:#fff"></path><path d="M94.88,137.69a1.83,1.83,0,0,1,.63.94,1.21,1.21,0,0,1-.27,1.11,1.33,1.33,0,0,1-1.31.37,1.3,1.3,0,0,1-.85-1.06,1.18,1.18,0,0,1,.41-1.06,1.81,1.81,0,0,1,1.06-.4s-.1-.08-.33-.08a1.42,1.42,0,0,0-.87.3,1.44,1.44,0,0,0-.57,1.27,1.51,1.51,0,0,0,2.68.85,1.39,1.39,0,0,0,.27-1.36,1.43,1.43,0,0,0-.54-.75C95,137.69,94.89,137.67,94.88,137.69Z" style="fill:#263238"></path><path d="M96.48,127.56c-.11,1.92-.2,3.95.69,5.65s3.12,2.87,4.79,1.91c1.36-.77,1.77-2.52,2-4.07.66-4.47,1-9,1.67-13.46Z" style="fill:#263238"></path><path d="M119.48,142.05a3.47,3.47,0,0,0,1.73,5.43,2,2,0,0,0,1.31,0,2.87,2.87,0,0,0,1.39-1.81c.25-.61.49-1.21.73-1.82a.83.83,0,0,0,.07-.63c-.1-.22-.36-.29-.59-.35l-4.51-1.09" style="fill:#eb996e"></path><path d="M122.42,147.28a3.88,3.88,0,0,1-2-.26,3.19,3.19,0,0,1-1.8-1.45,2.39,2.39,0,0,1-.27-1.4,4.16,4.16,0,0,1,.35-1.44,3.87,3.87,0,0,1,.85-1.17l.12-.11.15.05c3,1.05,5.32,1.59,5.29,1.71a18.26,18.26,0,0,1-5.46-1.21l.26-.06a3.22,3.22,0,0,0-.71,1,2.9,2.9,0,0,0-.14,2.38,3,3,0,0,0,1.5,1.33C121.64,147.12,122.44,147.18,122.42,147.28Z" style="fill:#263238"></path><path d="M98.23,127.91l-1.2.52a2,2,0,0,1-.43.15,2.48,2.48,0,0,1,.4-.23l1.17-.57c1-.51,2.5-1.21,4.27-2.19a31.78,31.78,0,0,0,5.82-4,18.16,18.16,0,0,0,2.75-3.12c.84-1.18,1.62-2.47,2.53-3.74a35.72,35.72,0,0,1,6-6.39,32.43,32.43,0,0,1,3.06-2.29,15.4,15.4,0,0,1,3-1.48,11.42,11.42,0,0,1,4.75-.74,7.2,7.2,0,0,1,1.3.18,2.88,2.88,0,0,1,.44.12s-.62-.12-1.75-.15a12.07,12.07,0,0,0-4.65.85,15.53,15.53,0,0,0-2.91,1.5,31.92,31.92,0,0,0-3,2.29,36.06,36.06,0,0,0-5.88,6.34c-.89,1.25-1.68,2.54-2.54,3.73a17.68,17.68,0,0,1-2.82,3.17" style="fill:#455a64"></path><path d="M93.71,163.71l-8.55,7.82L80.1,218.64,64.73,292.39c5,4.38,24.55,13.91,44.13,12.92,24.46-1.24,28.46-12.92,28.46-12.92,5,1.94,9.58,4,9.58,4s-9.67-83.27-10.5-96.08c-.87-13.33-10.26-29.07-10.26-29.07l-.34-5.08-1.41,4-4.81-3.78L96.74,156Z" style="fill:#90CAF9"></path><path d="M93.71,163.71S83.52,167.42,76.08,175c-4.37,4.45-23.68,64.09-24.35,68.79-1.11,7.81,7.36,22.4,21,20.18s50.61-13.08,50.61-13.08l-9.71-33.05-30.07,13,15.69-36.73S106.05,166.24,93.71,163.71Z" style="fill:#90CAF9"></path><path d="M94.92,204.12s0,.16-.17.47-.32.77-.56,1.36L92,211.21c-1.95,4.61-4.77,11.29-8.32,19.67l-.21-.22,30-13,.23-.1.07.24,9.74,33,.07.25-.24.07c-9.45,2.75-19.54,5.6-30,8.34-4.25,1.11-8.47,2.17-12.65,3.12-2.09.49-4.17.94-6.25,1.32l-1.55.28c-.53.09-1.06.11-1.59.16a15.89,15.89,0,0,1-3.16,0,16.19,16.19,0,0,1-5.93-1.86,21.16,21.16,0,0,1-2.6-1.65,23,23,0,0,1-2.24-2.06A22.37,22.37,0,0,1,51.8,248.5a12.48,12.48,0,0,1-.1-5.7c.45-1.81,1-3.56,1.5-5.29,1-3.46,2.12-6.8,3.16-10,2.09-6.45,4.11-12.43,6-17.88,3.76-10.89,7-19.65,9.39-25.63,1.21-3,2.22-5.28,3-6.79.38-.76.72-1.32,1-1.69s.41-.52.41-.52-.12.2-.37.55-.53.94-.9,1.7c-.73,1.53-1.71,3.83-2.89,6.83-2.36,6-5.52,14.77-9.23,25.67-1.85,5.46-3.85,11.44-5.92,17.89-1,3.23-2.09,6.57-3.13,10-.51,1.73-1,3.48-1.48,5.27a12,12,0,0,0,.11,5.48,21.93,21.93,0,0,0,5.5,10,20.78,20.78,0,0,0,2.19,2,18.32,18.32,0,0,0,2.53,1.6,15.48,15.48,0,0,0,5.74,1.8,15,15,0,0,0,3.07,0c.51-.05,1-.07,1.54-.15l1.55-.29c2.07-.38,4.14-.83,6.22-1.31q6.26-1.44,12.64-3.13c10.44-2.73,20.53-5.57,30-8.32l-.17.32c-3.47-11.86-6.74-23-9.67-33.06l.3.14L83.59,231l-.38.17.16-.38,8.45-19.61c1-2.27,1.76-4,2.28-5.23l.6-1.34C94.84,204.27,94.92,204.12,94.92,204.12Z" style="fill:#263238"></path><path d="M83.52,230.81a16.44,16.44,0,0,1-2.07.88,12.7,12.7,0,0,0-4.31,3.06,12.56,12.56,0,0,0-2.54,4.64,19.08,19.08,0,0,1-.64,2.15,6.7,6.7,0,0,1,.29-2.25,11.37,11.37,0,0,1,2.5-4.89,11.61,11.61,0,0,1,4.57-3.05A7,7,0,0,1,83.52,230.81Z" style="fill:#263238"></path><path d="M131.53,210.17a9,9,0,0,1-.22-1.58c-.1-1-.27-2.5-.51-4.32-.46-3.64-1.28-8.64-2.36-14.13s-2.17-10.46-2.93-14c-.35-1.74-.65-3.17-.87-4.27a10.79,10.79,0,0,1-.25-1.58,9.58,9.58,0,0,1,.45,1.54c.26,1.09.61,2.51,1,4.23.85,3.57,2,8.52,3.08,14s1.85,10.53,2.22,14.19c.19,1.83.3,3.32.34,4.35A8.41,8.41,0,0,1,131.53,210.17Z" style="fill:#263238"></path><path d="M137.32,292.39a2.89,2.89,0,0,1-.06-.66c0-.49,0-1.12-.09-1.9-.06-1.72-.14-4.09-.24-7-.21-5.91-.55-14.07-1.05-23.07s-1.1-17.15-1.58-23c-.23-2.9-.43-5.27-.57-7-.06-.78-.11-1.41-.14-1.9a3.12,3.12,0,0,1,0-.67,3.08,3.08,0,0,1,.12.66l.24,1.89c.2,1.64.46,4,.74,7,.57,5.89,1.22,14,1.73,23.05s.78,17.18.89,23.09c.06,2.95.09,5.35.09,7,0,.78,0,1.42,0,1.91A3.1,3.1,0,0,1,137.32,292.39Z" style="fill:#263238"></path><path d="M146.9,296.43a5.13,5.13,0,0,1-.67-.22l-1.91-.71c-1.65-.66-4.09-1.56-7.07-3l.22-.08a17.13,17.13,0,0,1-4.1,5.52,23.34,23.34,0,0,1-7.06,4.3,26.45,26.45,0,0,1-4.38,1.28l-2.32.52c-.79.15-1.59.27-2.4.41a71.55,71.55,0,0,1-10.14.92,74.14,74.14,0,0,1-17.43-1.79,70.42,70.42,0,0,1-13.58-4.53c-1.87-.82-3.49-1.71-4.91-2.47s-2.59-1.56-3.56-2.16L65.45,293l-.55-.41c-.12-.09-.18-.14-.17-.15l.2.11.58.36,2.19,1.43c1,.57,2.17,1.3,3.59,2.07s3,1.6,4.92,2.39a71,71,0,0,0,13.53,4.4,75.55,75.55,0,0,0,17.32,1.74,72.08,72.08,0,0,0,10.07-.9c.81-.14,1.6-.25,2.38-.4l2.3-.51a25.28,25.28,0,0,0,4.33-1.24,23.15,23.15,0,0,0,7-4.17,16.7,16.7,0,0,0,4.08-5.35l.07-.15.16.07c2.93,1.43,5.36,2.38,7,3.09l1.88.8A3.06,3.06,0,0,1,146.9,296.43Z" style="fill:#263238"></path><path d="M114,271.59a5.84,5.84,0,0,1-.88.78c-.59.48-1.47,1.12-2.6,1.87a44.46,44.46,0,0,1-19.76,7,31.33,31.33,0,0,1-3.19.18,5,5,0,0,1-1.18,0c0-.09,1.67-.14,4.33-.49a50.12,50.12,0,0,0,19.6-6.93C112.57,272.53,113.9,271.52,114,271.59Z" style="fill:#263238"></path><path d="M112.35,253.5a5.19,5.19,0,0,1-.59-1.11c-.35-.74-.82-1.81-1.39-3.15-1.12-2.67-2.56-6.41-3.92-10.63s-2.4-8.09-3-10.91c-.33-1.41-.58-2.56-.72-3.36a5.44,5.44,0,0,1-.18-1.25,5.77,5.77,0,0,1,.37,1.2c.24.89.53,2,.88,3.32.75,2.8,1.83,6.64,3.19,10.84s2.74,8,3.78,10.66l1.23,3.2A7,7,0,0,1,112.35,253.5Z" style="fill:#263238"></path><path d="M123.43,172.21a11.55,11.55,0,0,1-1.26-1.15l-3.34-3.32.31-.1c-.36,3-.82,6.84-1.33,11.17l0,.39-.33-.2-4.63-2.8c-5.45-3.31-10.36-6.33-13.91-8.53L94.71,165l-1.13-.74a1.87,1.87,0,0,1-.37-.28s.16.05.43.19l1.17.66,4.27,2.49c3.6,2.13,8.54,5.1,14,8.4l4.62,2.81-.38.19c.57-4.32,1.08-8.17,1.47-11.15l0-.38.26.27,3.22,3.43A10.47,10.47,0,0,1,123.43,172.21Z" style="fill:#263238"></path><path d="M96.84,165.92A16.74,16.74,0,0,1,98.12,162a16.19,16.19,0,0,1,1.77-3.73,16.74,16.74,0,0,1-1.28,3.92A17.16,17.16,0,0,1,96.84,165.92Z" style="fill:#fff"></path><path d="M105.51,159.79c.13.09-1.15,1.89-2.38,4.3s-2,4.48-2.12,4.43a13.45,13.45,0,0,1,1.66-4.67A13.17,13.17,0,0,1,105.51,159.79Z" style="fill:#fff"></path><path d="M110.77,162.74a26.09,26.09,0,0,1-1.76,4.81,25.2,25.2,0,0,1-2.23,4.6,25.58,25.58,0,0,1,1.75-4.81A24.11,24.11,0,0,1,110.77,162.74Z" style="fill:#fff"></path><path d="M116,165.12a30.23,30.23,0,0,1-1.42,5.42,29.29,29.29,0,0,1-1.92,5.27,30.23,30.23,0,0,1,1.42-5.42A32.09,32.09,0,0,1,116,165.12Z" style="fill:#fff"></path><path d="M54.44,253.5s0-.07-.11-.23a7.41,7.41,0,0,1-.25-.71,12,12,0,0,1-.54-2.84,16.36,16.36,0,0,1,.39-4.56c.39-1.75,1-3.67,1.61-5.83,2.51-8.59,6.28-20.37,11.16-33.14,2.43-6.38,4.88-12.41,7.25-17.84a56.22,56.22,0,0,1,8-13.57A28.45,28.45,0,0,1,90,168a15.94,15.94,0,0,1,3.58-1.53l-.23.12-.69.29a22.94,22.94,0,0,0-2.56,1.3A29.13,29.13,0,0,0,82.18,175a56.73,56.73,0,0,0-7.79,13.52C72.05,194,69.61,200,67.18,206.38c-4.86,12.75-8.69,24.5-11.29,33.06-.63,2.14-1.26,4.07-1.68,5.79a16.55,16.55,0,0,0-.47,4.48A16.3,16.3,0,0,0,54.44,253.5Z" style="fill:#fff"></path><path d="M107.07,244a1.15,1.15,0,0,1-.32.17l-1,.45c-.84.4-2.09,1-3.71,1.65-3.25,1.38-8,3.27-14,5.19-3,1-6.33,1.93-9.92,2.84-1.8.45-3.67.9-5.6,1.31a25.34,25.34,0,0,1-3,.54,6.68,6.68,0,0,1-3.15-.3,4.28,4.28,0,0,1-2.38-2.24,7.16,7.16,0,0,1-.53-3.27,32.08,32.08,0,0,1,1.36-6.58c1.16-4.38,2.44-8.9,3.84-13.5,2.8-9.21,5.79-17.89,8.94-25.61a199.07,199.07,0,0,1,9.38-20.07,141.48,141.48,0,0,1,7.79-12.74c1-1.43,1.86-2.52,2.41-3.27l.64-.84c.14-.19.22-.28.23-.27a1.91,1.91,0,0,1-.19.3l-.6.87c-.54.79-1.32,1.9-2.32,3.33-1.91,3-4.71,7.22-7.64,12.8a206.3,206.3,0,0,0-9.26,20.07C75,212.53,72,221.2,69.22,230.4c-1.38,4.59-2.67,9.11-3.83,13.49A31,31,0,0,0,64,250.35a6.65,6.65,0,0,0,.48,3.05,3.79,3.79,0,0,0,2.1,2,6.5,6.5,0,0,0,2.94.29,25.87,25.87,0,0,0,2.92-.53c1.93-.4,3.8-.84,5.59-1.28C81.66,253,85,252,88,251.1c6-1.87,10.77-3.71,14-5l3.75-1.55,1-.41A1.55,1.55,0,0,1,107.07,244Z" style="fill:#fff"></path><path d="M77,233.15a3.79,3.79,0,0,1,.12-.68c.12-.5.28-1.14.47-1.94s.49-1.86.83-3,.74-2.53,1.23-4A226.15,226.15,0,0,1,88.54,201c3.9-8.6,7.81-16.21,10.81-21.62,1.49-2.72,2.76-4.88,3.65-6.36l1-1.7a2.84,2.84,0,0,1,.4-.57,4.19,4.19,0,0,1-.31.63l-1,1.74c-.83,1.51-2,3.7-3.49,6.43C96.76,185,92.91,192.63,89,201.22s-7,16.54-9,22.39c-.51,1.46-1,2.79-1.3,4s-.7,2.18-.92,3l-.55,1.91A3.53,3.53,0,0,1,77,233.15Z" style="fill:#fff"></path><path d="M103.36,229.54a5.24,5.24,0,0,1-1,.52c-.68.3-1.66.72-2.89,1.21-2.45,1-5.87,2.27-9.71,3.52s-7.35,2.23-9.91,2.88c-1.29.32-2.33.56-3,.71a4.9,4.9,0,0,1-1.14.19,4.74,4.74,0,0,1,1.09-.38l3-.88c2.53-.73,6-1.77,9.85-3s7.26-2.46,9.74-3.36l2.94-1.06A4.25,4.25,0,0,1,103.36,229.54Z" style="fill:#fff"></path><path d="M91.81,226.57a34.51,34.51,0,0,1-.56-6.07,34.63,34.63,0,0,1,0-6.1,36.79,36.79,0,0,1,.56,6.07A37.11,37.11,0,0,1,91.81,226.57Z" style="fill:#fff"></path><path d="M100.16,223.15c-.14,0-.62-6.81-1.06-15.23s-.69-15.26-.55-15.26.62,6.81,1.07,15.23S100.31,223.14,100.16,223.15Z" style="fill:#fff"></path><path d="M109.75,215.7a11.39,11.39,0,0,1-.24-1.7c-.13-1.1-.28-2.69-.44-4.66-.34-3.93-.7-9.38-1.06-15.4s-.67-11.38-.91-15.4c-.11-1.91-.21-3.48-.28-4.67a10.25,10.25,0,0,1,0-1.72,12,12,0,0,1,.24,1.7c.13,1.1.28,2.69.45,4.66.33,3.94.7,9.39,1.06,15.4s.67,11.38.9,15.41c.12,1.9.21,3.47.28,4.66A10.2,10.2,0,0,1,109.75,215.7Z" style="fill:#fff"></path><path d="M127.59,292.39a1.11,1.11,0,0,1,0-.29l0-.87c0-.79-.08-1.9-.14-3.31-.12-2.92-.29-7.08-.49-12.21-.44-10.3-1.18-24.53-2.31-40.22s-2.51-29.88-3.65-40.13c-.57-5.12-1.06-9.27-1.42-12.13-.17-1.4-.3-2.5-.4-3.3,0-.35-.06-.63-.09-.86a1.59,1.59,0,0,1,0-.29,1.48,1.48,0,0,1,.07.29c0,.22.08.5.14.85.11.79.28,1.89.49,3.28.42,2.86,1,7,1.58,12.12,1.24,10.24,2.67,24.43,3.8,40.13s1.82,29.94,2.16,40.25c.19,5.15.28,9.33.33,12.21,0,1.41,0,2.53,0,3.32v.87A.94.94,0,0,1,127.59,292.39Z" style="fill:#fff"></path><path d="M110.11,273.72a86,86,0,0,1-.11-9.5,85.42,85.42,0,0,1,.42-9.49,87.45,87.45,0,0,1,.1,9.5A87.25,87.25,0,0,1,110.11,273.72Z" style="fill:#fff"></path><path d="M106.21,296.77a18.29,18.29,0,0,1,.15-3c.15-1.83.34-4.36.49-7.15s.24-5.34.3-7.17a17.39,17.39,0,0,1,.17-3,15,15,0,0,1,.19,3c0,1.84,0,4.39-.14,7.2s-.4,5.34-.64,7.16A15.3,15.3,0,0,1,106.21,296.77Z" style="fill:#fff"></path><path d="M91.49,280.12a17.84,17.84,0,0,1,.08-3c.12-1.84.32-4.38.57-7.18s.51-5.33.72-7.16a16.59,16.59,0,0,1,.45-2.95,17.86,17.86,0,0,1-.08,3c-.12,1.84-.32,4.38-.57,7.18s-.51,5.33-.72,7.16A16.82,16.82,0,0,1,91.49,280.12Z" style="fill:#fff"></path><path d="M87,294.63a35.3,35.3,0,0,1,.25-6.1,36.76,36.76,0,0,1,.78-6.06,36,36,0,0,1-.26,6.1A36,36,0,0,1,87,294.63Z" style="fill:#fff"></path><path d="M74.38,288.42a3.45,3.45,0,0,1,0-1c0-.64.11-1.56.22-2.69.22-2.27.59-5.4,1.07-8.84s1-6.56,1.4-8.8c.21-1.12.39-2,.52-2.65a3.63,3.63,0,0,1,.27-1,4,4,0,0,1-.07,1c-.1.74-.22,1.63-.35,2.67-.34,2.39-.78,5.44-1.26,8.81s-.88,6.42-1.21,8.81l-.39,2.67A3.93,3.93,0,0,1,74.38,288.42Z" style="fill:#fff"></path><path d="M142.72,286.74s0-.08-.05-.26-.06-.46-.11-.77l-.33-3-1.17-11c-1-9.28-2.39-22-3.91-36.14s-3.1-26.85-4.17-36.13c-.53-4.59-1-8.32-1.28-10.95-.14-1.26-.25-2.25-.32-3,0-.32-.06-.58-.08-.78a.92.92,0,0,1,0-.27l.06.26c0,.21.07.46.12.77q.15,1.08.42,3c.35,2.62.84,6.34,1.45,10.93,1.18,9.23,2.74,22,4.31,36.11s2.88,26.9,3.77,36.17l1,11c.1,1.27.18,2.27.24,3,0,.32,0,.57.05.78A.86.86,0,0,1,142.72,286.74Z" style="fill:#fff"></path><g style="opacity:0.30000000000000004"><path d="M126.22,249.12c-1.11-5.89-2.6-12.4-7.54-15.79l3.33,14a4.89,4.89,0,0,1,0,3.18c-.58,1.27-2.08,1.8-3.42,2.19a450.39,450.39,0,0,1-48,11.49c9,4.38,20,2.81,29.66.12q10.88-3,21.51-6.81c1.5-.54,3.1-1.16,4-2.47C126.92,253.35,126.59,251.11,126.22,249.12Z"></path></g><g style="opacity:0.30000000000000004"><path d="M95.4,204.47a185,185,0,0,0-12.11,25.72l.75,0c5-1.16,9-5.49,10.7-10.37S96.29,209.58,95.4,204.47Z"></path></g><path d="M146.24,289.05a6.76,6.76,0,0,0-2.81-1.64,9,9,0,0,0-3.8-.24,15.8,15.8,0,0,0-4.8,1.68,69.24,69.24,0,0,1-12.21,5.62,56,56,0,0,1-16.21,2.78,59.74,59.74,0,0,1-16.36-1.85,61,61,0,0,1-12.54-4.85,53.91,53.91,0,0,1-7.6-4.94L68,284a6,6,0,0,1-.64-.57,6.37,6.37,0,0,1,.71.49l2,1.5a60.86,60.86,0,0,0,7.65,4.77,62,62,0,0,0,12.49,4.71,60,60,0,0,0,16.22,1.8A56.69,56.69,0,0,0,122.48,294a70,70,0,0,0,12.18-5.49,15.86,15.86,0,0,1,4.93-1.64,9,9,0,0,1,3.9.34,6,6,0,0,1,2.16,1.2A3.11,3.11,0,0,1,146.24,289.05Z" style="fill:#263238"></path><g style="opacity:0.30000000000000004"><path d="M119,167.78l-1.47,11-24-14.68a73.24,73.24,0,0,0,26,21.1l1.41-12.53,3.81,3.36A20,20,0,0,0,119,167.78Z"></path></g><path d="M147.8,202.38l-8.63,5.9,0,7.12c2.32-1.55,3.63-3.39,6-4.94.83-.56,1.64-2.26,2.23-3.07C148.59,205.64,148.22,204,147.8,202.38Z" style="fill:#ffbe9d"></path><path d="M154,228.17a13.47,13.47,0,0,1-9.84-4.39,11.3,11.3,0,0,1-2.45-10.35,9.74,9.74,0,0,1,7.86-6.92l1.15,3.69S145,213,146.09,218s8.2,5.53,8.2,5.53Z" style="fill:#90CAF9"></path><polygon points="149.39 205.36 152.06 231.72 174 231.72 176.98 205.38 149.39 205.36" style="fill:#90CAF9"></polygon><path d="M148.81,219.35c-1.29-.11-2.6-.34-2.68-.79l-.15-.9s4.64-.59,4.94-1.64a5.55,5.55,0,0,0-.13-2.07,3.55,3.55,0,0,0-4.27-2.82h-.06a27,27,0,0,1-3,.54l-3.74-1.05-.45-2.39-9.72,6.43L115.82,224l3.59,11.85,7.42-4.15s16.16.89,17.21.3,1.64-3.29,1.64-3.29,4.94-2.25,4.34-4a9.4,9.4,0,0,0,.9-1.23A2.72,2.72,0,0,0,148.81,219.35Z" style="fill:#ffbe9d"></path><path d="M167.75,219.58a12,12,0,0,1-.08-2.52c0-1.55.11-3.7.13-6.06a19,19,0,0,0-.16-3.29,3.27,3.27,0,0,0-1.22-2.18,2.39,2.39,0,0,0-1.62-.49c-.41,0-.62.17-.65.13s.16-.21.61-.33a2.46,2.46,0,0,1,1.87.39,3.59,3.59,0,0,1,1.48,2.39,16.78,16.78,0,0,1,.21,3.38c0,2.38-.17,4.53-.28,6.08A12,12,0,0,1,167.75,219.58Z" style="fill:#263238"></path><polygon points="170.63 218.7 165.57 218.67 164.15 221.52 164.15 227.63 171.47 227.63 171.73 221.52 170.63 218.7" style="fill:#e0e0e0"></polygon><path d="M160.7,173.92a.71.71,0,0,1,.3.12,2.3,2.3,0,0,1,.7.62,3.92,3.92,0,0,1,.48,3.33c-.33,1.43-1.38,2.84-1.91,4.57a4,4,0,0,0,.06,2.71,11.55,11.55,0,0,0,1.77,2.49,4.89,4.89,0,0,1,1.33,3,5.25,5.25,0,0,1-1,2.87c-1.08,1.59-2.34,2.72-2.89,4a3.6,3.6,0,0,0,0,3.11,3.55,3.55,0,0,0,.76.91s-.11,0-.3-.13a2.36,2.36,0,0,1-.64-.68,3.71,3.71,0,0,1-.12-3.35c.54-1.39,1.82-2.59,2.82-4.1a4.84,4.84,0,0,0,.86-2.61,4.43,4.43,0,0,0-1.22-2.65,10.92,10.92,0,0,1-1.84-2.63,4.34,4.34,0,0,1-.05-3c.61-1.85,1.66-3.2,2-4.54a3.75,3.75,0,0,0-.29-3.11A4,4,0,0,0,160.7,173.92Z" style="fill:#263238"></path><path d="M167.25,173.92a.71.71,0,0,1,.3.12,2.3,2.3,0,0,1,.7.62,4,4,0,0,1,.48,3.33c-.34,1.43-1.38,2.84-1.91,4.57a4,4,0,0,0,.05,2.71,11.62,11.62,0,0,0,1.78,2.49,4.89,4.89,0,0,1,1.33,3,5.25,5.25,0,0,1-1,2.87c-1.08,1.59-2.35,2.72-2.89,4a3.64,3.64,0,0,0,0,3.11,3.45,3.45,0,0,0,.77.91s-.12,0-.3-.13a2.23,2.23,0,0,1-.64-.68,3.74,3.74,0,0,1-.13-3.35c.54-1.39,1.83-2.59,2.82-4.1a4.93,4.93,0,0,0,.87-2.61,4.44,4.44,0,0,0-1.23-2.65,11.51,11.51,0,0,1-1.84-2.63,4.39,4.39,0,0,1,0-3c.6-1.85,1.66-3.2,2-4.54a3.83,3.83,0,0,0-.29-3.11A4,4,0,0,0,167.25,173.92Z" style="fill:#263238"></path><path d="M167.17,225.42a2.36,2.36,0,0,0,1.55-.39,2.19,2.19,0,0,0,.8-1.46,3.51,3.51,0,0,0-.44-2.06l-.16-.28.35.09a8.54,8.54,0,0,0-1.74,1.19,2.78,2.78,0,0,0-.84,1.38,2.65,2.65,0,0,0,.18,1.5s-.17-.07-.32-.33a2,2,0,0,1-.21-1.23,3,3,0,0,1,.85-1.66,7.81,7.81,0,0,1,1.83-1.3l.22-.13.13.22.17.31a3.78,3.78,0,0,1,.45,2.38,2.43,2.43,0,0,1-1.07,1.68,1.93,1.93,0,0,1-1.3.29C167.3,225.56,167.16,225.45,167.17,225.42Z" style="fill:#263238"></path><path d="M168.84,223c.1.11-.55.84-1.17,1.86s-1,1.92-1.15,1.88a3.37,3.37,0,0,1,.7-2.16C167.89,223.47,168.75,222.86,168.84,223Z" style="fill:#263238"></path><path d="M136.29,198.07a29.87,29.87,0,0,0-.34-4.89c-.47-3-2-6.91-4-11.11s-3.7-8-4.93-10.84c-.58-1.32-1.06-2.43-1.44-3.31a5.68,5.68,0,0,1-.46-1.24,6.4,6.4,0,0,1,.64,1.16c.42.85,1,1.94,1.59,3.24,1.32,2.74,3.12,6.55,5.07,10.77s3.49,8.21,3.87,11.28a17.33,17.33,0,0,1,.17,3.62A5.51,5.51,0,0,1,136.29,198.07Z" style="fill:#263238"></path></g><g id="freepik--Cat--inject-2"><path d="M441.74,432.16a17.56,17.56,0,0,0,1.66,5.11c1.15,1.91,1.4,5.87,1.28,8.43s-.26,9.57.76,11.62,4.13,6,5,9.06,1.15,7.28,0,10-2.18,6.64-4,7.28-7.28,0-7.28,0,0-1.91.77-2.55,3.45-1.92,3.7-4,.64-5.49.64-5.49-6.51-2.68-9.83-5.88-7.53-7.71-7.53-7.71a51.33,51.33,0,0,1-2.69,7.59,5.88,5.88,0,0,0,0,5.36c.39.89-4.47,6.22-9.83,10.22s-9.83,1.53-9.83,1.53-.77-3.32.64-4a11,11,0,0,1,4.21-.38s6.64-4.86,5.87-8.43-3.06-7.66-3.32-10.35-.38-3.95-.38-3.95a85.39,85.39,0,0,1-12.42.76,30.8,30.8,0,0,1-7.76-1.27s-2.17,13.28-.76,15.19,5.87,5.49,6.26,7.92-.26,5.93-3.07,5.65-2.68-2-2.55-4.25a50.07,50.07,0,0,1-4.86-5.49c-.89-1.53-5.74-14.94-5.74-14.94s-7.54,14.56-7.79,17.11a6,6,0,0,1-2.81,4.47c-.51.13-1.66,4.39-3.45,4.39a51.88,51.88,0,0,1-6.13-.81s.13-2.81,2-3.7,4.6-1.28,4.6-5,2.17-18.27,2-18.78-4.08-7.79-4.72-10.34-2-8.43-2-8.43-2.56-8-4.6-10.09-5-2-7.15-2.3-2.28-1.15-2.94-2.55-2.15-4.47-1.4-4.85,4.72-2.05,5.23-2.81.9-2.43,2.56-3.07,5.74-3.32,7.79-3.32,6,3.58,6.89,4.34a51.52,51.52,0,0,1,4.85,5.24c1.41,1.79,2.43,6.64,7.67,6.77s50.31,1.15,52.48-.13,5,.13,5.88-10.22,1.4-17.11.25-18.77,0-2-2.17-2.42-4.85-.9-5.62-2.43-.25-3.8,1.79-3.8,11.49,0,13,12.48-2.55,20.31-3.44,25.16S441.29,430.16,441.74,432.16Z" style="fill:#263238"></path><path d="M407.9,454.89a12.49,12.49,0,0,0,3-.29,31.09,31.09,0,0,0,3.14-1,14.62,14.62,0,0,1,4-.95,8.49,8.49,0,0,1,4.07.87,11.39,11.39,0,0,1,2.8,1.9,11.74,11.74,0,0,1,1.54,1.66c.33.42.48.68.45.7s-.79-.89-2.23-2.09a12.62,12.62,0,0,0-2.76-1.74,8.28,8.28,0,0,0-3.84-.78,15.15,15.15,0,0,0-3.9.89A25.7,25.7,0,0,1,411,455a7.52,7.52,0,0,1-2.27.13A2.41,2.41,0,0,1,407.9,454.89Z" style="fill:#455a64"></path><path d="M367.41,414.83a36.26,36.26,0,0,0-3.27-9.61c-.18-.35-.41-.73-.8-.79-.58-.07-.92.62-1.06,1.19a24.09,24.09,0,0,0-.7,4.54" style="fill:#263238"></path><path d="M359.31,410.26a7.7,7.7,0,0,0-2.05-3.53c-.27-.26-.64-.53-1-.38s-.42.56-.46.92a24,24,0,0,0,.08,5" style="fill:#263238"></path><path d="M347,421.25a3,3,0,0,0,1.5-1.62,2.88,2.88,0,0,0-.36-2.11s-1.79.54-1.92,1.06S347,421.25,347,421.25Z" style="fill:#455a64"></path><path d="M362.27,409.82a4.3,4.3,0,0,1,.1-1.55c.09-.56.18-1.11.26-1.67a1.66,1.66,0,0,1,.15-.53.55.55,0,0,1,.31-.29.5.5,0,0,1,.49.1,1.43,1.43,0,0,1,.3.57l.18.52a14.63,14.63,0,0,1,.7,3.7,2.39,2.39,0,0,1-.13,1.17c-.13.27-.29.35-.31.32s.06-.14.12-.38a3.15,3.15,0,0,0-.05-1.07,21.57,21.57,0,0,0-.83-3.58l-.17-.51a1.42,1.42,0,0,0-.16-.36,1.46,1.46,0,0,0-.13.44l-.36,1.63A5,5,0,0,1,362.27,409.82Z" style="fill:#455a64"></path><path d="M353.75,412.61A10.86,10.86,0,0,1,356.6,411a10.44,10.44,0,0,1,3.08-1.19,10.86,10.86,0,0,1-2.85,1.66A10.44,10.44,0,0,1,353.75,412.61Z" style="fill:#455a64"></path><path d="M368.75,445.89a15.1,15.1,0,0,0,1.16,2.77,18.42,18.42,0,0,0,5,5.17c1.16.77,2.47,1.3,3.46,2.12a7.93,7.93,0,0,1,2.14,2.6,11.54,11.54,0,0,1,.83,2.1,2.77,2.77,0,0,1,.17.8c-.1,0-.41-1.1-1.32-2.72a8.12,8.12,0,0,0-2.11-2.4c-.95-.75-2.22-1.26-3.46-2.06a17.12,17.12,0,0,1-5-5.43,7.72,7.72,0,0,1-.77-2.12A2,2,0,0,1,368.75,445.89Z" style="fill:#455a64"></path><path d="M366.55,443.27c.16,0,.17,1.5.76,3.21s1.47,2.91,1.35,3a5.28,5.28,0,0,1-1.84-2.84A5.39,5.39,0,0,1,366.55,443.27Z" style="fill:#455a64"></path><path d="M358,415.71a.89.89,0,1,1-.89-.88A.89.89,0,0,1,358,415.71Z" style="fill:#455a64"></path><path d="M359.1,416c-.11.12-.87-.73-2.11-.68a1.89,1.89,0,0,0-1.25.7c-.3.29-.49.49-.55.45s0-.3.26-.68a2.44,2.44,0,0,1,.54-.61,1.52,1.52,0,0,1,1-.38,2.46,2.46,0,0,1,1.7.59C359,415.65,359.15,415.9,359.1,416Z" style="fill:#455a64"></path></g></svg>