<svg width="1040" height="511" viewBox="0 0 1040 511" fill="none" xmlns="http://www.w3.org/2000/svg">
<g clip-path="url(#clip0_33:617)">
<rect width="1040" height="511" fill="#E8F1F8"/>
<path d="M1034.62 463.718C1047.48 491.962 1034.33 525.209 1003.38 540.842C972.432 556.371 923.396 554.287 890.656 537.507C857.915 520.728 841.47 489.253 853.131 462.051C864.792 434.849 904.709 411.92 944.027 412.024C983.196 412.233 1021.77 435.37 1034.62 463.718Z" fill="white"/>
<path d="M707.032 464.415C720.233 492.66 706.725 525.906 674.95 541.54C643.176 557.069 592.828 554.984 559.211 538.204C525.595 521.425 508.71 489.95 520.683 462.748C532.656 435.546 573.64 412.617 614.011 412.721C654.228 412.93 693.831 436.067 707.032 464.415Z" fill="white"/>
<path d="M862.698 454.096C872.05 462.665 875.808 472.611 880.703 483.636C885.685 494.66 891.803 506.764 886.122 514.613C880.353 522.522 862.698 526.237 847.053 527.435C831.32 528.634 817.685 527.375 802.04 525.338C786.482 523.301 769.002 520.545 759.475 512.875C749.948 505.206 748.462 492.623 751.259 480.4C753.969 468.117 761.136 456.134 773.809 447.985C786.57 439.776 805.012 435.402 821.706 436.84C838.4 438.218 853.346 445.468 862.698 454.096Z" fill="white"/>
<path d="M757.21 447.509C768.13 454.62 775.833 464.031 776.905 473.512C777.978 482.993 772.323 492.474 764.23 499.376C756.04 506.277 745.218 510.53 733.615 514.016C721.915 517.432 709.338 520.011 693.64 519.871C677.943 519.662 659.028 516.734 649.668 508.299C640.308 499.864 640.405 485.921 643.525 472.257C646.645 458.524 652.69 444.999 665.56 438.167C678.333 431.266 698.028 430.987 714.993 433.287C731.958 435.588 746.193 440.398 757.21 447.509Z" fill="white"/>
<path d="M519.651 438.808C533.901 444.689 549.473 451.722 552.87 460.864C556.362 470.006 547.68 481.193 538.525 492.381C529.277 503.505 519.556 514.692 505.211 519.039C490.866 523.387 471.803 520.893 454.06 516.418C436.412 511.879 419.991 505.295 410.837 495.386C401.588 485.54 399.701 472.435 406.496 462.782C413.196 453.128 428.768 446.927 442.358 440.982C456.042 435.036 467.65 429.283 480.013 428.771C492.376 428.196 505.306 432.926 519.651 438.808Z" fill="white"/>
<path d="M448.915 484.737C448.915 506.572 405.17 525.156 366.992 525.156C329.013 525.156 297 506.572 297 484.737C297 462.902 329.013 438 366.992 438C405.17 438 448.915 462.902 448.915 484.737Z" fill="white"/>
<path d="M215.885 452.729C235.129 465.007 251.826 479.44 249.704 493.011C247.581 506.582 226.639 519.292 212.206 532.001C197.773 544.603 190.132 557.097 177.822 560.867C165.511 564.637 148.673 559.79 124.901 558.066C101.129 556.343 70.5647 557.851 51.0377 547.08C31.6522 536.417 23.3037 513.583 31.5107 495.381C39.5762 477.178 63.9142 463.607 87.1202 451.867C110.185 440.127 131.834 430.218 153.484 430.325C175.133 430.433 196.783 440.558 215.885 452.729Z" fill="white"/>
<path d="M301.641 452.825C312.541 462.794 316.741 474.993 317.241 487.542C317.641 500.021 314.441 512.918 303.541 521.353C292.741 529.788 274.241 533.901 259.841 531.113C245.341 528.324 234.941 518.704 227.541 510.199C220.041 501.763 215.641 494.513 214.441 486.357C213.241 478.27 215.341 469.347 222.741 459.308C230.241 449.339 243.041 438.254 258.141 436.651C273.341 434.978 290.841 442.786 301.641 452.825Z" fill="white"/>
<path d="M100.345 458.84C120.153 470.797 142.383 479.859 138.25 488.453C134.26 497.047 103.908 505.174 87.8051 514.049C71.7026 522.924 69.5651 532.545 58.5926 542.167C47.6201 551.789 27.6701 561.411 8.43262 560.757C-10.8049 560.01 -29.4724 549.08 -31.7524 536.656C-34.0324 524.231 -19.9249 510.499 -15.7924 495.739C-11.5174 480.98 -16.9324 465.192 -8.38238 451.834C0.167619 438.475 22.9676 427.639 42.9176 429.694C63.0101 431.749 80.5376 446.789 100.345 458.84Z" fill="white"/>
</g>
<defs>
<clipPath id="clip0_33:617">
<rect width="1040" height="511" fill="white"/>
</clipPath>
</defs>
</svg>
